SplineFontDB: 3.2
FontName: RobotoLegacy-Bold
FullName: Roboto Legacy Bold
FamilyName: Roboto Legacy
Weight: Bold
Copyright: Font data copyright Google 2011
Version: 1.00000; 2011
ItalicAngle: 0
UnderlinePosition: -200
UnderlineWidth: 100
Ascent: 1536
Descent: 512
InvalidEm: 0
sfntRevision: 0x00010000
LayerCount: 2
Layer: 0 1 "Back" 1
Layer: 1 1 "Fore" 0
XUID: [1021 474 -1613799265 14115]
StyleMap: 0x0020
FSType: 4
OS2Version: 3
OS2_WeightWidthSlopeOnly: 0
OS2_UseTypoMetrics: 0
CreationTime: 1221222574
ModificationTime: 1744076480
PfmFamily: 81
TTFWeight: 700
TTFWidth: 5
LineGap: 0
VLineGap: 0
Panose: 0 0 0 0 0 0 0 0 0 0
OS2TypoAscent: 1536
OS2TypoAOffset: 0
OS2TypoDescent: -512
OS2TypoDOffset: 0
OS2TypoLinegap: 102
OS2WinAscent: 1946
OS2WinAOffset: 0
OS2WinDescent: 512
OS2WinDOffset: 0
HheadAscent: 1900
HheadAOffset: 0
HheadDescent: -500
HheadDOffset: 0
OS2SubXSize: 1434
OS2SubYSize: 1331
OS2SubXOff: 0
OS2SubYOff: 287
OS2SupXSize: 1434
OS2SupYSize: 1331
OS2SupXOff: 0
OS2SupYOff: 977
OS2StrikeYSize: 102
OS2StrikeYPos: 512
OS2CapHeight: 1456
OS2XHeight: 1082
OS2Vendor: 'pyrs'
OS2CodePages: 2000019f.4f010000
OS2UnicodeRanges: e00002ef.5000205b.00000020.00000000
Lookup: 1 0 0 "'smcp' Lowercase to Small Capitals lookup 0" { "'smcp' Lowercase to Small Capitals lookup 0 subtable"  } ['smcp' ('DFLT' <'dflt' > ) ]
Lookup: 4 0 1 "'liga' Standard Ligatures lookup 1" { "'liga' Standard Ligatures lookup 1 subtable"  } ['liga' ('DFLT' <'dflt' > ) ]
Lookup: 258 0 0 "'kern' Horizontal Kerning lookup 0" { "'kern' Horizontal Kerning lookup 0 per glyph data 0"  "'kern' Horizontal Kerning lookup 0 per glyph data 1"  "'kern' Horizontal Kerning lookup 0 per glyph data 2"  "'kern' Horizontal Kerning lookup 0 kerning class 3"  } ['kern' ('DFLT' <'dflt' > ) ]
MarkAttachClasses: 1
DEI: 91125
KernClass2: 32+ 29 "'kern' Horizontal Kerning lookup 0 kerning class 3"

StartChar: exclam
Encoding: 33 33 4
Width: 557
GlyphClass: 1
Flags: W
LayerCount: 2
Fore
SplineSet
426 502 m 1,0,-1
 134 502 l 1,1,-1
 134 1456 l 1,2,-1
 426 1456 l 1,3,-1
 426 502 l 1,0,-1
426 0 m 1,4,-1
 134 0 l 1,5,-1
 134 256 l 1,6,-1
 426 256 l 1,7,-1
 426 0 l 1,4,-1
EndSplineSet
Validated: 1
EndChar

StartChar: quotedbl
Encoding: 34 34 5
Width: 832
GlyphClass: 1
Flags: W
LayerCount: 2
Fore
SplineSet
372 1181 m 1,0,-1
 270 932 l 1,1,-1
 141 932 l 1,2,-1
 141 1456 l 1,3,-1
 372 1456 l 1,4,-1
 372 1181 l 1,0,-1
713 1181 m 1,5,-1
 611 932 l 1,6,-1
 483 932 l 1,7,-1
 483 1456 l 1,8,-1
 713 1456 l 1,9,-1
 713 1181 l 1,5,-1
EndSplineSet
Validated: 1
EndChar

StartChar: numbersign
Encoding: 35 35 6
Width: 1219
GlyphClass: 1
Flags: W
LayerCount: 2
Fore
SplineSet
650 410 m 1,0,-1
 458 410 l 1,1,-1
 387 0 l 1,2,-1
 203 0 l 1,3,-1
 275 410 l 1,4,-1
 48 410 l 1,5,-1
 48 579 l 1,6,-1
 304 579 l 1,7,-1
 355 869 l 1,8,-1
 123 869 l 1,9,-1
 123 1040 l 1,10,-1
 385 1040 l 1,11,-1
 458 1456 l 1,12,-1
 641 1456 l 1,13,-1
 568 1040 l 1,14,-1
 760 1040 l 1,15,-1
 834 1456 l 1,16,-1
 1017 1456 l 1,17,-1
 944 1040 l 1,18,-1
 1164 1040 l 1,19,-1
 1164 869 l 1,20,-1
 914 869 l 1,21,-1
 863 579 l 1,22,-1
 1088 579 l 1,23,-1
 1088 410 l 1,24,-1
 834 410 l 1,25,-1
 762 0 l 1,26,-1
 578 0 l 1,27,-1
 650 410 l 1,0,-1
488 579 m 1,28,-1
 679 579 l 1,29,-1
 730 869 l 1,30,-1
 538 869 l 1,31,-1
 488 579 l 1,28,-1
EndSplineSet
Validated: 1
EndChar

StartChar: dollar
Encoding: 36 36 7
Width: 1216
GlyphClass: 1
Flags: W
LayerCount: 2
Fore
SplineSet
816 383 m 0,0,1
 816 465 816 465 769 514.5 c 128,-1,2
 722 564 722 564 602 610 c 1,3,4
 376 686 376 686 267 787 c 128,-1,5
 158 888 158 888 158 1071 c 0,6,7
 158 1240 158 1240 267 1347.5 c 128,-1,8
 376 1455 376 1455 563 1474 c 1,9,-1
 563 1688 l 1,10,-1
 722 1688 l 1,11,-1
 722 1471 l 1,12,13
 902 1446 902 1446 1004 1330.5 c 128,-1,14
 1106 1215 1106 1215 1103 1030 c 1,15,-1
 1101 1025 l 1,16,-1
 816 1025 l 1,17,18
 816 1134 816 1134 766.5 1192.5 c 128,-1,19
 717 1251 717 1251 628 1251 c 0,20,21
 534 1251 534 1251 492 1202 c 128,-1,22
 450 1153 450 1153 450 1070 c 0,23,24
 450 993 450 993 494.5 947 c 128,-1,25
 539 901 539 901 665 848 c 1,26,27
 887 776 887 776 997 671.5 c 128,-1,28
 1107 567 1107 567 1107 385 c 0,29,30
 1107 211 1107 211 998.5 106.5 c 128,-1,31
 890 2 890 2 702 -17 c 1,32,-1
 702 -214 l 1,33,-1
 543 -214 l 1,34,-1
 543 -17 l 1,35,36
 351 0 351 0 227.5 110.5 c 128,-1,37
 104 221 104 221 108 435 c 1,38,-1
 111 441 l 1,39,-1
 395 441 l 1,40,41
 395 313 395 313 457.5 258.5 c 128,-1,42
 520 204 520 204 620 204 c 0,43,44
 718 204 718 204 767 252 c 128,-1,45
 816 300 816 300 816 383 c 0,0,1
EndSplineSet
Validated: 33
EndChar

StartChar: percent
Encoding: 37 37 8
Width: 1513
GlyphClass: 1
Flags: W
LayerCount: 2
Fore
SplineSet
95 1176 m 2,0,1
 95 1305 95 1305 178.5 1391 c 128,-1,2
 262 1477 262 1477 411 1477 c 0,3,4
 562 1477 562 1477 645 1391.5 c 128,-1,5
 728 1306 728 1306 728 1176 c 2,6,-1
 728 1099 l 2,7,8
 728 970 728 970 645 885 c 128,-1,9
 562 800 562 800 413 800 c 0,10,11
 263 800 263 800 179 885 c 128,-1,12
 95 970 95 970 95 1099 c 2,13,-1
 95 1176 l 2,0,1
289 1099 m 2,14,15
 289 1041 289 1041 321 1001.5 c 128,-1,16
 353 962 353 962 413 962 c 0,17,18
 471 962 471 962 502.5 1001.5 c 128,-1,19
 534 1041 534 1041 534 1099 c 2,20,-1
 534 1176 l 2,21,22
 534 1234 534 1234 502 1274.5 c 128,-1,23
 470 1315 470 1315 411 1315 c 256,24,25
 352 1315 352 1315 320.5 1274.5 c 128,-1,26
 289 1234 289 1234 289 1176 c 2,27,-1
 289 1099 l 2,14,15
791 357 m 2,28,29
 791 485 791 485 875 571 c 128,-1,30
 959 657 959 657 1108 657 c 0,31,32
 1258 657 1258 657 1341.5 571.5 c 128,-1,33
 1425 486 1425 486 1425 357 c 2,34,-1
 1425 280 l 2,35,36
 1425 150 1425 150 1342 65 c 128,-1,37
 1259 -20 1259 -20 1110 -20 c 0,38,39
 960 -20 960 -20 875.5 65.5 c 128,-1,40
 791 151 791 151 791 280 c 2,41,-1
 791 357 l 2,28,29
985 280 m 2,42,43
 985 223 985 223 1019.5 182.5 c 128,-1,44
 1054 142 1054 142 1110 142 c 0,45,46
 1175 142 1175 142 1203 179.5 c 128,-1,47
 1231 217 1231 217 1231 280 c 2,48,-1
 1231 357 l 2,49,50
 1231 414 1231 414 1199 454.5 c 128,-1,51
 1167 495 1167 495 1108 495 c 0,52,53
 1048 495 1048 495 1016.5 454.5 c 128,-1,54
 985 414 985 414 985 357 c 2,55,-1
 985 280 l 2,42,43
461 109 m 1,56,-1
 319 184 l 1,57,-1
 1030 1322 l 1,58,-1
 1172 1247 l 1,59,-1
 461 109 l 1,56,-1
EndSplineSet
Validated: 1
EndChar

StartChar: ampersand
Encoding: 38 38 9
Width: 1346
GlyphClass: 1
Flags: W
LayerCount: 2
Fore
SplineSet
319 781 m 1,0,1
 253 871 253 871 221 945.5 c 128,-1,2
 189 1020 189 1020 189 1097 c 0,3,4
 189 1279 189 1279 295 1378 c 128,-1,5
 401 1477 401 1477 586 1477 c 0,6,7
 745 1477 745 1477 844.5 1378.5 c 128,-1,8
 944 1280 944 1280 944 1140 c 0,9,10
 944 1036 944 1036 901.5 960 c 128,-1,11
 859 884 859 884 776 819 c 1,12,-1
 674 747 l 1,13,-1
 944 432 l 1,14,15
 980 491 980 491 1000 561 c 128,-1,16
 1020 631 1020 631 1020 709 c 1,17,-1
 1253 709 l 1,18,19
 1253 567 1253 567 1217.5 449 c 128,-1,20
 1182 331 1182 331 1107 240 c 1,21,-1
 1308 5 l 1,22,-1
 1306 0 l 1,23,-1
 982 0 l 1,24,-1
 905 89 l 1,25,26
 820 34 820 34 730 6.5 c 128,-1,27
 640 -21 640 -21 537 -21 c 0,28,29
 319 -21 319 -21 190 93.5 c 128,-1,30
 61 208 61 208 61 392 c 0,31,32
 61 513 61 513 124.5 598.5 c 128,-1,33
 188 684 188 684 319 781 c 1,0,1
552 203 m 0,34,35
 605 203 605 203 658 216.5 c 128,-1,36
 711 230 711 230 760 257 c 1,37,-1
 465 599 l 1,38,-1
 456 592 l 2,39,40
 397 544 397 544 375 498 c 128,-1,41
 353 452 353 452 353 407 c 0,42,43
 353 318 353 318 408 260.5 c 128,-1,44
 463 203 463 203 552 203 c 0,34,35
450 1100 m 0,45,46
 450 1058 450 1058 470 1014 c 128,-1,47
 490 970 490 970 531 918 c 1,48,-1
 607 967 l 2,49,50
 663 1003 663 1003 682.5 1041 c 128,-1,51
 702 1079 702 1079 702 1124 c 0,52,53
 702 1175 702 1175 669 1213.5 c 128,-1,54
 636 1252 636 1252 578 1252 c 0,55,56
 518 1252 518 1252 484 1208 c 128,-1,57
 450 1164 450 1164 450 1100 c 0,45,46
EndSplineSet
Validated: 1
EndChar

StartChar: quotesingle
Encoding: 39 39 10
Width: 442
GlyphClass: 1
Flags: W
LayerCount: 2
Fore
SplineSet
352 1187 m 1,0,-1
 250 904 l 1,1,-1
 91 904 l 1,2,-1
 91 1456 l 1,3,-1
 352 1456 l 1,4,-1
 352 1187 l 1,0,-1
EndSplineSet
Validated: 1
EndChar

StartChar: parenleft
Encoding: 40 40 11
Width: 711
GlyphClass: 1
Flags: W
LayerCount: 2
Fore
SplineSet
124 592 m 2,0,1
 124 984 124 984 276 1257.5 c 128,-1,2
 428 1531 428 1531 620 1612 c 1,3,-1
 626 1612 l 1,4,-1
 679 1466 l 1,5,6
 548 1368 548 1368 459 1150 c 128,-1,7
 370 932 370 932 370 594 c 2,8,-1
 370 568 l 2,9,10
 370 229 370 229 459 11.5 c 128,-1,11
 548 -206 548 -206 679 -307 c 1,12,-1
 626 -450 l 1,13,-1
 620 -450 l 1,14,15
 428 -369 428 -369 276 -96 c 128,-1,16
 124 177 124 177 124 570 c 2,17,-1
 124 592 l 2,0,1
EndSplineSet
Validated: 1
EndChar

StartChar: parenright
Encoding: 41 41 12
Width: 713
GlyphClass: 1
Flags: W
LayerCount: 2
Fore
SplineSet
602 570 m 2,0,1
 602 187 602 187 443.5 -91.5 c 128,-1,2
 285 -370 285 -370 91 -450 c 1,3,-1
 85 -450 l 1,4,-1
 31 -307 l 1,5,6
 160 -209 160 -209 250 10 c 128,-1,7
 340 229 340 229 340 568 c 2,8,-1
 340 594 l 2,9,10
 340 930 340 930 249 1150.5 c 128,-1,11
 158 1371 158 1371 31 1470 c 1,12,-1
 85 1612 l 1,13,-1
 91 1612 l 1,14,15
 285 1532 285 1532 443.5 1253 c 128,-1,16
 602 974 602 974 602 592 c 2,17,-1
 602 570 l 2,0,1
EndSplineSet
Validated: 1
EndChar

StartChar: asterisk
Encoding: 42 42 13
Width: 857
GlyphClass: 1
Flags: W
LayerCount: 2
Fore
SplineSet
278 665 m 1,0,-1
 49 741 l 1,1,-1
 103 911 l 1,2,-1
 343 832 l 1,3,-1
 345 1081 l 1,4,-1
 521 1081 l 1,5,-1
 528 824 l 1,6,-1
 758 902 l 1,7,-1
 811 731 l 1,8,-1
 578 652 l 1,9,-1
 716 450 l 1,10,-1
 572 344 l 1,11,-1
 423 552 l 1,12,-1
 278 353 l 1,13,-1
 133 455 l 1,14,-1
 278 665 l 1,0,-1
EndSplineSet
Validated: 1
EndChar

StartChar: plus
Encoding: 43 43 14
Width: 1117
GlyphClass: 1
Flags: W
LayerCount: 2
Fore
SplineSet
694 812 m 1,0,-1
 1054 812 l 1,1,-1
 1054 560 l 1,2,-1
 694 560 l 1,3,-1
 694 146 l 1,4,-1
 418 146 l 1,5,-1
 418 560 l 1,6,-1
 56 560 l 1,7,-1
 56 812 l 1,8,-1
 418 812 l 1,9,-1
 418 1206 l 1,10,-1
 694 1206 l 1,11,-1
 694 812 l 1,0,-1
EndSplineSet
Validated: 1
EndChar

StartChar: comma
Encoding: 44 44 15
Width: 528
GlyphClass: 1
Flags: W
LayerCount: 2
Fore
SplineSet
417 13 m 1,0,-1
 258 -302 l 1,1,-1
 63 -302 l 1,2,-1
 133 22 l 1,3,-1
 133 250 l 1,4,-1
 417 250 l 1,5,-1
 417 13 l 1,0,-1
EndSplineSet
Validated: 1
EndChar

StartChar: hyphen
Encoding: 45 45 16
Width: 892
GlyphClass: 1
Flags: W
LayerCount: 2
Fore
SplineSet
735 510 m 1,0,-1
 146 510 l 1,1,-1
 146 735 l 1,2,-1
 735 735 l 1,3,-1
 735 510 l 1,0,-1
EndSplineSet
Validated: 1
EndChar

StartChar: period
Encoding: 46 46 17
Width: 596
GlyphClass: 1
Flags: W
LayerCount: 2
Fore
SplineSet
436 0 m 1,0,-1
 144 0 l 1,1,-1
 144 256 l 1,2,-1
 436 256 l 1,3,-1
 436 0 l 1,0,-1
EndSplineSet
Validated: 1
EndChar

StartChar: slash
Encoding: 47 47 18
Width: 825
GlyphClass: 1
Flags: W
LayerCount: 2
Fore
SplineSet
270 -125 m 1,0,-1
 -14 -125 l 1,1,-1
 520 1456 l 1,2,-1
 804 1456 l 1,3,-1
 270 -125 l 1,0,-1
EndSplineSet
Validated: 1
EndChar

StartChar: zero
Encoding: 48 48 19
Width: 1175
GlyphClass: 1
Flags: W
LayerCount: 2
Fore
SplineSet
1080 527 m 2,0,1
 1080 271 1080 271 945.5 125 c 128,-1,2
 811 -21 811 -21 589 -21 c 0,3,4
 365 -21 365 -21 230 125 c 128,-1,5
 95 271 95 271 95 527 c 2,6,-1
 95 928 l 2,7,8
 95 1183 95 1183 229.5 1330 c 128,-1,9
 364 1477 364 1477 587 1477 c 0,10,11
 809 1477 809 1477 944.5 1330 c 128,-1,12
 1080 1183 1080 1183 1080 928 c 2,13,-1
 1080 527 l 2,0,1
789 958 m 2,14,15
 789 1098 789 1098 735.5 1175 c 128,-1,16
 682 1252 682 1252 587 1252 c 0,17,18
 491 1252 491 1252 438.5 1175 c 128,-1,19
 386 1098 386 1098 386 958 c 2,20,-1
 386 499 l 2,21,22
 386 356 386 356 439 279.5 c 128,-1,23
 492 203 492 203 589 203 c 0,24,25
 684 203 684 203 736.5 279.5 c 128,-1,26
 789 356 789 356 789 499 c 2,27,-1
 789 958 l 2,14,15
EndSplineSet
Validated: 1
EndChar

StartChar: one
Encoding: 49 49 20
Width: 1175
GlyphClass: 1
Flags: W
LayerCount: 2
Fore
SplineSet
796 0 m 1,0,-1
 505 0 l 1,1,-1
 505 1202 l 1,2,-1
 204 1202 l 1,3,-1
 204 1425 l 1,4,-1
 796 1477 l 1,5,-1
 796 0 l 1,0,-1
EndSplineSet
Validated: 1
EndChar

StartChar: two
Encoding: 50 50 21
Width: 1175
GlyphClass: 1
Flags: W
LayerCount: 2
Fore
SplineSet
1094 0 m 1,0,-1
 117 0 l 1,1,-1
 117 191 l 1,2,-1
 568 701 l 2,3,4
 669 820 669 820 711.5 902.5 c 128,-1,5
 754 985 754 985 754 1054 c 0,6,7
 754 1144 754 1144 709 1198 c 128,-1,8
 664 1252 664 1252 574 1252 c 0,9,10
 479 1252 479 1252 427 1183 c 128,-1,11
 375 1114 375 1114 375 1008 c 1,12,-1
 91 1008 l 1,13,-1
 89 1014 l 1,14,15
 84 1208 84 1208 217 1342.5 c 128,-1,16
 350 1477 350 1477 574 1477 c 256,17,18
 798 1477 798 1477 922 1362.5 c 128,-1,19
 1046 1248 1046 1248 1046 1055 c 0,20,21
 1046 924 1046 924 976.5 816 c 128,-1,22
 907 708 907 708 737 517 c 1,23,-1
 497 229 l 1,24,-1
 499 224 l 1,25,-1
 1094 224 l 1,26,-1
 1094 0 l 1,0,-1
EndSplineSet
Validated: 33
EndChar

StartChar: three
Encoding: 51 51 22
Width: 1175
GlyphClass: 1
Flags: W
LayerCount: 2
Fore
SplineSet
579 856 m 2,0,1
 683 856 683 856 733.5 910 c 128,-1,2
 784 964 784 964 784 1062 c 0,3,4
 784 1144 784 1144 731 1198 c 128,-1,5
 678 1252 678 1252 583 1252 c 0,6,7
 503 1252 503 1252 448.5 1203 c 128,-1,8
 394 1154 394 1154 394 1078 c 1,9,-1
 112 1078 l 1,10,-1
 110 1084 l 1,11,12
 104 1255 104 1255 242 1366 c 128,-1,13
 380 1477 380 1477 583 1477 c 0,14,15
 809 1477 809 1477 942 1370.5 c 128,-1,16
 1075 1264 1075 1264 1075 1065 c 0,17,18
 1075 965 1075 965 1017.5 881.5 c 128,-1,19
 960 798 960 798 860 750 c 1,20,21
 974 707 974 707 1036 619.5 c 128,-1,22
 1098 532 1098 532 1098 408 c 0,23,24
 1098 208 1098 208 953.5 93.5 c 128,-1,25
 809 -21 809 -21 583 -21 c 0,26,27
 384 -21 384 -21 235 87 c 128,-1,28
 86 195 86 195 91 390 c 1,29,-1
 93 396 l 1,30,-1
 377 396 l 1,31,32
 377 314 377 314 434.5 258.5 c 128,-1,33
 492 203 492 203 583 203 c 0,34,35
 683 203 683 203 745 262 c 128,-1,36
 807 321 807 321 807 411 c 0,37,38
 807 526 807 526 749 581.5 c 128,-1,39
 691 637 691 637 579 637 c 2,40,-1
 418 637 l 1,41,-1
 418 856 l 1,42,-1
 579 856 l 2,0,1
EndSplineSet
Validated: 33
EndChar

StartChar: four
Encoding: 52 52 23
Width: 1175
GlyphClass: 1
Flags: W
LayerCount: 2
Fore
SplineSet
955 542 m 1,0,-1
 1119 542 l 1,1,-1
 1119 316 l 1,2,-1
 955 316 l 1,3,-1
 955 0 l 1,4,-1
 663 0 l 1,5,-1
 663 316 l 1,6,-1
 70 316 l 1,7,-1
 56 491 l 1,8,-1
 660 1456 l 1,9,-1
 955 1456 l 1,10,-1
 955 542 l 1,0,-1
321 542 m 1,11,-1
 663 542 l 1,12,-1
 663 1071 l 1,13,-1
 657 1072 l 1,14,-1
 627 1007 l 1,15,-1
 321 542 l 1,11,-1
EndSplineSet
Validated: 1
EndChar

StartChar: five
Encoding: 53 53 24
Width: 1175
GlyphClass: 1
Flags: W
LayerCount: 2
Fore
SplineSet
139 642 m 1,0,-1
 223 1456 l 1,1,-1
 1035 1456 l 1,2,-1
 1035 1222 l 1,3,-1
 462 1222 l 1,4,-1
 422 882 l 1,5,6
 463 912 463 912 525 931.5 c 128,-1,7
 587 951 587 951 660 953 c 0,8,9
 863 956 863 956 974.5 827.5 c 128,-1,10
 1086 699 1086 699 1086 467 c 0,11,12
 1086 253 1086 253 965 116 c 128,-1,13
 844 -21 844 -21 595 -21 c 0,14,15
 394 -21 394 -21 251 85.5 c 128,-1,16
 108 192 108 192 113 378 c 1,17,-1
 115 383 l 1,18,-1
 396 396 l 1,19,20
 396 305 396 305 451 254 c 128,-1,21
 506 203 506 203 595 203 c 0,22,23
 699 203 699 203 746.5 271 c 128,-1,24
 794 339 794 339 794 465 c 256,25,26
 794 591 794 591 742 665.5 c 128,-1,27
 690 740 690 740 588 740 c 0,28,29
 504 740 504 740 459.5 709 c 128,-1,30
 415 678 415 678 396 625 c 1,31,-1
 139 642 l 1,0,-1
EndSplineSet
Validated: 33
EndChar

StartChar: six
Encoding: 54 54 25
Width: 1175
GlyphClass: 1
Flags: W
LayerCount: 2
Fore
SplineSet
669 1477 m 0,0,1
 754 1477 754 1477 826.5 1461.5 c 128,-1,2
 899 1446 899 1446 970 1416 c 1,3,-1
 918 1202 l 1,4,5
 850 1225 850 1225 796 1236.5 c 128,-1,6
 742 1248 742 1248 671 1248 c 0,7,8
 543 1248 543 1248 464.5 1150 c 128,-1,9
 386 1052 386 1052 386 877 c 2,10,-1
 386 830 l 1,11,12
 444 887 444 887 524.5 918.5 c 128,-1,13
 605 950 605 950 704 950 c 0,14,15
 891 950 891 950 996 817.5 c 128,-1,16
 1101 685 1101 685 1101 472 c 0,17,18
 1101 253 1101 253 965 116 c 128,-1,19
 829 -21 829 -21 610 -21 c 0,20,21
 382 -21 382 -21 238.5 135 c 128,-1,22
 95 291 95 291 95 562 c 2,23,-1
 95 867 l 2,24,25
 95 1144 95 1144 257.5 1310.5 c 128,-1,26
 420 1477 420 1477 669 1477 c 0,0,1
607 729 m 0,27,28
 528 729 528 729 472.5 703.5 c 128,-1,29
 417 678 417 678 386 633 c 1,30,-1
 386 555 l 2,31,32
 386 387 386 387 447.5 295 c 128,-1,33
 509 203 509 203 610 203 c 0,34,35
 701 203 701 203 755 279.5 c 128,-1,36
 809 356 809 356 809 472 c 0,37,38
 809 592 809 592 754.5 660.5 c 128,-1,39
 700 729 700 729 607 729 c 0,27,28
EndSplineSet
Validated: 1
EndChar

StartChar: seven
Encoding: 55 55 26
Width: 1175
GlyphClass: 1
Flags: W
LayerCount: 2
Fore
SplineSet
1095 1231 m 1,0,1
 848 942 848 942 759 710.5 c 128,-1,2
 670 479 670 479 670 180 c 2,3,-1
 670 0 l 1,4,-1
 378 0 l 1,5,-1
 378 180 l 2,6,7
 378 484 378 484 489.5 734.5 c 128,-1,8
 601 985 601 985 814 1231 c 1,9,-1
 71 1231 l 1,10,-1
 71 1456 l 1,11,-1
 1095 1456 l 1,12,-1
 1095 1231 l 1,0,1
EndSplineSet
Validated: 1
EndChar

StartChar: eight
Encoding: 56 56 27
Width: 1175
GlyphClass: 1
Flags: W
LayerCount: 2
Fore
SplineSet
1056 1078 m 0,0,1
 1056 970 1056 970 1000 886.5 c 128,-1,2
 944 803 944 803 846 756 c 1,3,4
 965 707 965 707 1035 615.5 c 128,-1,5
 1105 524 1105 524 1105 406 c 0,6,7
 1105 204 1105 204 964.5 91.5 c 128,-1,8
 824 -21 824 -21 605 -21 c 0,9,10
 376 -21 376 -21 229 91.5 c 128,-1,11
 82 204 82 204 82 406 c 0,12,13
 82 524 82 524 154.5 615.5 c 128,-1,14
 227 707 227 707 351 756 c 1,15,16
 248 803 248 803 189.5 886.5 c 128,-1,17
 131 970 131 970 131 1078 c 0,18,19
 131 1270 131 1270 262 1373.5 c 128,-1,20
 393 1477 393 1477 603 1477 c 0,21,22
 804 1477 804 1477 930 1373.5 c 128,-1,23
 1056 1270 1056 1270 1056 1078 c 0,0,1
813 420 m 0,24,25
 813 517 813 517 752.5 579.5 c 128,-1,26
 692 642 692 642 603 642 c 0,27,28
 505 642 505 642 440 579.5 c 128,-1,29
 375 517 375 517 375 420 c 0,30,31
 375 321 375 321 439.5 262 c 128,-1,32
 504 203 504 203 605 203 c 0,33,34
 695 203 695 203 754 262 c 128,-1,35
 813 321 813 321 813 420 c 0,24,25
765 1065 m 0,36,37
 765 1151 765 1151 720 1201.5 c 128,-1,38
 675 1252 675 1252 603 1252 c 0,39,40
 521 1252 521 1252 472 1202.5 c 128,-1,41
 423 1153 423 1153 423 1065 c 0,42,43
 423 976 423 976 473 921.5 c 128,-1,44
 523 867 523 867 605 867 c 0,45,46
 677 867 677 867 721 921 c 128,-1,47
 765 975 765 975 765 1065 c 0,36,37
EndSplineSet
Validated: 1
EndChar

StartChar: nine
Encoding: 57 57 28
Width: 1175
GlyphClass: 1
Flags: W
LayerCount: 2
Fore
SplineSet
532 203 m 0,0,1
 640 203 640 203 709 284.5 c 128,-1,2
 778 366 778 366 778 512 c 2,3,-1
 778 606 l 1,4,5
 729 543 729 543 662 511 c 128,-1,6
 595 479 595 479 518 479 c 0,7,8
 315 479 315 479 199.5 611 c 128,-1,9
 84 743 84 743 84 970 c 0,10,11
 84 1189 84 1189 221 1333 c 128,-1,12
 358 1477 358 1477 571 1477 c 0,13,14
 791 1477 791 1477 930 1329 c 128,-1,15
 1069 1181 1069 1181 1069 919 c 2,16,-1
 1069 527 l 2,17,18
 1069 275 1069 275 917.5 127 c 128,-1,19
 766 -21 766 -21 532 -21 c 0,20,21
 456 -21 456 -21 375.5 -4.5 c 128,-1,22
 295 12 295 12 224 42 c 1,23,-1
 273 253 l 1,24,25
 336 227 336 227 396 215 c 128,-1,26
 456 203 456 203 532 203 c 0,0,1
567 693 m 0,27,28
 638 693 638 693 692 722 c 128,-1,29
 746 751 746 751 778 800 c 1,30,-1
 778 970 l 2,31,32
 778 1107 778 1107 722 1179.5 c 128,-1,33
 666 1252 666 1252 572 1252 c 0,34,35
 484 1252 484 1252 430 1170.5 c 128,-1,36
 376 1089 376 1089 376 970 c 0,37,38
 376 845 376 845 425 769 c 128,-1,39
 474 693 474 693 567 693 c 0,27,28
EndSplineSet
Validated: 1
EndChar

StartChar: less
Encoding: 60 60 31
Width: 1043
GlyphClass: 1
Flags: W
LayerCount: 2
Fore
SplineSet
339 550 m 1,0,-1
 339 544 l 1,1,-1
 916 341 l 1,2,-1
 916 69 l 1,3,-1
 54 436 l 1,4,-1
 54 663 l 1,5,-1
 916 1029 l 1,6,-1
 916 757 l 1,7,-1
 339 550 l 1,0,-1
EndSplineSet
Validated: 1
EndChar

StartChar: equal
Encoding: 61 61 32
Width: 1181
GlyphClass: 1
Flags: W
LayerCount: 2
Fore
SplineSet
1032 763 m 1,0,-1
 136 763 l 1,1,-1
 136 992 l 1,2,-1
 1032 992 l 1,3,-1
 1032 763 l 1,0,-1
1032 332 m 1,4,-1
 136 332 l 1,5,-1
 136 561 l 1,6,-1
 1032 561 l 1,7,-1
 1032 332 l 1,4,-1
EndSplineSet
Validated: 1
EndChar

StartChar: greater
Encoding: 62 62 33
Width: 1058
GlyphClass: 1
Flags: W
LayerCount: 2
Fore
SplineSet
705 539 m 1,0,-1
 705 545 l 1,1,-1
 119 751 l 1,2,-1
 119 1020 l 1,3,-1
 991 654 l 1,4,-1
 991 427 l 1,5,-1
 119 60 l 1,6,-1
 119 330 l 1,7,-1
 705 539 l 1,0,-1
EndSplineSet
Validated: 1
EndChar

StartChar: question
Encoding: 63 63 34
Width: 1021
GlyphClass: 1
Flags: W
LayerCount: 2
Fore
SplineSet
324 414 m 1,0,1
 325 554 325 554 365.5 619 c 128,-1,2
 406 684 406 684 527 777 c 0,3,4
 598 835 598 835 640.5 902 c 128,-1,5
 683 969 683 969 683 1052 c 0,6,7
 683 1144 683 1144 634.5 1196 c 128,-1,8
 586 1248 586 1248 496 1248 c 0,9,10
 422 1248 422 1248 370.5 1204 c 128,-1,11
 319 1160 319 1160 318 1075 c 1,12,-1
 34 1075 l 1,13,-1
 32 1081 l 1,14,15
 29 1273 29 1273 158.5 1375 c 128,-1,16
 288 1477 288 1477 496 1477 c 0,17,18
 720 1477 720 1477 847.5 1363.5 c 128,-1,19
 975 1250 975 1250 975 1055 c 0,20,21
 975 928 975 928 900.5 820 c 128,-1,22
 826 712 826 712 714 639 c 1,23,24
 653 592 653 592 634 544.5 c 128,-1,25
 615 497 615 497 615 414 c 1,26,-1
 324 414 l 1,0,1
617 0 m 1,27,-1
 323 0 l 1,28,-1
 323 250 l 1,29,-1
 617 250 l 1,30,-1
 617 0 l 1,27,-1
EndSplineSet
Validated: 33
EndChar

StartChar: at
Encoding: 64 64 35
Width: 1817
GlyphClass: 1
Flags: W
LayerCount: 2
Fore
SplineSet
1730 513 m 0,0,1
 1721 295 1721 295 1602 137 c 128,-1,2
 1483 -21 1483 -21 1246 -21 c 0,3,4
 1168 -21 1168 -21 1111 23 c 128,-1,5
 1054 67 1054 67 1030 146 c 1,6,7
 986 64 986 64 920.5 23 c 128,-1,8
 855 -18 855 -18 767 -18 c 0,9,10
 626 -18 626 -18 550.5 101 c 128,-1,11
 475 220 475 220 495 416 c 0,12,13
 520 670 520 670 638.5 823 c 128,-1,14
 757 976 757 976 926 976 c 0,15,16
 1042 976 1042 976 1112.5 950 c 128,-1,17
 1183 924 1183 924 1267 870 c 1,18,-1
 1264 866 l 1,19,-1
 1269 866 l 1,20,-1
 1218 293 l 2,21,22
 1211 198 1211 198 1232 163 c 128,-1,23
 1253 128 1253 128 1289 128 c 0,24,25
 1404 128 1404 128 1473.5 237 c 128,-1,26
 1543 346 1543 346 1551 513 c 0,27,28
 1567 866 1567 866 1414.5 1064 c 128,-1,29
 1262 1262 1262 1262 943 1262 c 0,30,31
 640 1262 640 1262 459 1049 c 128,-1,32
 278 836 278 836 263 478 c 0,33,34
 246 123 246 123 409 -82 c 128,-1,35
 572 -287 572 -287 878 -287 c 0,36,37
 963 -287 963 -287 1053.5 -267 c 128,-1,38
 1144 -247 1144 -247 1209 -217 c 1,39,-1
 1247 -364 l 1,40,41
 1180 -406 1180 -406 1076.5 -429.5 c 128,-1,42
 973 -453 973 -453 874 -453 c 0,43,44
 478 -453 478 -453 263.5 -204 c 128,-1,45
 49 45 49 45 66 478 c 0,46,47
 84 905 84 905 321.5 1161.5 c 128,-1,48
 559 1418 559 1418 947 1418 c 0,49,50
 1334 1418 1334 1418 1540 1175.5 c 128,-1,51
 1746 933 1746 933 1730 513 c 0,0,1
720 416 m 0,52,53
 710 289 710 289 738.5 223.5 c 128,-1,54
 767 158 767 158 831 158 c 0,55,56
 887 158 887 158 932.5 184 c 128,-1,57
 978 210 978 210 1014 280 c 0,58,59
 1014 284 1014 284 1014 286.5 c 128,-1,60
 1014 289 1014 289 1015 293 c 2,61,-1
 1059 789 l 1,62,63
 1036 796 1036 796 1013 800 c 128,-1,64
 990 804 990 804 965 804 c 0,65,66
 854 804 854 804 796 707.5 c 128,-1,67
 738 611 738 611 720 416 c 0,52,53
EndSplineSet
Validated: 33
EndChar

StartChar: A
Encoding: 65 65 36
Width: 1303
GlyphClass: 1
Flags: W
LayerCount: 2
Fore
SplineSet
893 314 m 1,0,-1
 421 314 l 1,1,-1
 323 0 l 1,2,-1
 18 0 l 1,3,-1
 509 1456 l 1,4,-1
 808 1456 l 1,5,-1
 1297 0 l 1,6,-1
 992 0 l 1,7,-1
 893 314 l 1,0,-1
493 543 m 1,8,-1
 822 543 l 1,9,-1
 661 1056 l 1,10,-1
 655 1056 l 1,11,-1
 493 543 l 1,8,-1
EndSplineSet
Validated: 1
Substitution2: "'smcp' Lowercase to Small Capitals lookup 0 subtable" A.smcp
EndChar

StartChar: B
Encoding: 66 66 37
Width: 1305
GlyphClass: 1
Flags: W
LayerCount: 2
Fore
SplineSet
134 0 m 1,0,-1
 134 1456 l 1,1,-1
 611 1456 l 2,2,3
 868 1456 868 1456 1012 1355.5 c 128,-1,4
 1156 1255 1156 1255 1156 1057 c 0,5,6
 1156 957 1156 957 1104 878 c 128,-1,7
 1052 799 1052 799 952 759 c 1,8,9
 1088 734 1088 734 1157 641 c 128,-1,10
 1226 548 1226 548 1226 424 c 0,11,12
 1226 215 1226 215 1088 107.5 c 128,-1,13
 950 0 950 0 697 0 c 2,14,-1
 134 0 l 1,0,-1
426 644 m 1,15,-1
 426 224 l 1,16,-1
 697 224 l 2,17,18
 813 224 813 224 874 274.5 c 128,-1,19
 935 325 935 325 935 424 c 0,20,21
 935 530 935 530 875 587 c 128,-1,22
 815 644 815 644 694 644 c 2,23,-1
 426 644 l 1,15,-1
426 846 m 1,24,-1
 621 846 l 2,25,26
 738 846 738 846 801 894 c 128,-1,27
 864 942 864 942 864 1034 c 0,28,29
 864 1135 864 1135 800.5 1183 c 128,-1,30
 737 1231 737 1231 611 1231 c 2,31,-1
 426 1231 l 1,32,-1
 426 846 l 1,24,-1
EndSplineSet
Validated: 1
Substitution2: "'smcp' Lowercase to Small Capitals lookup 0 subtable" B.smcp
EndChar

StartChar: C
Encoding: 67 67 38
Width: 1303
GlyphClass: 1
Flags: W
LayerCount: 2
Fore
SplineSet
1226 482 m 1,0,-1
 1228 476 l 1,1,2
 1232 243 1232 243 1086 111 c 128,-1,3
 940 -21 940 -21 683 -21 c 0,4,5
 421 -21 421 -21 260 147.5 c 128,-1,6
 99 316 99 316 99 583 c 2,7,-1
 99 872 l 2,8,9
 99 1138 99 1138 256 1307.5 c 128,-1,10
 413 1477 413 1477 668 1477 c 0,11,12
 934 1477 934 1477 1084 1347 c 128,-1,13
 1234 1217 1234 1217 1230 981 c 1,14,-1
 1228 975 l 1,15,-1
 944 975 l 1,16,17
 944 1115 944 1115 876.5 1183.5 c 128,-1,18
 809 1252 809 1252 668 1252 c 0,19,20
 537 1252 537 1252 463.5 1146.5 c 128,-1,21
 390 1041 390 1041 390 874 c 2,22,-1
 390 583 l 2,23,24
 390 415 390 415 467.5 309 c 128,-1,25
 545 203 545 203 683 203 c 0,26,27
 814 203 814 203 878.5 271.5 c 128,-1,28
 943 340 943 340 943 482 c 1,29,-1
 1226 482 l 1,0,-1
EndSplineSet
Validated: 33
Substitution2: "'smcp' Lowercase to Small Capitals lookup 0 subtable" C.smcp
EndChar

StartChar: D
Encoding: 68 68 39
Width: 1355
GlyphClass: 1
Flags: W
LayerCount: 2
Fore
SplineSet
134 0 m 1,0,-1
 134 1456 l 1,1,-1
 642 1456 l 2,2,3
 909 1456 909 1456 1082 1285.5 c 128,-1,4
 1255 1115 1255 1115 1255 848 c 2,5,-1
 1255 607 l 2,6,7
 1255 339 1255 339 1082 169.5 c 128,-1,8
 909 0 909 0 642 0 c 2,9,-1
 134 0 l 1,0,-1
426 1231 m 1,10,-1
 426 224 l 1,11,-1
 642 224 l 2,12,13
 786 224 786 224 874 331.5 c 128,-1,14
 962 439 962 439 962 607 c 2,15,-1
 962 850 l 2,16,17
 962 1017 962 1017 874 1124 c 128,-1,18
 786 1231 786 1231 642 1231 c 2,19,-1
 426 1231 l 1,10,-1
EndSplineSet
Validated: 1
Substitution2: "'smcp' Lowercase to Small Capitals lookup 0 subtable" D.smcp
EndChar

StartChar: E
Encoding: 69 69 40
Width: 1139
GlyphClass: 1
Flags: W
LayerCount: 2
Fore
SplineSet
966 640 m 1,0,-1
 426 640 l 1,1,-1
 426 224 l 1,2,-1
 1068 224 l 1,3,-1
 1068 0 l 1,4,-1
 134 0 l 1,5,-1
 134 1456 l 1,6,-1
 1066 1456 l 1,7,-1
 1066 1231 l 1,8,-1
 426 1231 l 1,9,-1
 426 865 l 1,10,-1
 966 865 l 1,11,-1
 966 640 l 1,0,-1
EndSplineSet
Validated: 1
Substitution2: "'smcp' Lowercase to Small Capitals lookup 0 subtable" E.smcp
EndChar

StartChar: F
Encoding: 70 70 41
Width: 1139
GlyphClass: 1
Flags: W
LayerCount: 2
Fore
SplineSet
985 605 m 1,0,-1
 426 605 l 1,1,-1
 426 0 l 1,2,-1
 134 0 l 1,3,-1
 134 1456 l 1,4,-1
 1087 1456 l 1,5,-1
 1087 1231 l 1,6,-1
 426 1231 l 1,7,-1
 426 830 l 1,8,-1
 985 830 l 1,9,-1
 985 605 l 1,0,-1
EndSplineSet
Validated: 1
Substitution2: "'smcp' Lowercase to Small Capitals lookup 0 subtable" F.smcp
EndChar

StartChar: G
Encoding: 71 71 42
Width: 1364
GlyphClass: 1
Flags: W
LayerCount: 2
Fore
SplineSet
1250 199 m 1,0,1
 1182 110 1182 110 1047 44.5 c 128,-1,2
 912 -21 912 -21 699 -21 c 0,3,4
 435 -21 435 -21 267 145 c 128,-1,5
 99 311 99 311 99 576 c 2,6,-1
 99 880 l 2,7,8
 99 1144 99 1144 262 1310.5 c 128,-1,9
 425 1477 425 1477 681 1477 c 0,10,11
 948 1477 948 1477 1090 1350.5 c 128,-1,12
 1232 1224 1232 1224 1227 1013 c 1,13,-1
 1225 1007 l 1,14,-1
 950 1007 l 1,15,16
 950 1123 950 1123 883 1187.5 c 128,-1,17
 816 1252 816 1252 688 1252 c 0,18,19
 554 1252 554 1252 472 1148.5 c 128,-1,20
 390 1045 390 1045 390 882 c 2,21,-1
 390 576 l 2,22,23
 390 411 390 411 474 307 c 128,-1,24
 558 203 558 203 699 203 c 0,25,26
 803 203 803 203 863.5 224 c 128,-1,27
 924 245 924 245 957 277 c 1,28,-1
 957 559 l 1,29,-1
 677 559 l 1,30,-1
 677 761 l 1,31,-1
 1250 761 l 1,32,-1
 1250 199 l 1,0,1
EndSplineSet
Validated: 33
Substitution2: "'smcp' Lowercase to Small Capitals lookup 0 subtable" G.smcp
EndChar

StartChar: H
Encoding: 72 72 43
Width: 1445
GlyphClass: 1
Flags: W
LayerCount: 2
Fore
SplineSet
1311 0 m 1,0,-1
 1019 0 l 1,1,-1
 1019 605 l 1,2,-1
 426 605 l 1,3,-1
 426 0 l 1,4,-1
 134 0 l 1,5,-1
 134 1456 l 1,6,-1
 426 1456 l 1,7,-1
 426 830 l 1,8,-1
 1019 830 l 1,9,-1
 1019 1456 l 1,10,-1
 1311 1456 l 1,11,-1
 1311 0 l 1,0,-1
EndSplineSet
Validated: 1
Substitution2: "'smcp' Lowercase to Small Capitals lookup 0 subtable" H.smcp
EndChar

StartChar: I
Encoding: 73 73 44
Width: 601
GlyphClass: 1
Flags: W
LayerCount: 2
Fore
SplineSet
446 0 m 1,0,-1
 154 0 l 1,1,-1
 154 1456 l 1,2,-1
 446 1456 l 1,3,-1
 446 0 l 1,0,-1
EndSplineSet
Validated: 1
Substitution2: "'smcp' Lowercase to Small Capitals lookup 0 subtable" I.smcp
EndChar

StartChar: J
Encoding: 74 74 45
Width: 1137
GlyphClass: 1
Flags: W
LayerCount: 2
Fore
SplineSet
714 1456 m 1,0,-1
 1005 1456 l 1,1,-1
 1005 451 l 2,2,3
 1005 235 1005 235 872.5 107 c 128,-1,4
 740 -21 740 -21 532 -21 c 0,5,6
 301 -21 301 -21 166 93 c 128,-1,7
 31 207 31 207 36 424 c 1,8,-1
 38 430 l 1,9,-1
 322 430 l 1,10,11
 322 314 322 314 379 258.5 c 128,-1,12
 436 203 436 203 532 203 c 0,13,14
 612 203 612 203 663 269.5 c 128,-1,15
 714 336 714 336 714 451 c 2,16,-1
 714 1456 l 1,0,-1
EndSplineSet
Validated: 33
Substitution2: "'smcp' Lowercase to Small Capitals lookup 0 subtable" J.smcp
EndChar

StartChar: K
Encoding: 75 75 46
Width: 1305
GlyphClass: 1
Flags: W
LayerCount: 2
Fore
SplineSet
533 608 m 1,0,-1
 426 608 l 1,1,-1
 426 0 l 1,2,-1
 134 0 l 1,3,-1
 134 1456 l 1,4,-1
 426 1456 l 1,5,-1
 426 861 l 1,6,-1
 508 861 l 1,7,-1
 907 1456 l 1,8,-1
 1268 1456 l 1,9,-1
 764 779 l 1,10,-1
 1307 0 l 1,11,-1
 935 0 l 1,12,-1
 533 608 l 1,0,-1
EndSplineSet
Validated: 1
Substitution2: "'smcp' Lowercase to Small Capitals lookup 0 subtable" K.smcp
EndChar

StartChar: L
Encoding: 76 76 47
Width: 1138
GlyphClass: 1
Flags: W
LayerCount: 2
Fore
SplineSet
426 224 m 1,0,-1
 1078 224 l 1,1,-1
 1078 0 l 1,2,-1
 134 0 l 1,3,-1
 134 1456 l 1,4,-1
 426 1456 l 1,5,-1
 426 224 l 1,0,-1
EndSplineSet
Validated: 1
Substitution2: "'smcp' Lowercase to Small Capitals lookup 0 subtable" L.smcp
EndChar

StartChar: M
Encoding: 77 77 48
Width: 1782
GlyphClass: 1
Flags: W
LayerCount: 2
Fore
SplineSet
887 383 m 1,0,-1
 893 383 l 1,1,-1
 1267 1456 l 1,2,-1
 1648 1456 l 1,3,-1
 1648 0 l 1,4,-1
 1356 0 l 1,5,-1
 1356 994 l 1,6,-1
 1350 995 l 1,7,-1
 990 0 l 1,8,-1
 792 0 l 1,9,-1
 432 997 l 1,10,-1
 426 996 l 1,11,-1
 426 0 l 1,12,-1
 134 0 l 1,13,-1
 134 1456 l 1,14,-1
 517 1456 l 1,15,-1
 887 383 l 1,0,-1
EndSplineSet
Validated: 1
Substitution2: "'smcp' Lowercase to Small Capitals lookup 0 subtable" M.smcp
EndChar

StartChar: N
Encoding: 78 78 49
Width: 1445
GlyphClass: 1
Flags: W
LayerCount: 2
Fore
SplineSet
1311 0 m 1,0,-1
 1019 0 l 1,1,-1
 432 982 l 1,2,-1
 426 981 l 1,3,-1
 426 0 l 1,4,-1
 134 0 l 1,5,-1
 134 1456 l 1,6,-1
 426 1456 l 1,7,-1
 1013 475 l 1,8,-1
 1019 476 l 1,9,-1
 1019 1456 l 1,10,-1
 1311 1456 l 1,11,-1
 1311 0 l 1,0,-1
EndSplineSet
Validated: 1
Substitution2: "'smcp' Lowercase to Small Capitals lookup 0 subtable" N.smcp
EndChar

StartChar: O
Encoding: 79 79 50
Width: 1409
GlyphClass: 1
Flags: W
LayerCount: 2
Fore
SplineSet
1312 597 m 2,0,1
 1312 328 1312 328 1143 153.5 c 128,-1,2
 974 -21 974 -21 703 -21 c 0,3,4
 433 -21 433 -21 265 154 c 128,-1,5
 97 329 97 329 97 597 c 2,6,-1
 97 859 l 2,7,8
 97 1126 97 1126 264.5 1301.5 c 128,-1,9
 432 1477 432 1477 701 1477 c 0,10,11
 972 1477 972 1477 1142 1301.5 c 128,-1,12
 1312 1126 1312 1126 1312 859 c 2,13,-1
 1312 597 l 2,0,1
1021 861 m 2,14,15
 1021 1031 1021 1031 936 1140 c 128,-1,16
 851 1249 851 1249 701 1249 c 0,17,18
 553 1249 553 1249 470.5 1140 c 128,-1,19
 388 1031 388 1031 388 861 c 2,20,-1
 388 597 l 2,21,22
 388 424 388 424 471 315 c 128,-1,23
 554 206 554 206 703 206 c 0,24,25
 853 206 853 206 937 315 c 128,-1,26
 1021 424 1021 424 1021 597 c 2,27,-1
 1021 861 l 2,14,15
EndSplineSet
Validated: 1
Substitution2: "'smcp' Lowercase to Small Capitals lookup 0 subtable" O.smcp
EndChar

StartChar: P
Encoding: 80 80 51
Width: 1305
GlyphClass: 1
Flags: W
LayerCount: 2
Fore
SplineSet
426 528 m 1,0,-1
 426 0 l 1,1,-1
 134 0 l 1,2,-1
 134 1456 l 1,3,-1
 691 1456 l 2,4,5
 942 1456 942 1456 1086 1328 c 128,-1,6
 1230 1200 1230 1200 1230 991 c 256,7,8
 1230 782 1230 782 1086 655 c 128,-1,9
 942 528 942 528 691 528 c 2,10,-1
 426 528 l 1,0,-1
426 753 m 1,11,-1
 691 753 l 2,12,13
 813 753 813 753 876 819.5 c 128,-1,14
 939 886 939 886 939 989 c 0,15,16
 939 1094 939 1094 876.5 1162.5 c 128,-1,17
 814 1231 814 1231 691 1231 c 2,18,-1
 426 1231 l 1,19,-1
 426 753 l 1,11,-1
EndSplineSet
Validated: 1
Substitution2: "'smcp' Lowercase to Small Capitals lookup 0 subtable" P.smcp
EndChar

StartChar: Q
Encoding: 81 81 52
Width: 1441
GlyphClass: 1
Flags: W
LayerCount: 2
Fore
SplineSet
1312 597 m 2,0,1
 1312 487 1312 487 1281.5 390 c 128,-1,2
 1251 293 1251 293 1195 215 c 1,3,-1
 1412 -2 l 1,4,-1
 1221 -158 l 1,5,-1
 1008 52 l 1,6,7
 941 16 941 16 864.5 -2.5 c 128,-1,8
 788 -21 788 -21 703 -21 c 0,9,10
 433 -21 433 -21 265 154 c 128,-1,11
 97 329 97 329 97 597 c 2,12,-1
 97 859 l 2,13,14
 97 1126 97 1126 264.5 1301.5 c 128,-1,15
 432 1477 432 1477 701 1477 c 0,16,17
 972 1477 972 1477 1142 1301.5 c 128,-1,18
 1312 1126 1312 1126 1312 859 c 2,19,-1
 1312 597 l 2,0,1
1021 861 m 2,20,21
 1021 1031 1021 1031 936 1140 c 128,-1,22
 851 1249 851 1249 701 1249 c 0,23,24
 553 1249 553 1249 470.5 1140 c 128,-1,25
 388 1031 388 1031 388 861 c 2,26,-1
 388 597 l 2,27,28
 388 424 388 424 471 315 c 128,-1,29
 554 206 554 206 703 206 c 0,30,31
 853 206 853 206 937 315 c 128,-1,32
 1021 424 1021 424 1021 597 c 2,33,-1
 1021 861 l 2,20,21
EndSplineSet
Validated: 1
Substitution2: "'smcp' Lowercase to Small Capitals lookup 0 subtable" Q.smcp
EndChar

StartChar: R
Encoding: 82 82 53
Width: 1305
GlyphClass: 1
Flags: W
LayerCount: 2
Fore
SplineSet
426 582 m 1,0,-1
 426 0 l 1,1,-1
 134 0 l 1,2,-1
 134 1456 l 1,3,-1
 638 1456 l 2,4,5
 887 1456 887 1456 1027.5 1342.5 c 128,-1,6
 1168 1229 1168 1229 1168 1026 c 0,7,8
 1168 914 1168 914 1108.5 832.5 c 128,-1,9
 1049 751 1049 751 935 701 c 1,10,11
 1064 663 1064 663 1120.5 574 c 128,-1,12
 1177 485 1177 485 1177 354 c 2,13,-1
 1177 247 l 2,14,15
 1177 186 1177 186 1193.5 119.5 c 128,-1,16
 1210 53 1210 53 1250 21 c 1,17,-1
 1250 0 l 1,18,-1
 949 0 l 1,19,20
 909 32 909 32 897.5 106 c 128,-1,21
 886 180 886 180 886 249 c 2,22,-1
 886 352 l 2,23,24
 886 461 886 461 826.5 521.5 c 128,-1,25
 767 582 767 582 658 582 c 2,26,-1
 426 582 l 1,0,-1
426 807 m 1,27,-1
 633 807 l 2,28,29
 756 807 756 807 816 859 c 128,-1,30
 876 911 876 911 876 1013 c 0,31,32
 876 1113 876 1113 815.5 1172 c 128,-1,33
 755 1231 755 1231 638 1231 c 2,34,-1
 426 1231 l 1,35,-1
 426 807 l 1,27,-1
EndSplineSet
Validated: 1
Substitution2: "'smcp' Lowercase to Small Capitals lookup 0 subtable" R.smcp
EndChar

StartChar: S
Encoding: 83 83 54
Width: 1266
GlyphClass: 1
Flags: W
LayerCount: 2
Fore
SplineSet
893 380 m 0,0,1
 893 464 893 464 834.5 515 c 128,-1,2
 776 566 776 566 629 611 c 0,3,4
 377 687 377 687 246.5 790 c 128,-1,5
 116 893 116 893 116 1071 c 0,6,7
 116 1250 116 1250 263 1363.5 c 128,-1,8
 410 1477 410 1477 638 1477 c 0,9,10
 880 1477 880 1477 1027.5 1355 c 128,-1,11
 1175 1233 1175 1233 1170 1035 c 1,12,-1
 1168 1029 l 1,13,-1
 885 1029 l 1,14,15
 885 1138 885 1138 819 1196.5 c 128,-1,16
 753 1255 753 1255 634 1255 c 0,17,18
 526 1255 526 1255 467 1203 c 128,-1,19
 408 1151 408 1151 408 1070 c 0,20,21
 408 996 408 996 472 948.5 c 128,-1,22
 536 901 536 901 693 848 c 1,23,24
 933 780 933 780 1059 670.5 c 128,-1,25
 1185 561 1185 561 1185 382 c 0,26,27
 1185 195 1185 195 1039 87 c 128,-1,28
 893 -21 893 -21 653 -21 c 0,29,30
 418 -21 418 -21 249.5 96 c 128,-1,31
 81 213 81 213 86 445 c 1,32,-1
 88 451 l 1,33,-1
 371 451 l 1,34,35
 371 322 371 322 447 261 c 128,-1,36
 523 200 523 200 653 200 c 0,37,38
 770 200 770 200 831.5 249 c 128,-1,39
 893 298 893 298 893 380 c 0,0,1
EndSplineSet
Validated: 33
Substitution2: "'smcp' Lowercase to Small Capitals lookup 0 subtable" S.smcp
EndChar

StartChar: T
Encoding: 84 84 55
Width: 1175
GlyphClass: 1
Flags: W
LayerCount: 2
Fore
SplineSet
1149 1231 m 1,0,-1
 733 1231 l 1,1,-1
 733 0 l 1,2,-1
 441 0 l 1,3,-1
 441 1231 l 1,4,-1
 31 1231 l 1,5,-1
 31 1456 l 1,6,-1
 1149 1456 l 1,7,-1
 1149 1231 l 1,0,-1
EndSplineSet
Validated: 1
Substitution2: "'smcp' Lowercase to Small Capitals lookup 0 subtable" T.smcp
EndChar

StartChar: U
Encoding: 85 85 56
Width: 1407
GlyphClass: 1
Flags: W
LayerCount: 2
Fore
SplineSet
1288 1456 m 1,0,-1
 1288 503 l 2,1,2
 1288 257 1288 257 1125 118 c 128,-1,3
 962 -21 962 -21 702 -21 c 0,4,5
 443 -21 443 -21 281.5 118 c 128,-1,6
 120 257 120 257 120 503 c 2,7,-1
 120 1456 l 1,8,-1
 413 1456 l 1,9,-1
 413 503 l 2,10,11
 413 357 413 357 491 280 c 128,-1,12
 569 203 569 203 702 203 c 0,13,14
 837 203 837 203 916 280 c 128,-1,15
 995 357 995 357 995 503 c 2,16,-1
 995 1456 l 1,17,-1
 1288 1456 l 1,0,-1
EndSplineSet
Validated: 1
Substitution2: "'smcp' Lowercase to Small Capitals lookup 0 subtable" U.smcp
EndChar

StartChar: V
Encoding: 86 86 57
Width: 1303
GlyphClass: 1
Flags: W
LayerCount: 2
Fore
SplineSet
630 395 m 1,0,-1
 648 315 l 1,1,-1
 654 315 l 1,2,-1
 671 392 l 1,3,-1
 988 1456 l 1,4,-1
 1296 1456 l 1,5,-1
 801 0 l 1,6,-1
 501 0 l 1,7,-1
 7 1456 l 1,8,-1
 315 1456 l 1,9,-1
 630 395 l 1,0,-1
EndSplineSet
Validated: 1
Substitution2: "'smcp' Lowercase to Small Capitals lookup 0 subtable" V.smcp
EndChar

StartChar: W
Encoding: 87 87 58
Width: 1804
GlyphClass: 1
Flags: W
LayerCount: 2
Fore
SplineSet
1283 468 m 1,0,-1
 1289 468 l 1,1,-1
 1482 1456 l 1,2,-1
 1783 1456 l 1,3,-1
 1443 0 l 1,4,-1
 1172 0 l 1,5,-1
 904 959 l 1,6,-1
 898 959 l 1,7,-1
 631 0 l 1,8,-1
 360 0 l 1,9,-1
 20 1456 l 1,10,-1
 321 1456 l 1,11,-1
 515 469 l 1,12,-1
 521 469 l 1,13,-1
 783 1456 l 1,14,-1
 1019 1456 l 1,15,-1
 1283 468 l 1,0,-1
EndSplineSet
Validated: 1
Substitution2: "'smcp' Lowercase to Small Capitals lookup 0 subtable" W.smcp
EndChar

StartChar: X
Encoding: 88 88 59
Width: 1303
GlyphClass: 1
Flags: W
LayerCount: 2
Fore
SplineSet
649 940 m 1,0,-1
 922 1456 l 1,1,-1
 1262 1456 l 1,2,-1
 830 734 l 1,3,-1
 1287 0 l 1,4,-1
 934 0 l 1,5,-1
 653 525 l 1,6,-1
 372 0 l 1,7,-1
 31 0 l 1,8,-1
 474 734 l 1,9,-1
 42 1456 l 1,10,-1
 380 1456 l 1,11,-1
 649 940 l 1,0,-1
EndSplineSet
Validated: 1
Substitution2: "'smcp' Lowercase to Small Capitals lookup 0 subtable" X.smcp
EndChar

StartChar: Y
Encoding: 89 89 60
Width: 1303
GlyphClass: 1
Flags: W
LayerCount: 2
Fore
SplineSet
648 785 m 1,0,-1
 654 785 l 1,1,-1
 972 1456 l 1,2,-1
 1292 1456 l 1,3,-1
 793 512 l 1,4,-1
 793 0 l 1,5,-1
 501 0 l 1,6,-1
 501 527 l 1,7,-1
 10 1456 l 1,8,-1
 330 1456 l 1,9,-1
 648 785 l 1,0,-1
EndSplineSet
Validated: 1
Substitution2: "'smcp' Lowercase to Small Capitals lookup 0 subtable" Y.smcp
EndChar

StartChar: Z
Encoding: 90 90 61
Width: 1163
GlyphClass: 1
Flags: W
LayerCount: 2
Fore
SplineSet
421 224 m 1,0,-1
 1089 224 l 1,1,-1
 1089 0 l 1,2,-1
 77 0 l 1,3,-1
 77 152 l 1,4,-1
 725 1231 l 1,5,-1
 78 1231 l 1,6,-1
 78 1456 l 1,7,-1
 1072 1456 l 1,8,-1
 1072 1310 l 1,9,-1
 421 224 l 1,0,-1
EndSplineSet
Validated: 1
Substitution2: "'smcp' Lowercase to Small Capitals lookup 0 subtable" Z.smcp
EndChar

StartChar: bracketleft
Encoding: 91 91 62
Width: 570
GlyphClass: 1
Flags: W
LayerCount: 2
Fore
SplineSet
553 1475 m 1,0,-1
 412 1475 l 1,1,-1
 412 -120 l 1,2,-1
 553 -120 l 1,3,-1
 553 -336 l 1,4,-1
 119 -336 l 1,5,-1
 119 1691 l 1,6,-1
 553 1691 l 1,7,-1
 553 1475 l 1,0,-1
EndSplineSet
Validated: 1
EndChar

StartChar: backslash
Encoding: 92 92 63
Width: 863
GlyphClass: 1
Flags: W
LayerCount: 2
Fore
SplineSet
2 1456 m 1,0,-1
 291 1456 l 1,1,-1
 899 -125 l 1,2,-1
 610 -125 l 1,3,-1
 2 1456 l 1,0,-1
EndSplineSet
Validated: 1
EndChar

StartChar: bracketright
Encoding: 93 93 64
Width: 570
GlyphClass: 1
Flags: W
LayerCount: 2
Fore
SplineSet
13 1691 m 1,0,-1
 447 1691 l 1,1,-1
 447 -336 l 1,2,-1
 13 -336 l 1,3,-1
 13 -120 l 1,4,-1
 155 -120 l 1,5,-1
 155 1475 l 1,6,-1
 13 1475 l 1,7,-1
 13 1691 l 1,0,-1
EndSplineSet
Validated: 1
EndChar

StartChar: asciicircum
Encoding: 94 94 65
Width: 896
GlyphClass: 1
Flags: W
LayerCount: 2
Fore
SplineSet
275 729 m 1,0,-1
 44 729 l 1,1,-1
 343 1456 l 1,2,-1
 555 1456 l 1,3,-1
 854 729 l 1,4,-1
 623 729 l 1,5,-1
 458 1142 l 1,6,-1
 450 1176 l 1,7,-1
 444 1176 l 1,8,-1
 437 1142 l 1,9,-1
 275 729 l 1,0,-1
EndSplineSet
Validated: 1
EndChar

StartChar: underscore
Encoding: 95 95 66
Width: 914
GlyphClass: 1
Flags: W
LayerCount: 2
Fore
SplineSet
911 -219 m 1,0,-1
 1 -219 l 1,1,-1
 1 0 l 1,2,-1
 911 0 l 1,3,-1
 911 -219 l 1,0,-1
EndSplineSet
Validated: 1
EndChar

StartChar: grave
Encoding: 96 96 67
Width: 678
GlyphClass: 1
Flags: W
LayerCount: 2
Fore
SplineSet
577 1252 m 1,0,-1
 326 1252 l 1,1,-1
 54 1512 l 1,2,-1
 56 1518 l 1,3,-1
 381 1518 l 1,4,-1
 577 1252 l 1,0,-1
EndSplineSet
Validated: 1
EndChar

StartChar: a
Encoding: 97 97 68
Width: 1100
GlyphClass: 1
Flags: W
LayerCount: 2
Fore
SplineSet
750 0 m 1,0,1
 734 37 734 37 722.5 78 c 128,-1,2
 711 119 711 119 706 162 c 1,3,4
 661 83 661 83 587 31 c 128,-1,5
 513 -21 513 -21 411 -21 c 0,6,7
 241 -21 241 -21 149 66.5 c 128,-1,8
 57 154 57 154 57 305 c 0,9,10
 57 464 57 464 179.5 551.5 c 128,-1,11
 302 639 302 639 537 639 c 2,12,-1
 701 639 l 1,13,-1
 701 725 l 2,14,15
 701 803 701 803 660 846 c 128,-1,16
 619 889 619 889 538 889 c 0,17,18
 467 889 467 889 428.5 854.5 c 128,-1,19
 390 820 390 820 390 760 c 1,20,-1
 109 760 l 1,21,-1
 107 766 l 1,22,23
 100 903 100 903 226.5 1002.5 c 128,-1,24
 353 1102 353 1102 557 1102 c 0,25,26
 752 1102 752 1102 872.5 1004 c 128,-1,27
 993 906 993 906 993 723 c 2,28,-1
 993 276 l 2,29,30
 993 200 993 200 1004.5 133 c 128,-1,31
 1016 66 1016 66 1041 0 c 1,32,-1
 750 0 l 1,0,1
483 195 m 0,33,34
 559 195 559 195 619 233 c 128,-1,35
 679 271 679 271 701 321 c 1,36,-1
 701 474 l 1,37,-1
 537 474 l 2,38,39
 444 474 444 474 396.5 428 c 128,-1,40
 349 382 349 382 349 315 c 0,41,42
 349 260 349 260 384.5 227.5 c 128,-1,43
 420 195 420 195 483 195 c 0,33,34
EndSplineSet
Validated: 33
Substitution2: "'smcp' Lowercase to Small Capitals lookup 0 subtable" A.smcp
EndChar

StartChar: b
Encoding: 98 98 69
Width: 1156
GlyphClass: 1
Flags: W
LayerCount: 2
Fore
SplineSet
1088 511 m 2,0,1
 1088 269 1088 269 980 124 c 128,-1,2
 872 -21 872 -21 668 -21 c 0,3,4
 573 -21 573 -21 502.5 19 c 128,-1,5
 432 59 432 59 383 136 c 1,6,-1
 359 0 l 1,7,-1
 112 0 l 1,8,-1
 112 1560 l 1,9,-1
 403 1560 l 1,10,-1
 403 967 l 1,11,12
 450 1032 450 1032 515.5 1067 c 128,-1,13
 581 1102 581 1102 666 1102 c 0,14,15
 872 1102 872 1102 980 946.5 c 128,-1,16
 1088 791 1088 791 1088 532 c 2,17,-1
 1088 511 l 2,0,1
797 532 m 2,18,19
 797 690 797 690 750.5 782.5 c 128,-1,20
 704 875 704 875 592 875 c 0,21,22
 524 875 524 875 477 846.5 c 128,-1,23
 430 818 430 818 403 765 c 1,24,-1
 403 307 l 1,25,26
 430 258 430 258 477.5 232 c 128,-1,27
 525 206 525 206 594 206 c 0,28,29
 707 206 707 206 752 285.5 c 128,-1,30
 797 365 797 365 797 511 c 2,31,-1
 797 532 l 2,18,19
EndSplineSet
Validated: 1
Substitution2: "'smcp' Lowercase to Small Capitals lookup 0 subtable" B.smcp
EndChar

StartChar: c
Encoding: 99 99 70
Width: 1056
GlyphClass: 1
Flags: W
LayerCount: 2
Fore
SplineSet
564 203 m 0,0,1
 640 203 640 203 685 248.5 c 128,-1,2
 730 294 730 294 730 370 c 1,3,-1
 996 370 l 1,4,-1
 998 364 l 1,5,6
 1002 200 1002 200 876 89.5 c 128,-1,7
 750 -21 750 -21 564 -21 c 0,8,9
 324 -21 324 -21 193 132.5 c 128,-1,10
 62 286 62 286 62 525 c 2,11,-1
 62 555 l 2,12,13
 62 793 62 793 192.5 947.5 c 128,-1,14
 323 1102 323 1102 562 1102 c 0,15,16
 760 1102 760 1102 881 988 c 128,-1,17
 1002 874 1002 874 998 688 c 1,18,-1
 996 682 l 1,19,-1
 730 682 l 1,20,21
 730 766 730 766 685.5 821.5 c 128,-1,22
 641 877 641 877 562 877 c 0,23,24
 449 877 449 877 401.5 786.5 c 128,-1,25
 354 696 354 696 354 555 c 2,26,-1
 354 525 l 2,27,28
 354 381 354 381 401.5 292 c 128,-1,29
 449 203 449 203 564 203 c 0,0,1
EndSplineSet
Validated: 33
Substitution2: "'smcp' Lowercase to Small Capitals lookup 0 subtable" C.smcp
EndChar

StartChar: d
Encoding: 100 100 71
Width: 1156
GlyphClass: 1
Flags: W
LayerCount: 2
Fore
SplineSet
67 532 m 2,0,1
 67 788 67 788 177.5 945 c 128,-1,2
 288 1102 288 1102 489 1102 c 0,3,4
 570 1102 570 1102 635 1067 c 128,-1,5
 700 1032 700 1032 749 967 c 1,6,-1
 749 1560 l 1,7,-1
 1042 1560 l 1,8,-1
 1042 0 l 1,9,-1
 793 0 l 1,10,-1
 768 133 l 1,11,12
 717 58 717 58 647 18.5 c 128,-1,13
 577 -21 577 -21 487 -21 c 0,14,15
 288 -21 288 -21 177.5 125 c 128,-1,16
 67 271 67 271 67 511 c 2,17,-1
 67 532 l 2,0,1
358 511 m 2,18,19
 358 369 358 369 406 287.5 c 128,-1,20
 454 206 454 206 562 206 c 0,21,22
 625 206 625 206 672 231.5 c 128,-1,23
 719 257 719 257 749 306 c 1,24,-1
 749 767 l 1,25,26
 719 818 719 818 672.5 846.5 c 128,-1,27
 626 875 626 875 564 875 c 0,28,29
 457 875 457 875 407.5 780 c 128,-1,30
 358 685 358 685 358 532 c 2,31,-1
 358 511 l 2,18,19
EndSplineSet
Validated: 1
Substitution2: "'smcp' Lowercase to Small Capitals lookup 0 subtable" D.smcp
EndChar

StartChar: e
Encoding: 101 101 72
Width: 1071
GlyphClass: 1
Flags: W
LayerCount: 2
Fore
SplineSet
581 -21 m 0,0,1
 339 -21 339 -21 203 127.5 c 128,-1,2
 67 276 67 276 67 510 c 2,3,-1
 67 550 l 2,4,5
 67 793 67 793 199 948 c 128,-1,6
 331 1103 331 1103 562 1102 c 0,7,8
 780 1102 780 1102 896.5 968.5 c 128,-1,9
 1013 835 1013 835 1013 609 c 2,10,-1
 1013 458 l 1,11,-1
 368 458 l 1,12,-1
 365 452 l 1,13,14
 372 341 372 341 432.5 272 c 128,-1,15
 493 203 493 203 612 203 c 0,16,17
 710 203 710 203 778.5 223 c 128,-1,18
 847 243 847 243 920 284 c 1,19,-1
 999 104 l 1,20,21
 934 51 934 51 823 15 c 128,-1,22
 712 -21 712 -21 581 -21 c 0,0,1
562 877 m 0,23,24
 474 877 474 877 426.5 816.5 c 128,-1,25
 379 756 379 756 369 656 c 1,26,-1
 371 651 l 1,27,-1
 727 651 l 1,28,-1
 727 673 l 2,29,30
 727 768 727 768 688 822.5 c 128,-1,31
 649 877 649 877 562 877 c 0,23,24
EndSplineSet
Validated: 33
Substitution2: "'smcp' Lowercase to Small Capitals lookup 0 subtable" E.smcp
EndChar

StartChar: f
Encoding: 102 102 73
Width: 714
GlyphClass: 1
Flags: W
LayerCount: 2
Fore
SplineSet
188 0 m 1,0,-1
 188 877 l 1,1,-1
 27 877 l 1,2,-1
 27 1082 l 1,3,-1
 188 1082 l 1,4,-1
 188 1202 l 2,5,6
 188 1384 188 1384 293 1482.5 c 128,-1,7
 398 1581 398 1581 588 1581 c 0,8,9
 625 1581 625 1581 663.5 1575.5 c 128,-1,10
 702 1570 702 1570 748 1560 c 1,11,-1
 723 1343 l 1,12,13
 699 1347 699 1347 676.5 1350 c 128,-1,14
 654 1353 654 1353 624 1353 c 0,15,16
 553 1353 553 1353 516.5 1314 c 128,-1,17
 480 1275 480 1275 480 1202 c 2,18,-1
 480 1082 l 1,19,-1
 688 1082 l 1,20,-1
 688 877 l 1,21,-1
 480 877 l 1,22,-1
 480 0 l 1,23,-1
 188 0 l 1,0,-1
EndSplineSet
Validated: 1
Substitution2: "'smcp' Lowercase to Small Capitals lookup 0 subtable" F.smcp
EndChar

StartChar: g
Encoding: 103 103 74
Width: 1156
GlyphClass: 1
Flags: W
LayerCount: 2
Fore
SplineSet
69 532 m 2,0,1
 69 788 69 788 180 945 c 128,-1,2
 291 1102 291 1102 492 1102 c 0,3,4
 583 1102 583 1102 652 1061 c 128,-1,5
 721 1020 721 1020 770 944 c 1,6,-1
 793 1082 l 1,7,-1
 1044 1082 l 1,8,-1
 1044 5 l 2,9,10
 1044 -206 1044 -206 906 -321.5 c 128,-1,11
 768 -437 768 -437 521 -437 c 0,12,13
 439 -437 439 -437 347 -414.5 c 128,-1,14
 255 -392 255 -392 177 -353 c 1,15,-1
 226 -135 l 1,16,17
 293 -167 293 -167 364.5 -183.5 c 128,-1,18
 436 -200 436 -200 519 -200 c 0,19,20
 639 -200 639 -200 695.5 -150 c 128,-1,21
 752 -100 752 -100 752 6 c 2,22,-1
 752 104 l 1,23,24
 704 43 704 43 639 11 c 128,-1,25
 574 -21 574 -21 490 -21 c 0,26,27
 291 -21 291 -21 180 125 c 128,-1,28
 69 271 69 271 69 511 c 2,29,-1
 69 532 l 2,0,1
361 511 m 2,30,31
 361 369 361 369 408.5 287.5 c 128,-1,32
 456 206 456 206 564 206 c 0,33,34
 631 206 631 206 677.5 230.5 c 128,-1,35
 724 255 724 255 752 302 c 1,36,-1
 752 771 l 1,37,38
 724 821 724 821 677.5 848 c 128,-1,39
 631 875 631 875 566 875 c 0,40,41
 459 875 459 875 410 780 c 128,-1,42
 361 685 361 685 361 532 c 2,43,-1
 361 511 l 2,30,31
EndSplineSet
Validated: 1
Substitution2: "'smcp' Lowercase to Small Capitals lookup 0 subtable" G.smcp
EndChar

StartChar: h
Encoding: 104 104 75
Width: 1156
GlyphClass: 1
Flags: W
LayerCount: 2
Fore
SplineSet
397 945 m 1,0,1
 448 1019 448 1019 522 1060.5 c 128,-1,2
 596 1102 596 1102 686 1102 c 0,3,4
 855 1102 855 1102 951.5 989.5 c 128,-1,5
 1048 877 1048 877 1048 642 c 2,6,-1
 1048 0 l 1,7,-1
 756 0 l 1,8,-1
 756 644 l 2,9,10
 756 770 756 770 715.5 822.5 c 128,-1,11
 675 875 675 875 594 875 c 0,12,13
 527 875 527 875 477.5 853.5 c 128,-1,14
 428 832 428 832 397 792 c 1,15,-1
 397 0 l 1,16,-1
 105 0 l 1,17,-1
 105 1560 l 1,18,-1
 397 1560 l 1,19,-1
 397 945 l 1,0,1
EndSplineSet
Validated: 1
Substitution2: "'smcp' Lowercase to Small Capitals lookup 0 subtable" H.smcp
EndChar

StartChar: i
Encoding: 105 105 76
Width: 547
GlyphClass: 1
Flags: W
LayerCount: 2
Fore
SplineSet
419 0 m 1,0,-1
 127 0 l 1,1,-1
 127 1082 l 1,2,-1
 419 1082 l 1,3,-1
 419 0 l 1,0,-1
419 1341 m 1,4,-1
 127 1341 l 1,5,-1
 127 1560 l 1,6,-1
 419 1560 l 1,7,-1
 419 1341 l 1,4,-1
EndSplineSet
Validated: 1
Substitution2: "'smcp' Lowercase to Small Capitals lookup 0 subtable" I.smcp
EndChar

StartChar: j
Encoding: 106 106 77
Width: 543
GlyphClass: 1
Flags: W
LayerCount: 2
Fore
SplineSet
427 1082 m 1,0,-1
 427 -40 l 2,1,2
 427 -230 427 -230 326 -333.5 c 128,-1,3
 225 -437 225 -437 45 -437 c 0,4,5
 5 -437 5 -437 -28 -433 c 128,-1,6
 -61 -429 -61 -429 -98 -420 c 1,7,-1
 -84 -197 l 1,8,9
 -61 -203 -61 -203 -38 -206 c 128,-1,10
 -15 -209 -15 -209 11 -209 c 0,11,12
 70 -209 70 -209 102 -167.5 c 128,-1,13
 134 -126 134 -126 134 -40 c 2,14,-1
 134 1082 l 1,15,-1
 427 1082 l 1,0,-1
421 1343 m 1,16,-1
 128 1343 l 1,17,-1
 128 1560 l 1,18,-1
 421 1560 l 1,19,-1
 421 1343 l 1,16,-1
EndSplineSet
Validated: 1
Substitution2: "'smcp' Lowercase to Small Capitals lookup 0 subtable" J.smcp
EndChar

StartChar: k
Encoding: 107 107 78
Width: 1097
GlyphClass: 1
Flags: W
LayerCount: 2
Fore
SplineSet
478 453 m 1,0,-1
 404 453 l 1,1,-1
 404 0 l 1,2,-1
 112 0 l 1,3,-1
 112 1560 l 1,4,-1
 404 1560 l 1,5,-1
 404 675 l 1,6,-1
 469 675 l 1,7,-1
 728 1082 l 1,8,-1
 1066 1082 l 1,9,-1
 714 589 l 1,10,-1
 1114 0 l 1,11,-1
 778 0 l 1,12,-1
 478 453 l 1,0,-1
EndSplineSet
Validated: 1
Substitution2: "'smcp' Lowercase to Small Capitals lookup 0 subtable" K.smcp
EndChar

StartChar: l
Encoding: 108 108 79
Width: 547
GlyphClass: 1
Flags: W
LayerCount: 2
Fore
SplineSet
419 0 m 1,0,-1
 127 0 l 1,1,-1
 127 1560 l 1,2,-1
 419 1560 l 1,3,-1
 419 0 l 1,0,-1
EndSplineSet
Validated: 1
Substitution2: "'smcp' Lowercase to Small Capitals lookup 0 subtable" L.smcp
EndChar

StartChar: m
Encoding: 109 109 80
Width: 1772
GlyphClass: 1
Flags: W
LayerCount: 2
Fore
SplineSet
383 1082 m 1,0,-1
 395 939 l 1,1,2
 447 1017 447 1017 525.5 1059.5 c 128,-1,3
 604 1102 604 1102 707 1102 c 0,4,5
 811 1102 811 1102 885 1056 c 128,-1,6
 959 1010 959 1010 997 917 c 1,7,8
 1047 1004 1047 1004 1127 1053 c 128,-1,9
 1207 1102 1207 1102 1315 1102 c 0,10,11
 1475 1102 1475 1102 1567.5 988.5 c 128,-1,12
 1660 875 1660 875 1660 642 c 2,13,-1
 1660 0 l 1,14,-1
 1368 0 l 1,15,-1
 1368 643 l 2,16,17
 1368 773 1368 773 1328 824 c 128,-1,18
 1288 875 1288 875 1209 875 c 0,19,20
 1147 875 1147 875 1101.5 847.5 c 128,-1,21
 1056 820 1056 820 1029 771 c 1,22,23
 1029 752 1029 752 1030 738.5 c 128,-1,24
 1031 725 1031 725 1031 711 c 2,25,-1
 1031 0 l 1,26,-1
 740 0 l 1,27,-1
 740 643 l 2,28,29
 740 770 740 770 700 822.5 c 128,-1,30
 660 875 660 875 580 875 c 0,31,32
 521 875 521 875 476.5 852.5 c 128,-1,33
 432 830 432 830 403 789 c 1,34,-1
 403 0 l 1,35,-1
 112 0 l 1,36,-1
 112 1082 l 1,37,-1
 383 1082 l 1,0,-1
EndSplineSet
Validated: 1
Substitution2: "'smcp' Lowercase to Small Capitals lookup 0 subtable" M.smcp
EndChar

StartChar: n
Encoding: 110 110 81
Width: 1156
GlyphClass: 1
Flags: W
LayerCount: 2
Fore
SplineSet
379 1082 m 1,0,-1
 392 927 l 1,1,2
 446 1010 446 1010 525 1056 c 128,-1,3
 604 1102 604 1102 702 1102 c 0,4,5
 866 1102 866 1102 958 996.5 c 128,-1,6
 1050 891 1050 891 1050 663 c 2,7,-1
 1050 0 l 1,8,-1
 757 0 l 1,9,-1
 757 662 l 2,10,11
 757 778 757 778 716.5 826.5 c 128,-1,12
 676 875 676 875 595 875 c 0,13,14
 530 875 530 875 480.5 850.5 c 128,-1,15
 431 826 431 826 399 783 c 1,16,-1
 399 0 l 1,17,-1
 107 0 l 1,18,-1
 107 1082 l 1,19,-1
 379 1082 l 1,0,-1
EndSplineSet
Validated: 1
Substitution2: "'smcp' Lowercase to Small Capitals lookup 0 subtable" N.smcp
EndChar

StartChar: o
Encoding: 111 111 82
Width: 1156
GlyphClass: 1
Flags: W
LayerCount: 2
Fore
SplineSet
67 551 m 2,0,1
 67 793 67 793 202 947.5 c 128,-1,2
 337 1102 337 1102 576 1102 c 0,3,4
 816 1102 816 1102 952 948 c 128,-1,5
 1088 794 1088 794 1088 551 c 2,6,-1
 1088 530 l 2,7,8
 1088 286 1088 286 952.5 132.5 c 128,-1,9
 817 -21 817 -21 578 -21 c 0,10,11
 338 -21 338 -21 202.5 132.5 c 128,-1,12
 67 286 67 286 67 530 c 2,13,-1
 67 551 l 2,0,1
358 530 m 2,14,15
 358 382 358 382 410 292.5 c 128,-1,16
 462 203 462 203 578 203 c 0,17,18
 691 203 691 203 743.5 293 c 128,-1,19
 796 383 796 383 796 530 c 2,20,-1
 796 551 l 2,21,22
 796 695 796 695 743 786 c 128,-1,23
 690 877 690 877 576 877 c 0,24,25
 463 877 463 877 410.5 785.5 c 128,-1,26
 358 694 358 694 358 551 c 2,27,-1
 358 530 l 2,14,15
EndSplineSet
Validated: 1
Substitution2: "'smcp' Lowercase to Small Capitals lookup 0 subtable" O.smcp
EndChar

StartChar: p
Encoding: 112 112 83
Width: 1156
GlyphClass: 1
Flags: W
LayerCount: 2
Fore
SplineSet
1088 511 m 2,0,1
 1088 271 1088 271 977 125 c 128,-1,2
 866 -21 866 -21 667 -21 c 0,3,4
 582 -21 582 -21 516 10.5 c 128,-1,5
 450 42 450 42 403 103 c 1,6,-1
 403 -416 l 1,7,-1
 112 -416 l 1,8,-1
 112 1082 l 1,9,-1
 375 1082 l 1,10,-1
 392 954 l 1,11,12
 440 1025 440 1025 507.5 1063.5 c 128,-1,13
 575 1102 575 1102 665 1102 c 0,14,15
 866 1102 866 1102 977 945 c 128,-1,16
 1088 788 1088 788 1088 532 c 2,17,-1
 1088 511 l 2,0,1
796 532 m 2,18,19
 796 685 796 685 745 780 c 128,-1,20
 694 875 694 875 589 875 c 0,21,22
 523 875 523 875 476.5 848 c 128,-1,23
 430 821 430 821 403 771 c 1,24,-1
 403 297 l 1,25,26
 430 251 430 251 476.5 227 c 128,-1,27
 523 203 523 203 591 203 c 0,28,29
 697 203 697 203 746.5 286 c 128,-1,30
 796 369 796 369 796 511 c 2,31,-1
 796 532 l 2,18,19
EndSplineSet
Validated: 1
Substitution2: "'smcp' Lowercase to Small Capitals lookup 0 subtable" P.smcp
EndChar

StartChar: q
Encoding: 113 113 84
Width: 1156
GlyphClass: 1
Flags: W
LayerCount: 2
Fore
SplineSet
67 532 m 2,0,1
 67 788 67 788 177.5 945 c 128,-1,2
 288 1102 288 1102 489 1102 c 0,3,4
 579 1102 579 1102 647 1062.5 c 128,-1,5
 715 1023 715 1023 764 949 c 1,6,-1
 791 1082 l 1,7,-1
 1039 1082 l 1,8,-1
 1039 -416 l 1,9,-1
 747 -416 l 1,10,-1
 747 101 l 1,11,12
 699 41 699 41 634.5 10 c 128,-1,13
 570 -21 570 -21 487 -21 c 0,14,15
 288 -21 288 -21 177.5 125 c 128,-1,16
 67 271 67 271 67 511 c 2,17,-1
 67 532 l 2,0,1
358 511 m 2,18,19
 358 369 358 369 406 286 c 128,-1,20
 454 203 454 203 562 203 c 0,21,22
 626 203 626 203 672 227 c 128,-1,23
 718 251 718 251 747 297 c 1,24,-1
 747 777 l 1,25,26
 718 825 718 825 672.5 851 c 128,-1,27
 627 877 627 877 564 877 c 0,28,29
 457 877 457 877 407.5 781 c 128,-1,30
 358 685 358 685 358 532 c 2,31,-1
 358 511 l 2,18,19
EndSplineSet
Validated: 1
Substitution2: "'smcp' Lowercase to Small Capitals lookup 0 subtable" Q.smcp
EndChar

StartChar: r
Encoding: 114 114 85
Width: 721
GlyphClass: 1
Flags: W
LayerCount: 2
Fore
SplineSet
681 831 m 1,0,-1
 574 834 l 2,1,2
 509 834 509 834 467 807 c 128,-1,3
 425 780 425 780 403 731 c 1,4,-1
 403 0 l 1,5,-1
 112 0 l 1,6,-1
 112 1082 l 1,7,-1
 383 1082 l 1,8,-1
 396 922 l 1,9,10
 434 1007 434 1007 494.5 1054.5 c 128,-1,11
 555 1102 555 1102 634 1102 c 0,12,13
 656 1102 656 1102 674.5 1098.5 c 128,-1,14
 693 1095 693 1095 712 1090 c 1,15,-1
 681 831 l 1,0,-1
EndSplineSet
Validated: 1
Substitution2: "'smcp' Lowercase to Small Capitals lookup 0 subtable" R.smcp
EndChar

StartChar: s
Encoding: 115 115 86
Width: 1056
GlyphClass: 1
Flags: W
LayerCount: 2
Fore
SplineSet
697 300 m 0,0,1
 697 348 697 348 650.5 382.5 c 128,-1,2
 604 417 604 417 478 443 c 0,3,4
 288 481 288 481 189.5 558 c 128,-1,5
 91 635 91 635 91 767 c 0,6,7
 91 906 91 906 209 1004 c 128,-1,8
 327 1102 327 1102 523 1102 c 0,9,10
 728 1102 728 1102 851.5 1004 c 128,-1,11
 975 906 975 906 970 760 c 1,12,-1
 968 754 l 1,13,-1
 686 754 l 1,14,15
 686 819 686 819 644 860 c 128,-1,16
 602 901 602 901 523 901 c 0,17,18
 453 901 453 901 412 866 c 128,-1,19
 371 831 371 831 371 780 c 0,20,21
 371 730 371 730 413.5 698.5 c 128,-1,22
 456 667 456 667 586 642 c 0,23,24
 785 602 785 602 882.5 524.5 c 128,-1,25
 980 447 980 447 980 311 c 0,26,27
 980 165 980 165 855 72 c 128,-1,28
 730 -21 730 -21 525 -21 c 0,29,30
 309 -21 309 -21 183.5 88.5 c 128,-1,31
 58 198 58 198 64 338 c 1,32,-1
 66 344 l 1,33,-1
 333 344 l 1,34,35
 336 257 336 257 390 218 c 128,-1,36
 444 179 444 179 531 179 c 0,37,38
 612 179 612 179 654.5 211.5 c 128,-1,39
 697 244 697 244 697 300 c 0,0,1
EndSplineSet
Validated: 33
Substitution2: "'smcp' Lowercase to Small Capitals lookup 0 subtable" S.smcp
EndChar

StartChar: t
Encoding: 116 116 87
Width: 713
GlyphClass: 1
Flags: W
LayerCount: 2
Fore
SplineSet
462 1347 m 1,0,-1
 462 1082 l 1,1,-1
 645 1082 l 1,2,-1
 645 877 l 1,3,-1
 462 877 l 1,4,-1
 462 326 l 2,5,6
 462 263 462 263 488.5 236 c 128,-1,7
 515 209 515 209 558 209 c 0,8,9
 581 209 581 209 598 211.5 c 128,-1,10
 615 214 615 214 637 220 c 1,11,-1
 661 9 l 1,12,13
 617 -6 617 -6 575.5 -13.5 c 128,-1,14
 534 -21 534 -21 485 -21 c 0,15,16
 334 -21 334 -21 252.5 62 c 128,-1,17
 171 145 171 145 171 325 c 2,18,-1
 171 877 l 1,19,-1
 13 877 l 1,20,-1
 13 1082 l 1,21,-1
 171 1082 l 1,22,-1
 171 1347 l 1,23,-1
 462 1347 l 1,0,-1
EndSplineSet
Validated: 1
Substitution2: "'smcp' Lowercase to Small Capitals lookup 0 subtable" T.smcp
EndChar

StartChar: u
Encoding: 117 117 88
Width: 1156
GlyphClass: 1
Flags: W
LayerCount: 2
Fore
SplineSet
775 160 m 1,0,1
 725 73 725 73 648 26 c 128,-1,2
 571 -21 571 -21 469 -21 c 0,3,4
 298 -21 298 -21 201.5 95 c 128,-1,5
 105 211 105 211 105 455 c 2,6,-1
 105 1082 l 1,7,-1
 396 1082 l 1,8,-1
 396 453 l 2,9,10
 396 311 396 311 434.5 258.5 c 128,-1,11
 473 206 473 206 554 206 c 0,12,13
 624 206 624 206 674 228.5 c 128,-1,14
 724 251 724 251 756 295 c 1,15,-1
 756 1082 l 1,16,-1
 1048 1082 l 1,17,-1
 1048 0 l 1,18,-1
 806 0 l 1,19,-1
 775 160 l 1,0,1
EndSplineSet
Validated: 1
Substitution2: "'smcp' Lowercase to Small Capitals lookup 0 subtable" U.smcp
EndChar

StartChar: v
Encoding: 118 118 89
Width: 1046
GlyphClass: 1
Flags: W
LayerCount: 2
Fore
SplineSet
503 403 m 1,0,-1
 522 303 l 1,1,-1
 528 303 l 1,2,-1
 548 403 l 1,3,-1
 726 1082 l 1,4,-1
 1031 1082 l 1,5,-1
 663 0 l 1,6,-1
 384 0 l 1,7,-1
 16 1082 l 1,8,-1
 321 1082 l 1,9,-1
 503 403 l 1,0,-1
EndSplineSet
Validated: 1
Substitution2: "'smcp' Lowercase to Small Capitals lookup 0 subtable" V.smcp
EndChar

StartChar: w
Encoding: 119 119 90
Width: 1507
GlyphClass: 1
Flags: W
LayerCount: 2
Fore
SplineSet
1053 402 m 1,0,-1
 1059 402 l 1,1,-1
 1190 1082 l 1,2,-1
 1474 1082 l 1,3,-1
 1199 0 l 1,4,-1
 955 0 l 1,5,-1
 754 624 l 1,6,-1
 748 624 l 1,7,-1
 547 0 l 1,8,-1
 304 0 l 1,9,-1
 29 1082 l 1,10,-1
 313 1082 l 1,11,-1
 446 405 l 1,12,-1
 452 405 l 1,13,-1
 654 1082 l 1,14,-1
 849 1082 l 1,15,-1
 1053 402 l 1,0,-1
EndSplineSet
Validated: 1
Substitution2: "'smcp' Lowercase to Small Capitals lookup 0 subtable" W.smcp
EndChar

StartChar: x
Encoding: 120 120 91
Width: 1046
GlyphClass: 1
Flags: W
LayerCount: 2
Fore
SplineSet
519 738 m 1,0,-1
 525 738 l 1,1,-1
 691 1082 l 1,2,-1
 1021 1082 l 1,3,-1
 695 547 l 1,4,-1
 1032 0 l 1,5,-1
 703 0 l 1,6,-1
 526 359 l 1,7,-1
 349 0 l 1,8,-1
 19 0 l 1,9,-1
 356 547 l 1,10,-1
 29 1082 l 1,11,-1
 357 1082 l 1,12,-1
 519 738 l 1,0,-1
EndSplineSet
Validated: 1
Substitution2: "'smcp' Lowercase to Small Capitals lookup 0 subtable" X.smcp
EndChar

StartChar: y
Encoding: 121 121 92
Width: 1046
GlyphClass: 1
Flags: W
LayerCount: 2
Fore
SplineSet
502 454 m 1,0,-1
 514 394 l 1,1,-1
 520 394 l 1,2,-1
 727 1082 l 1,3,-1
 1041 1082 l 1,4,-1
 602 -162 l 1,5,6
 556 -278 556 -278 477 -357.5 c 128,-1,7
 398 -437 398 -437 240 -437 c 0,8,9
 203 -437 203 -437 171.5 -431 c 128,-1,10
 140 -425 140 -425 95 -414 c 1,11,-1
 129 -201 l 1,12,13
 142 -203 142 -203 157 -205 c 128,-1,14
 172 -207 172 -207 184 -207 c 0,15,16
 256 -207 256 -207 295 -171.5 c 128,-1,17
 334 -136 334 -136 355 -83 c 2,18,-1
 389 1 l 1,19,-1
 5 1082 l 1,20,-1
 319 1082 l 1,21,-1
 502 454 l 1,0,-1
EndSplineSet
Validated: 1
Substitution2: "'smcp' Lowercase to Small Capitals lookup 0 subtable" Y.smcp
EndChar

StartChar: z
Encoding: 122 122 93
Width: 1046
GlyphClass: 1
Flags: W
LayerCount: 2
Fore
SplineSet
438 224 m 1,0,-1
 974 224 l 1,1,-1
 974 0 l 1,2,-1
 75 0 l 1,3,-1
 75 172 l 1,4,-1
 590 856 l 1,5,-1
 91 856 l 1,6,-1
 91 1082 l 1,7,-1
 957 1082 l 1,8,-1
 957 915 l 1,9,-1
 438 224 l 1,0,-1
EndSplineSet
Validated: 1
Substitution2: "'smcp' Lowercase to Small Capitals lookup 0 subtable" Z.smcp
EndChar

StartChar: braceleft
Encoding: 123 123 94
Width: 676
GlyphClass: 1
Flags: W
LayerCount: 2
Fore
SplineSet
585 -360 m 1,0,1
 390 -305 390 -305 307.5 -185 c 128,-1,2
 225 -65 225 -65 225 106 c 2,3,-1
 225 309 l 2,4,5
 225 408 225 408 181.5 463 c 128,-1,6
 138 518 138 518 48 518 c 1,7,-1
 48 719 l 1,8,9
 138 719 138 719 181.5 773.5 c 128,-1,10
 225 828 225 828 225 929 c 2,11,-1
 225 1132 l 2,12,13
 225 1303 225 1303 307.5 1422.5 c 128,-1,14
 390 1542 390 1542 585 1597 c 1,15,-1
 641 1440 l 1,16,17
 556 1409 556 1409 521 1329.5 c 128,-1,18
 486 1250 486 1250 486 1132 c 2,19,-1
 486 929 l 2,20,21
 486 825 486 825 441.5 744.5 c 128,-1,22
 397 664 397 664 307 619 c 1,23,24
 397 572 397 572 441.5 491.5 c 128,-1,25
 486 411 486 411 486 309 c 2,26,-1
 486 106 l 2,27,28
 486 -12 486 -12 521 -91.5 c 128,-1,29
 556 -171 556 -171 641 -202 c 1,30,-1
 585 -360 l 1,0,1
EndSplineSet
Validated: 1
EndChar

StartChar: bar
Encoding: 124 124 95
Width: 519
GlyphClass: 1
Flags: W
LayerCount: 2
Fore
SplineSet
374 -270 m 1,0,-1
 143 -270 l 1,1,-1
 143 1456 l 1,2,-1
 374 1456 l 1,3,-1
 374 -270 l 1,0,-1
EndSplineSet
Validated: 1
EndChar

StartChar: braceright
Encoding: 125 125 96
Width: 676
GlyphClass: 1
Flags: W
LayerCount: 2
Fore
SplineSet
34 -202 m 1,0,1
 119 -171 119 -171 154 -91.5 c 128,-1,2
 189 -12 189 -12 189 106 c 2,3,-1
 189 309 l 2,4,5
 189 413 189 413 235 493 c 128,-1,6
 281 573 281 573 375 618 c 1,7,8
 281 663 281 663 235 743.5 c 128,-1,9
 189 824 189 824 189 929 c 2,10,-1
 189 1132 l 2,11,12
 189 1250 189 1250 154 1329.5 c 128,-1,13
 119 1409 119 1409 34 1440 c 1,14,-1
 90 1597 l 1,15,16
 284 1542 284 1542 367 1422.5 c 128,-1,17
 450 1303 450 1303 450 1132 c 2,18,-1
 450 929 l 2,19,20
 450 828 450 828 493 773.5 c 128,-1,21
 536 719 536 719 628 719 c 1,22,-1
 628 518 l 1,23,24
 536 518 536 518 493 463 c 128,-1,25
 450 408 450 408 450 309 c 2,26,-1
 450 106 l 2,27,28
 450 -65 450 -65 367 -185 c 128,-1,29
 284 -305 284 -305 90 -360 c 1,30,-1
 34 -202 l 1,0,1
EndSplineSet
Validated: 1
EndChar

StartChar: asciitilde
Encoding: 126 126 97
Width: 1327
GlyphClass: 1
Flags: W
LayerCount: 2
Fore
SplineSet
1220 758 m 1,0,1
 1220 597 1220 597 1131.5 487.5 c 128,-1,2
 1043 378 1043 378 908 378 c 0,3,4
 823 378 823 378 751 409.5 c 128,-1,5
 679 441 679 441 601 511 c 0,6,7
 549 555 549 555 511.5 575 c 128,-1,8
 474 595 474 595 430 595 c 0,9,10
 378 595 378 595 342.5 544 c 128,-1,11
 307 493 307 493 307 422 c 1,12,-1
 105 448 l 1,13,14
 105 610 105 610 191.5 717.5 c 128,-1,15
 278 825 278 825 415 825 c 0,16,17
 498 825 498 825 573.5 791.5 c 128,-1,18
 649 758 649 758 725 692 c 0,19,20
 774 647 774 647 811.5 627.5 c 128,-1,21
 849 608 849 608 893 608 c 0,22,23
 943 608 943 608 980 660 c 128,-1,24
 1017 712 1017 712 1017 785 c 1,25,-1
 1220 758 l 1,0,1
EndSplineSet
Validated: 1
EndChar

StartChar: exclamdown
Encoding: 161 161 99
Width: 580
GlyphClass: 1
Flags: W
LayerCount: 2
Fore
SplineSet
434 -374 m 1,0,-1
 142 -374 l 1,1,-1
 142 579 l 1,2,-1
 434 579 l 1,3,-1
 434 -374 l 1,0,-1
434 825 m 1,4,-1
 142 825 l 1,5,-1
 142 1082 l 1,6,-1
 434 1082 l 1,7,-1
 434 825 l 1,4,-1
EndSplineSet
Validated: 1
EndChar

StartChar: cent
Encoding: 162 162 100
Width: 1181
GlyphClass: 1
Flags: W
LayerCount: 2
Fore
SplineSet
564 203 m 0,0,1
 640 203 640 203 685 248.5 c 128,-1,2
 730 294 730 294 730 370 c 1,3,-1
 997 370 l 1,4,-1
 1000 365 l 1,5,6
 1002 234 1002 234 919 133.5 c 128,-1,7
 836 33 836 33 700 -3 c 1,8,-1
 700 -245 l 1,9,-1
 500 -245 l 1,10,-1
 500 -17 l 1,11,12
 289 4 289 4 175.5 153.5 c 128,-1,13
 62 303 62 303 62 525 c 2,14,-1
 62 555 l 2,15,16
 62 776 62 776 175.5 926.5 c 128,-1,17
 289 1077 289 1077 500 1099 c 1,18,-1
 500 1318 l 1,19,-1
 700 1318 l 1,20,-1
 700 1085 l 1,21,22
 840 1049 840 1049 922 942.5 c 128,-1,23
 1004 836 1004 836 1004 682 c 1,24,-1
 730 682 l 1,25,26
 730 766 730 766 685.5 821.5 c 128,-1,27
 641 877 641 877 562 877 c 0,28,29
 449 877 449 877 401.5 786.5 c 128,-1,30
 354 696 354 696 354 555 c 2,31,-1
 354 525 l 2,32,33
 354 381 354 381 401.5 292 c 128,-1,34
 449 203 449 203 564 203 c 0,0,1
EndSplineSet
Validated: 33
EndChar

StartChar: sterling
Encoding: 163 163 101
Width: 1216
GlyphClass: 1
Flags: W
LayerCount: 2
Fore
SplineSet
551 588 m 1,0,-1
 555 503 l 2,1,2
 555 425 555 425 525 353 c 128,-1,3
 495 281 495 281 439 224 c 1,4,-1
 1152 224 l 1,5,-1
 1152 0 l 1,6,-1
 156 0 l 1,7,-1
 156 224 l 1,8,-1
 166 224 l 1,9,10
 213 236 213 236 236.5 319 c 128,-1,11
 260 402 260 402 260 490 c 2,12,-1
 256 588 l 1,13,-1
 92 588 l 1,14,-1
 92 813 l 1,15,-1
 247 813 l 1,16,-1
 239 1027 l 1,17,18
 239 1237 239 1237 359.5 1357 c 128,-1,19
 480 1477 480 1477 682 1477 c 0,20,21
 897 1477 897 1477 1015.5 1365.5 c 128,-1,22
 1134 1254 1134 1254 1130 1071 c 1,23,-1
 1128 1065 l 1,24,-1
 844 1065 l 1,25,26
 844 1161 844 1161 798 1206.5 c 128,-1,27
 752 1252 752 1252 681 1252 c 0,28,29
 611 1252 611 1252 571 1193.5 c 128,-1,30
 531 1135 531 1135 531 1027 c 1,31,-1
 541 813 l 1,32,-1
 896 813 l 1,33,-1
 896 588 l 1,34,-1
 551 588 l 1,0,-1
EndSplineSet
Validated: 33
EndChar

StartChar: currency
Encoding: 164 164 102
Width: 1417
GlyphClass: 1
Flags: W
LayerCount: 2
Fore
SplineSet
1072 107 m 1,0,1
 995 45 995 45 903 12.5 c 128,-1,2
 811 -20 811 -20 711 -20 c 0,3,4
 610 -20 610 -20 517.5 12.5 c 128,-1,5
 425 45 425 45 350 106 c 1,6,-1
 221 -26 l 1,7,-1
 80 118 l 1,8,-1
 215 255 l 1,9,10
 166 331 166 331 140.5 420.5 c 128,-1,11
 115 510 115 510 115 608 c 0,12,13
 115 709 115 709 143 802 c 128,-1,14
 171 895 171 895 224 973 c 1,15,-1
 80 1120 l 1,16,-1
 221 1264 l 1,17,-1
 363 1119 l 1,18,19
 437 1174 437 1174 525.5 1204 c 128,-1,20
 614 1234 614 1234 711 1234 c 0,21,22
 807 1234 807 1234 896 1203.5 c 128,-1,23
 985 1173 985 1173 1060 1117 c 1,24,-1
 1204 1265 l 1,25,-1
 1346 1120 l 1,26,-1
 1198 969 l 1,27,28
 1249 891 1249 891 1277 799.5 c 128,-1,29
 1305 708 1305 708 1305 608 c 0,30,31
 1305 511 1305 511 1279.5 422.5 c 128,-1,32
 1254 334 1254 334 1207 259 c 1,33,-1
 1346 118 l 1,34,-1
 1204 -27 l 1,35,-1
 1072 107 l 1,0,1
301 608 m 0,36,37
 301 423 301 423 420 296 c 128,-1,38
 539 169 539 169 711 169 c 0,39,40
 881 169 881 169 1000.5 296.5 c 128,-1,41
 1120 424 1120 424 1120 608 c 0,42,43
 1120 791 1120 791 1000.5 918 c 128,-1,44
 881 1045 881 1045 711 1045 c 0,45,46
 539 1045 539 1045 420 918 c 128,-1,47
 301 791 301 791 301 608 c 0,36,37
EndSplineSet
Validated: 1
EndChar

StartChar: yen
Encoding: 165 165 103
Width: 1253
GlyphClass: 1
Flags: W
LayerCount: 2
Fore
SplineSet
623 848 m 1,0,-1
 629 848 l 1,1,-1
 910 1456 l 1,2,-1
 1230 1456 l 1,3,-1
 848 742 l 1,4,-1
 1092 742 l 1,5,-1
 1092 577 l 1,6,-1
 768 577 l 1,7,-1
 768 452 l 1,8,-1
 1092 452 l 1,9,-1
 1092 288 l 1,10,-1
 768 288 l 1,11,-1
 768 0 l 1,12,-1
 476 0 l 1,13,-1
 476 288 l 1,14,-1
 137 288 l 1,15,-1
 137 452 l 1,16,-1
 476 452 l 1,17,-1
 476 577 l 1,18,-1
 137 577 l 1,19,-1
 137 742 l 1,20,-1
 404 742 l 1,21,-1
 22 1456 l 1,22,-1
 343 1456 l 1,23,-1
 623 848 l 1,0,-1
EndSplineSet
Validated: 1
EndChar

StartChar: brokenbar
Encoding: 166 166 104
Width: 517
GlyphClass: 1
Flags: W
LayerCount: 2
Fore
SplineSet
127 -270 m 1,0,-1
 127 525 l 1,1,-1
 389 525 l 1,2,-1
 389 -270 l 1,3,-1
 127 -270 l 1,0,-1
389 698 m 1,4,-1
 127 698 l 1,5,-1
 127 1456 l 1,6,-1
 389 1456 l 1,7,-1
 389 698 l 1,4,-1
EndSplineSet
Validated: 1
EndChar

StartChar: section
Encoding: 167 167 105
Width: 1287
GlyphClass: 1
Flags: W
LayerCount: 2
Fore
SplineSet
1180 475 m 0,0,1
 1180 384 1180 384 1138 316 c 128,-1,2
 1096 248 1096 248 1017 205 c 1,3,4
 1085 154 1085 154 1119.5 84 c 128,-1,5
 1154 14 1154 14 1154 -84 c 0,6,7
 1154 -261 1154 -261 1014 -361 c 128,-1,8
 874 -461 874 -461 637 -461 c 0,9,10
 405 -461 405 -461 249.5 -361.5 c 128,-1,11
 94 -262 94 -262 99 -44 c 1,12,-1
 101 -38 l 1,13,-1
 384 -37 l 1,14,15
 384 -143 384 -143 456.5 -189 c 128,-1,16
 529 -235 529 -235 637 -235 c 0,17,18
 744 -235 744 -235 803.5 -193.5 c 128,-1,19
 863 -152 863 -152 863 -85 c 256,20,21
 863 -18 863 -18 802 22.5 c 128,-1,22
 741 63 741 63 572 113 c 1,23,24
 328 177 328 177 211 270.5 c 128,-1,25
 94 364 94 364 94 536 c 0,26,27
 94 625 94 625 136 694 c 128,-1,28
 178 763 178 763 257 807 c 1,29,30
 188 857 188 857 154 927.5 c 128,-1,31
 120 998 120 998 120 1096 c 0,32,33
 120 1268 120 1268 261.5 1372.5 c 128,-1,34
 403 1477 403 1477 640 1477 c 0,35,36
 883 1477 883 1477 1020.5 1366 c 128,-1,37
 1158 1255 1158 1255 1153 1055 c 1,38,-1
 1151 1049 l 1,39,-1
 868 1049 l 1,40,41
 868 1137 868 1137 808 1194.5 c 128,-1,42
 748 1252 748 1252 640 1252 c 0,43,44
 526 1252 526 1252 469 1208.5 c 128,-1,45
 412 1165 412 1165 412 1098 c 0,46,47
 412 1023 412 1023 467.5 984.5 c 128,-1,48
 523 946 523 946 700 898 c 0,49,50
 947 834 947 834 1063.5 740.5 c 128,-1,51
 1180 647 1180 647 1180 475 c 0,0,1
599 663 m 0,52,53
 559 673 559 673 525 684 c 128,-1,54
 491 695 491 695 460 706 c 1,55,56
 422 684 422 684 403.5 647 c 128,-1,57
 385 610 385 610 385 562 c 0,58,59
 385 482 385 482 440.5 440.5 c 128,-1,60
 496 399 496 399 673 347 c 0,61,62
 707 337 707 337 741.5 327 c 128,-1,63
 776 317 776 317 811 306 c 1,64,65
 850 328 850 328 871.5 365 c 128,-1,66
 893 402 893 402 893 450 c 0,67,68
 893 521 893 521 831 566 c 128,-1,69
 769 611 769 611 599 663 c 0,52,53
EndSplineSet
Validated: 33
EndChar

StartChar: dieresis
Encoding: 168 168 106
Width: 1090
GlyphClass: 1
Flags: W
LayerCount: 2
Fore
SplineSet
922 1252 m 1,0,-1
 656 1252 l 1,1,-1
 656 1456 l 1,2,-1
 922 1456 l 1,3,-1
 922 1252 l 1,0,-1
422 1252 m 1,4,-1
 156 1252 l 1,5,-1
 156 1456 l 1,6,-1
 422 1456 l 1,7,-1
 422 1252 l 1,4,-1
EndSplineSet
Validated: 1
EndChar

StartChar: copyright
Encoding: 169 169 107
Width: 1606
GlyphClass: 1
Flags: W
LayerCount: 2
Fore
SplineSet
1109 596 m 1,0,-1
 1111 590 l 1,1,2
 1115 439 1115 439 1027 360.5 c 128,-1,3
 939 282 939 282 782 282 c 0,4,5
 622 282 622 282 527.5 388 c 128,-1,6
 433 494 433 494 433 669 c 2,7,-1
 433 788 l 2,8,9
 433 961 433 961 527.5 1068 c 128,-1,10
 622 1175 622 1175 782 1175 c 0,11,12
 939 1175 939 1175 1027.5 1095.5 c 128,-1,13
 1116 1016 1116 1016 1112 867 c 1,14,-1
 1110 861 l 1,15,-1
 962 861 l 1,16,17
 962 955 962 955 917 997.5 c 128,-1,18
 872 1040 872 1040 782 1040 c 0,19,20
 688 1040 688 1040 638 971 c 128,-1,21
 588 902 588 902 588 789 c 2,22,-1
 588 669 l 2,23,24
 588 554 588 554 638 485.5 c 128,-1,25
 688 417 688 417 782 417 c 0,26,27
 872 417 872 417 916.5 458.5 c 128,-1,28
 961 500 961 500 961 596 c 1,29,-1
 1109 596 l 1,0,-1
208 729 m 0,30,31
 208 465 208 465 379.5 284.5 c 128,-1,32
 551 104 551 104 796 104 c 0,33,34
 1040 104 1040 104 1211.5 284.5 c 128,-1,35
 1383 465 1383 465 1383 729 c 0,36,37
 1383 992 1383 992 1211.5 1171.5 c 128,-1,38
 1040 1351 1040 1351 796 1351 c 0,39,40
 550 1351 550 1351 379 1171.5 c 128,-1,41
 208 992 208 992 208 729 c 0,30,31
86 729 m 0,42,43
 86 1044 86 1044 293 1260 c 128,-1,44
 500 1476 500 1476 796 1476 c 0,45,46
 1091 1476 1091 1476 1298.5 1260 c 128,-1,47
 1506 1044 1506 1044 1506 729 c 0,48,49
 1506 413 1506 413 1298 196 c 128,-1,50
 1090 -21 1090 -21 796 -21 c 0,51,52
 500 -21 500 -21 293 196 c 128,-1,53
 86 413 86 413 86 729 c 0,42,43
EndSplineSet
Validated: 33
EndChar

StartChar: ordfeminine
Encoding: 170 170 108
Width: 909
GlyphClass: 1
Flags: W
LayerCount: 2
Fore
SplineSet
604 706 m 1,0,1
 596 727 596 727 591 750.5 c 128,-1,2
 586 774 586 774 583 800 c 1,3,4
 550 753 550 753 494.5 722.5 c 128,-1,5
 439 692 439 692 361 692 c 0,6,7
 242 692 242 692 177 753 c 128,-1,8
 112 814 112 814 112 920 c 0,9,10
 112 1031 112 1031 196.5 1091 c 128,-1,11
 281 1151 281 1151 443 1151 c 2,12,-1
 580 1151 l 1,13,-1
 580 1202 l 2,14,15
 580 1264 580 1264 550.5 1296.5 c 128,-1,16
 521 1329 521 1329 464 1329 c 0,17,18
 398 1329 398 1329 362 1303 c 128,-1,19
 326 1277 326 1277 326 1230 c 1,20,-1
 161 1243 l 1,21,-1
 160 1249 l 1,22,23
 154 1347 154 1347 239 1412 c 128,-1,24
 324 1477 324 1477 464 1477 c 0,25,26
 598 1477 598 1477 676.5 1406 c 128,-1,27
 755 1335 755 1335 755 1201 c 2,28,-1
 755 887 l 2,29,30
 755 836 755 836 761 792 c 128,-1,31
 767 748 767 748 781 706 c 1,32,-1
 604 706 l 1,0,1
404 836 m 0,33,34
 455 836 455 836 509 866 c 128,-1,35
 563 896 563 896 580 931 c 1,36,-1
 580 1034 l 1,37,-1
 444 1034 l 2,38,39
 370 1034 370 1034 328.5 1002 c 128,-1,40
 287 970 287 970 287 924 c 0,41,42
 287 881 287 881 316 858.5 c 128,-1,43
 345 836 345 836 404 836 c 0,33,34
EndSplineSet
Validated: 33
EndChar

StartChar: logicalnot
Encoding: 172 172 110
Width: 1129
GlyphClass: 1
Flags: W
LayerCount: 2
Fore
SplineSet
961 374 m 1,0,-1
 761 374 l 1,1,-1
 761 634 l 1,2,-1
 126 634 l 1,3,-1
 126 805 l 1,4,-1
 961 805 l 1,5,-1
 961 374 l 1,0,-1
EndSplineSet
Validated: 1
EndChar

StartChar: registered
Encoding: 174 174 112
Width: 1606
GlyphClass: 1
Flags: W
LayerCount: 2
Fore
SplineSet
86 729 m 0,0,1
 86 1044 86 1044 293 1260 c 128,-1,2
 500 1476 500 1476 796 1476 c 0,3,4
 1091 1476 1091 1476 1298.5 1260 c 128,-1,5
 1506 1044 1506 1044 1506 729 c 0,6,7
 1506 413 1506 413 1298 196 c 128,-1,8
 1090 -21 1090 -21 796 -21 c 0,9,10
 500 -21 500 -21 293 196 c 128,-1,11
 86 413 86 413 86 729 c 0,0,1
208 729 m 0,12,13
 208 465 208 465 379.5 284.5 c 128,-1,14
 551 104 551 104 796 104 c 0,15,16
 1040 104 1040 104 1211.5 284.5 c 128,-1,17
 1383 465 1383 465 1383 729 c 0,18,19
 1383 992 1383 992 1211.5 1171.5 c 128,-1,20
 1040 1351 1040 1351 796 1351 c 0,21,22
 550 1351 550 1351 379 1171.5 c 128,-1,23
 208 992 208 992 208 729 c 0,12,13
652 653 m 1,24,-1
 652 316 l 1,25,-1
 501 316 l 1,26,-1
 501 1166 l 1,27,-1
 782 1166 l 2,28,29
 933 1166 933 1166 1020 1098 c 128,-1,30
 1107 1030 1107 1030 1107 904 c 0,31,32
 1107 846 1107 846 1078 802.5 c 128,-1,33
 1049 759 1049 759 993 728 c 1,34,35
 1051 698 1051 698 1077.5 643.5 c 128,-1,36
 1104 589 1104 589 1104 515 c 2,37,-1
 1104 459 l 2,38,39
 1104 418 1104 418 1107.5 385.5 c 128,-1,40
 1111 353 1111 353 1121 332 c 1,41,-1
 1121 316 l 1,42,-1
 966 316 l 1,43,44
 957 337 957 337 955 377.5 c 128,-1,45
 953 418 953 418 953 460 c 2,46,-1
 953 514 l 2,47,48
 953 585 953 585 919.5 619 c 128,-1,49
 886 653 886 653 810 653 c 2,50,-1
 652 653 l 1,24,-1
652 787 m 1,51,-1
 787 787 l 2,52,53
 858 787 858 787 907.5 817 c 128,-1,54
 957 847 957 847 957 903 c 0,55,56
 957 975 957 975 918 1004 c 128,-1,57
 879 1033 879 1033 782 1033 c 2,58,-1
 652 1033 l 1,59,-1
 652 787 l 1,51,-1
EndSplineSet
Validated: 1
EndChar

StartChar: macron
Encoding: 175 175 113
AltUni2: 0002c9.ffffffff.0 0002c9.ffffffff.0
Width: 1028
GlyphClass: 1
Flags: W
LayerCount: 2
Fore
SplineSet
879 1292 m 1,0,-1
 148 1292 l 1,1,-1
 148 1457 l 1,2,-1
 879 1457 l 1,3,-1
 879 1292 l 1,0,-1
EndSplineSet
Validated: 1
EndChar

StartChar: degree
Encoding: 176 176 114
Width: 796
GlyphClass: 1
Flags: W
LayerCount: 2
Fore
SplineSet
126 1203 m 0,0,1
 126 1315 126 1315 206.5 1396 c 128,-1,2
 287 1477 287 1477 399 1477 c 0,3,4
 509 1477 509 1477 588 1396 c 128,-1,5
 667 1315 667 1315 667 1203 c 0,6,7
 667 1090 667 1090 588 1011 c 128,-1,8
 509 932 509 932 399 932 c 0,9,10
 286 932 286 932 206 1011 c 128,-1,11
 126 1090 126 1090 126 1203 c 0,0,1
273 1203 m 0,12,13
 273 1150 273 1150 310 1114.5 c 128,-1,14
 347 1079 347 1079 399 1079 c 0,15,16
 450 1079 450 1079 485 1114 c 128,-1,17
 520 1149 520 1149 520 1203 c 256,18,19
 520 1257 520 1257 485 1294 c 128,-1,20
 450 1331 450 1331 399 1331 c 0,21,22
 347 1331 347 1331 310 1294 c 128,-1,23
 273 1257 273 1257 273 1203 c 0,12,13
EndSplineSet
Validated: 1
EndChar

StartChar: plusminus
Encoding: 177 177 115
Width: 1101
GlyphClass: 1
Flags: W
LayerCount: 2
Fore
SplineSet
679 947 m 1,0,-1
 1006 947 l 1,1,-1
 1006 715 l 1,2,-1
 679 715 l 1,3,-1
 679 332 l 1,4,-1
 423 332 l 1,5,-1
 423 715 l 1,6,-1
 90 715 l 1,7,-1
 90 947 l 1,8,-1
 423 947 l 1,9,-1
 423 1310 l 1,10,-1
 679 1310 l 1,11,-1
 679 947 l 1,0,-1
948 -43 m 1,12,-1
 114 -43 l 1,13,-1
 114 185 l 1,14,-1
 948 185 l 1,15,-1
 948 -43 l 1,12,-1
EndSplineSet
Validated: 1
EndChar

StartChar: twosuperior
Encoding: 178 178 116
Width: 860
GlyphClass: 1
Flags: W
LayerCount: 2
Fore
SplineSet
736 667 m 1,0,-1
 114 667 l 1,1,-1
 114 822 l 1,2,-1
 423 1074 l 2,3,4
 483 1124 483 1124 500.5 1157.5 c 128,-1,5
 518 1191 518 1191 518 1232 c 0,6,7
 518 1271 518 1271 494.5 1297.5 c 128,-1,8
 471 1324 471 1324 422 1324 c 0,9,10
 367 1324 367 1324 339 1294 c 128,-1,11
 311 1264 311 1264 311 1217 c 1,12,-1
 110 1217 l 1,13,-1
 108 1223 l 1,14,15
 102 1329 102 1329 190.5 1404 c 128,-1,16
 279 1479 279 1479 427 1479 c 0,17,18
 571 1479 571 1479 650 1414 c 128,-1,19
 729 1349 729 1349 729 1231 c 0,20,21
 729 1149 729 1149 675.5 1086.5 c 128,-1,22
 622 1024 622 1024 497 921 c 2,23,-1
 388 828 l 1,24,-1
 390 822 l 1,25,-1
 736 822 l 1,26,-1
 736 667 l 1,0,-1
EndSplineSet
Validated: 33
EndChar

StartChar: threesuperior
Encoding: 179 179 117
Width: 856
GlyphClass: 1
Flags: W
LayerCount: 2
Fore
SplineSet
408 1139 m 2,0,1
 470 1139 470 1139 500 1163.5 c 128,-1,2
 530 1188 530 1188 530 1234 c 0,3,4
 530 1272 530 1272 501.5 1297.5 c 128,-1,5
 473 1323 473 1323 418 1323 c 0,6,7
 367 1323 367 1323 338.5 1301 c 128,-1,8
 310 1279 310 1279 310 1248 c 1,9,-1
 110 1248 l 1,10,-1
 108 1254 l 1,11,12
 102 1355 102 1355 190 1416.5 c 128,-1,13
 278 1478 278 1478 412 1478 c 0,14,15
 564 1478 564 1478 652.5 1418.5 c 128,-1,16
 741 1359 741 1359 741 1249 c 0,17,18
 741 1194 741 1194 705.5 1148.5 c 128,-1,19
 670 1103 670 1103 609 1078 c 1,20,21
 679 1054 679 1054 716.5 1006.5 c 128,-1,22
 754 959 754 959 754 891 c 0,23,24
 754 779 754 779 664.5 717 c 128,-1,25
 575 655 575 655 423 655 c 0,26,27
 277 655 277 655 183 717.5 c 128,-1,28
 89 780 89 780 95 893 c 1,29,-1
 97 899 l 1,30,-1
 298 899 l 1,31,32
 298 857 298 857 329.5 833.5 c 128,-1,33
 361 810 361 810 421 810 c 0,34,35
 477 810 477 810 511 834 c 128,-1,36
 545 858 545 858 545 902 c 0,37,38
 545 952 545 952 510 979 c 128,-1,39
 475 1006 475 1006 408 1006 c 2,40,-1
 297 1006 l 1,41,-1
 297 1139 l 1,42,-1
 408 1139 l 2,0,1
EndSplineSet
Validated: 33
EndChar

StartChar: acute
Encoding: 180 180 118
Width: 727
GlyphClass: 1
Flags: W
LayerCount: 2
Fore
SplineSet
314 1518 m 1,0,-1
 639 1518 l 1,1,-1
 641 1512 l 1,2,-1
 364 1252 l 1,3,-1
 115 1252 l 1,4,-1
 314 1518 l 1,0,-1
EndSplineSet
Validated: 1
EndChar

StartChar: mu
Encoding: 181 181 119
Width: 1264
GlyphClass: 1
Flags: W
LayerCount: 2
Fore
SplineSet
430 1082 m 1,0,-1
 430 462 l 2,1,2
 430 313 430 313 475 259.5 c 128,-1,3
 520 206 520 206 610 206 c 0,4,5
 685 206 685 206 735 233.5 c 128,-1,6
 785 261 785 261 813 313 c 1,7,-1
 813 1082 l 1,8,-1
 1105 1082 l 1,9,-1
 1105 0 l 1,10,-1
 833 0 l 1,11,-1
 827 67 l 1,12,13
 783 24 783 24 726.5 1.5 c 128,-1,14
 670 -21 670 -21 603 -21 c 0,15,16
 552 -21 552 -21 508.5 -10.5 c 128,-1,17
 465 0 465 0 430 23 c 1,18,-1
 430 -416 l 1,19,-1
 139 -416 l 1,20,-1
 139 1082 l 1,21,-1
 430 1082 l 1,0,-1
EndSplineSet
Validated: 1
EndChar

StartChar: paragraph
Encoding: 182 182 120
Width: 1078
GlyphClass: 1
Flags: W
LayerCount: 2
Fore
SplineSet
636 0 m 1,0,-1
 636 520 l 1,1,-1
 553 520 l 2,2,3
 320 520 320 520 190.5 649.5 c 128,-1,4
 61 779 61 779 61 988 c 0,5,6
 61 1195 61 1195 190.5 1325.5 c 128,-1,7
 320 1456 320 1456 553 1456 c 2,8,-1
 928 1456 l 1,9,-1
 928 0 l 1,10,-1
 636 0 l 1,0,-1
EndSplineSet
Validated: 1
EndChar

StartChar: periodcentered
Encoding: 183 183 121
Width: 619
GlyphClass: 1
Flags: W
LayerCount: 2
Fore
SplineSet
451 568 m 1,0,-1
 159 568 l 1,1,-1
 159 828 l 1,2,-1
 451 828 l 1,3,-1
 451 568 l 1,0,-1
EndSplineSet
Validated: 1
EndChar

StartChar: cedilla
Encoding: 184 184 122
Width: 549
GlyphClass: 1
Flags: W
LayerCount: 2
Fore
SplineSet
347 6 m 1,0,-1
 336 -51 l 1,1,2
 400 -62 400 -62 443 -103 c 128,-1,3
 486 -144 486 -144 486 -224 c 0,4,5
 486 -331 486 -331 394.5 -395 c 128,-1,6
 303 -459 303 -459 135 -459 c 1,7,-1
 128 -298 l 1,8,9
 179 -298 179 -298 209 -277.5 c 128,-1,10
 239 -257 239 -257 239 -215 c 0,11,12
 239 -174 239 -174 207 -157.5 c 128,-1,13
 175 -141 175 -141 97 -136 c 1,14,-1
 128 6 l 1,15,-1
 347 6 l 1,0,-1
EndSplineSet
Validated: 1
EndChar

StartChar: onesuperior
Encoding: 185 185 123
Width: 573
GlyphClass: 1
Flags: W
LayerCount: 2
Fore
SplineSet
416 665 m 1,0,-1
 205 665 l 1,1,-1
 205 1295 l 1,2,-1
 78 1295 l 1,3,-1
 78 1454 l 1,4,-1
 416 1477 l 1,5,-1
 416 665 l 1,0,-1
EndSplineSet
Validated: 1
EndChar

StartChar: ordmasculine
Encoding: 186 186 124
Width: 937
GlyphClass: 1
Flags: W
LayerCount: 2
Fore
SplineSet
118 1142 m 2,0,1
 118 1290 118 1290 212 1383.5 c 128,-1,2
 306 1477 306 1477 464 1477 c 256,3,4
 622 1477 622 1477 716.5 1383.5 c 128,-1,5
 811 1290 811 1290 811 1142 c 2,6,-1
 811 1025 l 2,7,8
 811 876 811 876 717 783.5 c 128,-1,9
 623 691 623 691 466 691 c 0,10,11
 307 691 307 691 212.5 783.5 c 128,-1,12
 118 876 118 876 118 1025 c 2,13,-1
 118 1142 l 2,0,1
293 1025 m 2,14,15
 293 940 293 940 337 888.5 c 128,-1,16
 381 837 381 837 466 837 c 0,17,18
 548 837 548 837 592 888.5 c 128,-1,19
 636 940 636 940 636 1025 c 2,20,-1
 636 1142 l 2,21,22
 636 1225 636 1225 591.5 1277 c 128,-1,23
 547 1329 547 1329 464 1329 c 0,24,25
 380 1329 380 1329 336.5 1277 c 128,-1,26
 293 1225 293 1225 293 1142 c 2,27,-1
 293 1025 l 2,14,15
EndSplineSet
Validated: 1
EndChar

StartChar: questiondown
Encoding: 191 191 129
Width: 1037
GlyphClass: 1
Flags: W
LayerCount: 2
Fore
SplineSet
726 668 m 1,0,1
 724 527 724 527 683.5 461.5 c 128,-1,2
 643 396 643 396 524 304 c 0,3,4
 452 246 452 246 409.5 178.5 c 128,-1,5
 367 111 367 111 367 29 c 0,6,7
 367 -61 367 -61 415.5 -113 c 128,-1,8
 464 -165 464 -165 555 -165 c 0,9,10
 628 -165 628 -165 679 -122 c 128,-1,11
 730 -79 730 -79 733 6 c 1,12,-1
 1016 6 l 1,13,-1
 1018 0 l 1,14,15
 1020 -191 1020 -191 890.5 -292.5 c 128,-1,16
 761 -394 761 -394 555 -394 c 0,17,18
 329 -394 329 -394 202 -281 c 128,-1,19
 75 -168 75 -168 75 27 c 0,20,21
 75 152 75 152 149 260 c 128,-1,22
 223 368 223 368 336 443 c 1,23,24
 396 488 396 488 415.5 535.5 c 128,-1,25
 435 583 435 583 435 668 c 1,26,-1
 726 668 l 1,0,1
433 1082 m 1,27,-1
 727 1082 l 1,28,-1
 727 831 l 1,29,-1
 433 831 l 1,30,-1
 433 1082 l 1,27,-1
EndSplineSet
Validated: 33
EndChar

StartChar: AE
Encoding: 198 198 136
Width: 1945
GlyphClass: 1
Flags: W
LayerCount: 2
Fore
SplineSet
1874 0 m 1,0,-1
 976 0 l 1,1,-1
 962 335 l 1,2,-1
 522 335 l 1,3,-1
 354 0 l 1,4,-1
 12 0 l 1,5,-1
 796 1456 l 1,6,-1
 1812 1456 l 1,7,-1
 1812 1228 l 1,8,-1
 1216 1228 l 1,9,-1
 1232 862 l 1,10,-1
 1731 862 l 1,11,-1
 1731 635 l 1,12,-1
 1241 635 l 1,13,-1
 1258 227 l 1,14,-1
 1874 227 l 1,15,-1
 1874 0 l 1,0,-1
642 575 m 1,16,-1
 952 575 l 1,17,-1
 929 1134 l 1,18,-1
 923 1135 l 1,19,-1
 642 575 l 1,16,-1
EndSplineSet
Validated: 1
EndChar

StartChar: Eth
Encoding: 208 208 146
Width: 1355
GlyphClass: 1
Flags: W
LayerCount: 2
Fore
SplineSet
134 0 m 1,0,-1
 134 652 l 1,1,-1
 -2 652 l 1,2,-1
 -2 833 l 1,3,-1
 134 833 l 1,4,-1
 134 1456 l 1,5,-1
 642 1456 l 2,6,7
 909 1456 909 1456 1082 1285.5 c 128,-1,8
 1255 1115 1255 1115 1255 848 c 2,9,-1
 1255 607 l 2,10,11
 1255 339 1255 339 1082 169.5 c 128,-1,12
 909 0 909 0 642 0 c 2,13,-1
 134 0 l 1,0,-1
669 652 m 1,14,-1
 426 652 l 1,15,-1
 426 224 l 1,16,-1
 642 224 l 2,17,18
 786 224 786 224 874 331.5 c 128,-1,19
 962 439 962 439 962 607 c 2,20,-1
 962 850 l 2,21,22
 962 1017 962 1017 874 1124 c 128,-1,23
 786 1231 786 1231 642 1231 c 2,24,-1
 426 1231 l 1,25,-1
 426 833 l 1,26,-1
 669 833 l 1,27,-1
 669 652 l 1,14,-1
EndSplineSet
Validated: 1
Substitution2: "'smcp' Lowercase to Small Capitals lookup 0 subtable" Eth.smcp
EndChar

StartChar: multiply
Encoding: 215 215 153
Width: 1088
GlyphClass: 1
Flags: W
LayerCount: 2
Fore
SplineSet
64 371 m 1,0,-1
 373 686 l 1,1,-1
 64 1001 l 1,2,-1
 236 1165 l 1,3,-1
 539 855 l 1,4,-1
 843 1165 l 1,5,-1
 1015 1001 l 1,6,-1
 706 686 l 1,7,-1
 1015 371 l 1,8,-1
 843 207 l 1,9,-1
 539 516 l 1,10,-1
 236 207 l 1,11,-1
 64 371 l 1,0,-1
EndSplineSet
Validated: 1
EndChar

StartChar: Oslash
Encoding: 216 216 154
Width: 1410
GlyphClass: 1
Flags: W
LayerCount: 2
Fore
SplineSet
1312 597 m 2,0,1
 1312 328 1312 328 1143 153.5 c 128,-1,2
 974 -21 974 -21 703 -21 c 0,3,4
 623 -21 623 -21 550.5 -4.5 c 128,-1,5
 478 12 478 12 414 45 c 1,6,-1
 333 -95 l 1,7,-1
 190 -95 l 1,8,-1
 311 112 l 1,9,10
 208 195 208 195 152.5 321 c 128,-1,11
 97 447 97 447 97 597 c 2,12,-1
 97 859 l 2,13,14
 97 1126 97 1126 264.5 1301.5 c 128,-1,15
 432 1477 432 1477 701 1477 c 0,16,17
 799 1477 799 1477 887 1451.5 c 128,-1,18
 975 1426 975 1426 1049 1378 c 1,19,-1
 1130 1518 l 1,20,-1
 1273 1518 l 1,21,-1
 1145 1298 l 1,22,23
 1225 1214 1225 1214 1268.5 1101.5 c 128,-1,24
 1312 989 1312 989 1312 859 c 2,25,-1
 1312 597 l 2,0,1
388 597 m 2,26,27
 388 524 388 524 403 462 c 128,-1,28
 418 400 418 400 447 356 c 1,29,-1
 453 355 l 1,30,-1
 920 1158 l 1,31,32
 879 1201 879 1201 823.5 1225 c 128,-1,33
 768 1249 768 1249 701 1249 c 0,34,35
 553 1249 553 1249 470.5 1140 c 128,-1,36
 388 1031 388 1031 388 861 c 2,37,-1
 388 597 l 2,26,27
1021 861 m 2,38,39
 1021 908 1021 908 1013.5 951 c 128,-1,40
 1006 994 1006 994 993 1028 c 1,41,-1
 988 1029 l 1,42,-1
 536 254 l 1,43,44
 570 230 570 230 612 218 c 128,-1,45
 654 206 654 206 703 206 c 0,46,47
 853 206 853 206 937 315 c 128,-1,48
 1021 424 1021 424 1021 597 c 2,49,-1
 1021 861 l 2,38,39
EndSplineSet
Validated: 1
EndChar

StartChar: Thorn
Encoding: 222 222 160
Width: 1247
GlyphClass: 1
Flags: W
LayerCount: 2
Fore
SplineSet
424 1456 m 1,0,-1
 424 1186 l 1,1,-1
 645 1186 l 2,2,3
 899 1186 899 1186 1041 1062 c 128,-1,4
 1183 938 1183 938 1183 738 c 0,5,6
 1183 537 1183 537 1041 413 c 128,-1,7
 899 289 899 289 645 289 c 2,8,-1
 424 289 l 1,9,-1
 424 0 l 1,10,-1
 132 0 l 1,11,-1
 132 1456 l 1,12,-1
 424 1456 l 1,0,-1
424 961 m 1,13,-1
 424 514 l 1,14,-1
 645 514 l 2,15,16
 768 514 768 514 829.5 577.5 c 128,-1,17
 891 641 891 641 891 736 c 256,18,19
 891 831 891 831 829.5 896 c 128,-1,20
 768 961 768 961 645 961 c 2,21,-1
 424 961 l 1,13,-1
EndSplineSet
Validated: 1
EndChar

StartChar: germandbls
Encoding: 223 223 161
Width: 1294
GlyphClass: 1
Flags: W
LayerCount: 2
Fore
SplineSet
426 0 m 1,0,-1
 135 0 l 1,1,-1
 135 1101 l 2,2,3
 135 1327 135 1327 264 1450 c 128,-1,4
 393 1573 393 1573 616 1573 c 0,5,6
 796 1573 796 1573 915 1477.5 c 128,-1,7
 1034 1382 1034 1382 1034 1206 c 0,8,9
 1034 1098 1034 1098 980.5 1000.5 c 128,-1,10
 927 903 927 903 927 835 c 0,11,12
 927 779 927 779 1077 637.5 c 128,-1,13
 1227 496 1227 496 1227 356 c 0,14,15
 1227 167 1227 167 1112 73 c 128,-1,16
 997 -21 997 -21 780 -21 c 0,17,18
 699 -21 699 -21 619.5 -6 c 128,-1,19
 540 9 540 9 501 35 c 1,20,-1
 556 258 l 1,21,22
 595 236 595 236 652 219.5 c 128,-1,23
 709 203 709 203 774 203 c 0,24,25
 850 203 850 203 893 241 c 128,-1,26
 936 279 936 279 936 344 c 0,27,28
 936 415 936 415 786 549.5 c 128,-1,29
 636 684 636 684 636 826 c 0,30,31
 636 916 636 916 690.5 1016 c 128,-1,32
 745 1116 745 1116 745 1191 c 0,33,34
 745 1259 745 1259 700 1304 c 128,-1,35
 655 1349 655 1349 597 1349 c 0,36,37
 521 1349 521 1349 473.5 1281.5 c 128,-1,38
 426 1214 426 1214 426 1097 c 2,39,-1
 426 0 l 1,0,-1
EndSplineSet
Validated: 1
Substitution2: "'smcp' Lowercase to Small Capitals lookup 0 subtable" germandbls.smcp
EndChar

StartChar: ae
Encoding: 230 230 168
Width: 1771
GlyphClass: 1
Flags: W
LayerCount: 2
Fore
SplineSet
1280 -21 m 0,0,1
 1151 -21 1151 -21 1051 19.5 c 128,-1,2
 951 60 951 60 884 137 c 1,3,4
 824 68 824 68 722.5 23.5 c 128,-1,5
 621 -21 621 -21 482 -21 c 0,6,7
 290 -21 290 -21 185.5 69.5 c 128,-1,8
 81 160 81 160 81 317 c 0,9,10
 81 476 81 476 207.5 562 c 128,-1,11
 334 648 334 648 577 648 c 2,12,-1
 758 648 l 1,13,-1
 758 707 l 2,14,15
 758 786 758 786 717.5 831.5 c 128,-1,16
 677 877 677 877 603 877 c 0,17,18
 522 877 522 877 475.5 839.5 c 128,-1,19
 429 802 429 802 429 746 c 1,20,-1
 147 764 l 1,21,-1
 145 770 l 1,22,23
 139 914 139 914 266.5 1008 c 128,-1,24
 394 1102 394 1102 606 1102 c 0,25,26
 708 1102 708 1102 792 1074.5 c 128,-1,27
 876 1047 876 1047 935 995 c 1,28,29
 996 1047 996 1047 1077 1074.5 c 128,-1,30
 1158 1102 1158 1102 1257 1102 c 0,31,32
 1469 1102 1469 1102 1590.5 970 c 128,-1,33
 1712 838 1712 838 1712 612 c 2,34,-1
 1712 454 l 1,35,-1
 1061 454 l 1,36,-1
 1059 448 l 1,37,38
 1063 337 1063 337 1125 270 c 128,-1,39
 1187 203 1187 203 1311 203 c 0,40,41
 1403 203 1403 203 1464.5 223 c 128,-1,42
 1526 243 1526 243 1606 284 c 1,43,-1
 1683 100 l 1,44,45
 1621 52 1621 52 1513.5 15.5 c 128,-1,46
 1406 -21 1406 -21 1280 -21 c 0,0,1
537 185 m 0,47,48
 595 185 595 185 658 215.5 c 128,-1,49
 721 246 721 246 758 288 c 1,50,-1
 758 464 l 1,51,-1
 579 464 l 2,52,53
 482 464 482 464 427 419.5 c 128,-1,54
 372 375 372 375 372 313 c 0,55,56
 372 254 372 254 413.5 219.5 c 128,-1,57
 455 185 455 185 537 185 c 0,47,48
1257 877 m 0,58,59
 1162 877 1162 877 1115 815.5 c 128,-1,60
 1068 754 1068 754 1061 649 c 1,61,-1
 1063 644 l 1,62,-1
 1425 644 l 1,63,-1
 1425 672 l 2,64,65
 1425 766 1425 766 1382.5 821.5 c 128,-1,66
 1340 877 1340 877 1257 877 c 0,58,59
EndSplineSet
Validated: 33
EndChar

StartChar: eth
Encoding: 240 240 178
Width: 1218
GlyphClass: 1
Flags: W
LayerCount: 2
Fore
SplineSet
921 1290 m 1,0,1
 1023 1184 1023 1184 1079.5 1045 c 128,-1,2
 1136 906 1136 906 1136 742 c 2,3,-1
 1136 546 l 2,4,5
 1136 296 1136 296 979 137.5 c 128,-1,6
 822 -21 822 -21 587 -21 c 0,7,8
 349 -21 349 -21 198.5 119.5 c 128,-1,9
 48 260 48 260 48 468 c 0,10,11
 48 694 48 694 182.5 830.5 c 128,-1,12
 317 967 317 967 548 967 c 0,13,14
 629 967 629 967 701 941.5 c 128,-1,15
 773 916 773 916 825 871 c 1,16,-1
 829 875 l 1,17,18
 815 958 815 958 775 1028.5 c 128,-1,19
 735 1099 735 1099 675 1154 c 1,20,-1
 430 1018 l 1,21,-1
 352 1131 l 1,22,-1
 544 1237 l 1,23,-1
 543 1243 l 1,24,25
 512 1259 512 1259 475 1273 c 128,-1,26
 438 1287 438 1287 398 1299 c 1,27,-1
 490 1517 l 1,28,29
 578 1498 578 1498 658.5 1464.5 c 128,-1,30
 739 1431 739 1431 808 1384 c 1,31,-1
 1006 1493 l 1,32,-1
 1083 1380 l 1,33,-1
 921 1290 l 1,0,1
591 203 m 0,34,35
 707 203 707 203 775.5 299.5 c 128,-1,36
 844 396 844 396 844 546 c 2,37,-1
 844 664 l 1,38,39
 809 703 809 703 745 729 c 128,-1,40
 681 755 681 755 594 755 c 0,41,42
 472 755 472 755 406 676 c 128,-1,43
 340 597 340 597 340 468 c 0,44,45
 340 356 340 356 408 279.5 c 128,-1,46
 476 203 476 203 591 203 c 0,34,35
EndSplineSet
Validated: 1
Substitution2: "'smcp' Lowercase to Small Capitals lookup 0 subtable" Eth.smcp
EndChar

StartChar: divide
Encoding: 247 247 185
Width: 1168
GlyphClass: 1
Flags: W
LayerCount: 2
Fore
SplineSet
1092 573 m 1,0,-1
 63 573 l 1,1,-1
 63 800 l 1,2,-1
 1092 800 l 1,3,-1
 1092 573 l 1,0,-1
725 973 m 1,4,-1
 432 973 l 1,5,-1
 432 1206 l 1,6,-1
 725 1206 l 1,7,-1
 725 973 l 1,4,-1
725 164 m 1,8,-1
 432 164 l 1,9,-1
 432 397 l 1,10,-1
 725 397 l 1,11,-1
 725 164 l 1,8,-1
EndSplineSet
Validated: 1
EndChar

StartChar: oslash
Encoding: 248 248 186
Width: 1156
GlyphClass: 1
Flags: W
LayerCount: 2
Fore
SplineSet
67 551 m 2,0,1
 67 793 67 793 202 947.5 c 128,-1,2
 337 1102 337 1102 576 1102 c 0,3,4
 626 1102 626 1102 672.5 1094 c 128,-1,5
 719 1086 719 1086 763 1072 c 1,6,-1
 833 1215 l 1,7,-1
 994 1215 l 1,8,-1
 891 1004 l 1,9,10
 986 930 986 930 1037 812.5 c 128,-1,11
 1088 695 1088 695 1088 551 c 2,12,-1
 1088 530 l 2,13,14
 1088 286 1088 286 952.5 132.5 c 128,-1,15
 817 -21 817 -21 578 -21 c 0,16,17
 530 -21 530 -21 486 -14 c 128,-1,18
 442 -7 442 -7 402 5 c 1,19,-1
 331 -141 l 1,20,-1
 170 -141 l 1,21,-1
 273 70 l 1,22,23
 172 141 172 141 119.5 260.5 c 128,-1,24
 67 380 67 380 67 530 c 2,25,-1
 67 551 l 2,0,1
358 530 m 2,26,27
 358 468 358 468 366.5 416 c 128,-1,28
 375 364 375 364 393 330 c 1,29,-1
 399 329 l 1,30,-1
 659 860 l 1,31,32
 640 868 640 868 619.5 872.5 c 128,-1,33
 599 877 599 877 576 877 c 0,34,35
 463 877 463 877 410.5 785.5 c 128,-1,36
 358 694 358 694 358 551 c 2,37,-1
 358 530 l 2,26,27
796 551 m 2,38,39
 796 605 796 605 788 653 c 128,-1,40
 780 701 780 701 766 735 c 1,41,-1
 760 736 l 1,42,-1
 505 215 l 1,43,44
 520 208 520 208 538.5 205.5 c 128,-1,45
 557 203 557 203 578 203 c 0,46,47
 691 203 691 203 743.5 293 c 128,-1,48
 796 383 796 383 796 530 c 2,49,-1
 796 551 l 2,38,39
EndSplineSet
Validated: 1
EndChar

StartChar: thorn
Encoding: 254 254 192
Width: 1162
GlyphClass: 1
Flags: W
LayerCount: 2
Fore
SplineSet
1098 511 m 2,0,1
 1098 271 1098 271 987 125 c 128,-1,2
 876 -21 876 -21 677 -21 c 0,3,4
 592 -21 592 -21 526 10.5 c 128,-1,5
 460 42 460 42 413 103 c 1,6,-1
 413 -416 l 1,7,-1
 122 -416 l 1,8,-1
 122 0 l 1,9,-1
 121 0 l 1,10,-1
 121 1560 l 1,11,-1
 413 1560 l 1,12,-1
 413 969 l 1,13,14
 460 1033 460 1033 525 1067.5 c 128,-1,15
 590 1102 590 1102 675 1102 c 0,16,17
 876 1102 876 1102 987 945 c 128,-1,18
 1098 788 1098 788 1098 532 c 2,19,-1
 1098 511 l 2,0,1
806 532 m 2,20,21
 806 685 806 685 755 780 c 128,-1,22
 704 875 704 875 599 875 c 0,23,24
 533 875 533 875 486.5 848 c 128,-1,25
 440 821 440 821 413 771 c 1,26,-1
 413 297 l 1,27,28
 440 251 440 251 486.5 227 c 128,-1,29
 533 203 533 203 601 203 c 0,30,31
 707 203 707 203 756.5 286 c 128,-1,32
 806 369 806 369 806 511 c 2,33,-1
 806 532 l 2,20,21
EndSplineSet
Validated: 1
EndChar

StartChar: Dcroat
Encoding: 272 272 210
Width: 1355
GlyphClass: 1
Flags: W
LayerCount: 2
Fore
SplineSet
134 0 m 1,0,-1
 134 652 l 1,1,-1
 -2 652 l 1,2,-1
 -2 833 l 1,3,-1
 134 833 l 1,4,-1
 134 1456 l 1,5,-1
 642 1456 l 2,6,7
 909 1456 909 1456 1082 1285.5 c 128,-1,8
 1255 1115 1255 1115 1255 848 c 2,9,-1
 1255 607 l 2,10,11
 1255 339 1255 339 1082 169.5 c 128,-1,12
 909 0 909 0 642 0 c 2,13,-1
 134 0 l 1,0,-1
669 652 m 1,14,-1
 426 652 l 1,15,-1
 426 224 l 1,16,-1
 642 224 l 2,17,18
 786 224 786 224 874 331.5 c 128,-1,19
 962 439 962 439 962 607 c 2,20,-1
 962 850 l 2,21,22
 962 1017 962 1017 874 1124 c 128,-1,23
 786 1231 786 1231 642 1231 c 2,24,-1
 426 1231 l 1,25,-1
 426 833 l 1,26,-1
 669 833 l 1,27,-1
 669 652 l 1,14,-1
EndSplineSet
Validated: 1
Substitution2: "'smcp' Lowercase to Small Capitals lookup 0 subtable" Dcroat.smcp
EndChar

StartChar: dcroat
Encoding: 273 273 211
Width: 1156
GlyphClass: 1
Flags: W
LayerCount: 2
Fore
SplineSet
1186 1220 m 1,0,-1
 1042 1220 l 1,1,-1
 1042 0 l 1,2,-1
 793 0 l 1,3,-1
 768 133 l 1,4,5
 717 58 717 58 647 18.5 c 128,-1,6
 577 -21 577 -21 487 -21 c 0,7,8
 288 -21 288 -21 177.5 125 c 128,-1,9
 67 271 67 271 67 511 c 2,10,-1
 67 532 l 2,11,12
 67 788 67 788 177.5 945 c 128,-1,13
 288 1102 288 1102 489 1102 c 0,14,15
 570 1102 570 1102 635 1067 c 128,-1,16
 700 1032 700 1032 749 967 c 1,17,-1
 749 1220 l 1,18,-1
 515 1220 l 1,19,-1
 515 1401 l 1,20,-1
 749 1401 l 1,21,-1
 749 1560 l 1,22,-1
 1042 1560 l 1,23,-1
 1042 1401 l 1,24,-1
 1186 1401 l 1,25,-1
 1186 1220 l 1,0,-1
358 511 m 2,26,27
 358 369 358 369 406 287.5 c 128,-1,28
 454 206 454 206 562 206 c 0,29,30
 625 206 625 206 672 231.5 c 128,-1,31
 719 257 719 257 749 306 c 1,32,-1
 749 767 l 1,33,34
 719 818 719 818 672.5 846.5 c 128,-1,35
 626 875 626 875 564 875 c 0,36,37
 457 875 457 875 407.5 780 c 128,-1,38
 358 685 358 685 358 532 c 2,39,-1
 358 511 l 2,26,27
EndSplineSet
Validated: 1
Substitution2: "'smcp' Lowercase to Small Capitals lookup 0 subtable" Dcroat.smcp
EndChar

StartChar: Hbar
Encoding: 294 294 232
Width: 1445
GlyphClass: 1
Flags: W
LayerCount: 2
Fore
SplineSet
1319 1199 m 1,0,-1
 1438 1199 l 1,1,-1
 1438 1028 l 1,2,-1
 1319 1028 l 1,3,-1
 1319 0 l 1,4,-1
 1027 0 l 1,5,-1
 1027 605 l 1,6,-1
 434 605 l 1,7,-1
 434 0 l 1,8,-1
 142 0 l 1,9,-1
 142 1028 l 1,10,-1
 16 1028 l 1,11,-1
 16 1199 l 1,12,-1
 142 1199 l 1,13,-1
 142 1456 l 1,14,-1
 434 1456 l 1,15,-1
 434 1199 l 1,16,-1
 1027 1199 l 1,17,-1
 1027 1456 l 1,18,-1
 1319 1456 l 1,19,-1
 1319 1199 l 1,0,-1
434 830 m 1,20,-1
 1027 830 l 1,21,-1
 1027 1028 l 1,22,-1
 434 1028 l 1,23,-1
 434 830 l 1,20,-1
EndSplineSet
Validated: 1
EndChar

StartChar: hbar
Encoding: 295 295 233
Width: 1156
GlyphClass: 1
Flags: W
LayerCount: 2
Fore
SplineSet
658 1217 m 1,0,-1
 397 1217 l 1,1,-1
 397 945 l 1,2,3
 448 1019 448 1019 522 1060.5 c 128,-1,4
 596 1102 596 1102 686 1102 c 0,5,6
 855 1102 855 1102 951.5 989.5 c 128,-1,7
 1048 877 1048 877 1048 642 c 2,8,-1
 1048 0 l 1,9,-1
 756 0 l 1,10,-1
 756 644 l 2,11,12
 756 770 756 770 715.5 822.5 c 128,-1,13
 675 875 675 875 594 875 c 0,14,15
 527 875 527 875 477.5 853.5 c 128,-1,16
 428 832 428 832 397 792 c 1,17,-1
 397 0 l 1,18,-1
 105 0 l 1,19,-1
 105 1217 l 1,20,-1
 -13 1217 l 1,21,-1
 -13 1398 l 1,22,-1
 105 1398 l 1,23,-1
 105 1560 l 1,24,-1
 397 1560 l 1,25,-1
 397 1398 l 1,26,-1
 658 1398 l 1,27,-1
 658 1217 l 1,0,-1
EndSplineSet
Validated: 1
EndChar

StartChar: dotlessi
Encoding: 305 305 243
Width: 562
GlyphClass: 1
Flags: W
LayerCount: 2
Fore
SplineSet
425 0 m 1,0,-1
 133 0 l 1,1,-1
 133 1082 l 1,2,-1
 425 1082 l 1,3,-1
 425 0 l 1,0,-1
EndSplineSet
Validated: 1
EndChar

StartChar: kgreenlandic
Encoding: 312 312 250
Width: 1210
GlyphClass: 1
Flags: W
LayerCount: 2
Fore
SplineSet
537 405 m 1,0,-1
 421 405 l 1,1,-1
 421 0 l 1,2,-1
 129 0 l 1,3,-1
 129 1082 l 1,4,-1
 421 1082 l 1,5,-1
 421 670 l 1,6,-1
 508 670 l 1,7,-1
 787 1082 l 1,8,-1
 1155 1082 l 1,9,-1
 771 575 l 1,10,-1
 1172 0 l 1,11,-1
 798 0 l 1,12,-1
 537 405 l 1,0,-1
EndSplineSet
Validated: 1
EndChar

StartChar: Lslash
Encoding: 321 321 259
Width: 1040
GlyphClass: 1
Flags: W
LayerCount: 2
Fore
SplineSet
419 884 m 1,0,-1
 662 954 l 1,1,-1
 662 759 l 1,2,-1
 419 689 l 1,3,-1
 419 224 l 1,4,-1
 1071 224 l 1,5,-1
 1071 0 l 1,6,-1
 127 0 l 1,7,-1
 127 605 l 1,8,-1
 12 572 l 1,9,-1
 12 767 l 1,10,-1
 127 800 l 1,11,-1
 127 1456 l 1,12,-1
 419 1456 l 1,13,-1
 419 884 l 1,0,-1
EndSplineSet
Validated: 1
EndChar

StartChar: lslash
Encoding: 322 322 260
Width: 594
GlyphClass: 1
Flags: W
LayerCount: 2
Fore
SplineSet
439 907 m 1,0,-1
 580 954 l 1,1,-1
 580 759 l 1,2,-1
 439 712 l 1,3,-1
 439 0 l 1,4,-1
 147 0 l 1,5,-1
 147 615 l 1,6,-1
 15 572 l 1,7,-1
 15 767 l 1,8,-1
 147 810 l 1,9,-1
 147 1560 l 1,10,-1
 439 1560 l 1,11,-1
 439 907 l 1,0,-1
EndSplineSet
Validated: 1
EndChar

StartChar: Eng
Encoding: 330 330 268
Width: 1438
GlyphClass: 1
Flags: W
LayerCount: 2
Fore
SplineSet
1308 1456 m 1,0,-1
 1308 -40 l 2,1,2
 1308 -230 1308 -230 1207 -333.5 c 128,-1,3
 1106 -437 1106 -437 927 -437 c 0,4,5
 886 -437 886 -437 852 -433 c 128,-1,6
 818 -429 818 -429 782 -420 c 1,7,-1
 796 -199 l 1,8,9
 819 -205 819 -205 844 -208.5 c 128,-1,10
 869 -212 869 -212 896 -212 c 0,11,12
 953 -212 953 -212 985 -167 c 128,-1,13
 1017 -122 1017 -122 1017 -40 c 2,14,-1
 1017 0 l 1,15,-1
 430 982 l 1,16,-1
 424 981 l 1,17,-1
 424 0 l 1,18,-1
 131 0 l 1,19,-1
 131 1456 l 1,20,-1
 424 1456 l 1,21,-1
 1011 475 l 1,22,-1
 1017 476 l 1,23,-1
 1017 1456 l 1,24,-1
 1308 1456 l 1,0,-1
EndSplineSet
Validated: 1
EndChar

StartChar: eng
Encoding: 331 331 269
Width: 1156
GlyphClass: 1
Flags: W
LayerCount: 2
Fore
SplineSet
379 1082 m 1,0,-1
 392 930 l 1,1,2
 445 1011 445 1011 524 1056.5 c 128,-1,3
 603 1102 603 1102 700 1102 c 0,4,5
 864 1102 864 1102 956 996.5 c 128,-1,6
 1048 891 1048 891 1048 663 c 2,7,-1
 1048 -40 l 2,8,9
 1048 -230 1048 -230 947 -333.5 c 128,-1,10
 846 -437 846 -437 666 -437 c 0,11,12
 626 -437 626 -437 592 -433 c 128,-1,13
 558 -429 558 -429 522 -420 c 1,14,-1
 536 -196 l 1,15,16
 558 -202 558 -202 583 -205 c 128,-1,17
 608 -208 608 -208 635 -208 c 0,18,19
 693 -208 693 -208 724 -165 c 128,-1,20
 755 -122 755 -122 755 -40 c 2,21,-1
 755 662 l 2,22,23
 755 778 755 778 714.5 826.5 c 128,-1,24
 674 875 674 875 593 875 c 0,25,26
 529 875 529 875 480 851.5 c 128,-1,27
 431 828 431 828 399 786 c 1,28,-1
 399 0 l 1,29,-1
 107 0 l 1,30,-1
 107 1082 l 1,31,-1
 379 1082 l 1,0,-1
EndSplineSet
Validated: 1
EndChar

StartChar: OE
Encoding: 338 338 276
Width: 1984
GlyphClass: 1
Flags: W
LayerCount: 2
Fore
SplineSet
1803 0 m 1,0,-1
 991 0 l 1,1,2
 899 -10 899 -10 834.5 -15.5 c 128,-1,3
 770 -21 770 -21 703 -21 c 0,4,5
 433 -21 433 -21 265 144.5 c 128,-1,6
 97 310 97 310 97 576 c 2,7,-1
 97 880 l 2,8,9
 97 1145 97 1145 264 1311 c 128,-1,10
 431 1477 431 1477 701 1477 c 0,11,12
 770 1477 770 1477 841 1471 c 128,-1,13
 912 1465 912 1465 991 1456 c 1,14,-1
 1801 1456 l 1,15,-1
 1801 1231 l 1,16,-1
 1161 1231 l 1,17,-1
 1161 865 l 1,18,-1
 1701 865 l 1,19,-1
 1701 640 l 1,20,-1
 1161 640 l 1,21,-1
 1161 224 l 1,22,-1
 1803 224 l 1,23,-1
 1803 0 l 1,0,-1
703 204 m 0,24,25
 745 204 745 204 787 206 c 128,-1,26
 829 208 829 208 869 213 c 1,27,-1
 869 1242 l 1,28,29
 825 1246 825 1246 783.5 1249 c 128,-1,30
 742 1252 742 1252 701 1252 c 0,31,32
 553 1252 553 1252 470.5 1157.5 c 128,-1,33
 388 1063 388 1063 388 882 c 2,34,-1
 388 576 l 2,35,36
 388 394 388 394 471.5 299 c 128,-1,37
 555 204 555 204 703 204 c 0,24,25
EndSplineSet
Validated: 1
EndChar

StartChar: oe
Encoding: 339 339 277
Width: 1848
GlyphClass: 1
Flags: W
LayerCount: 2
Fore
SplineSet
1361 -21 m 0,0,1
 1232 -21 1232 -21 1131.5 23 c 128,-1,2
 1031 67 1031 67 965 148 c 1,3,4
 898 67 898 67 800 23 c 128,-1,5
 702 -21 702 -21 578 -21 c 0,6,7
 338 -21 338 -21 202.5 132.5 c 128,-1,8
 67 286 67 286 67 530 c 2,9,-1
 67 551 l 2,10,11
 67 793 67 793 202 947.5 c 128,-1,12
 337 1102 337 1102 576 1102 c 0,13,14
 701 1102 701 1102 800 1057.5 c 128,-1,15
 899 1013 899 1013 966 932 c 1,16,17
 1030 1014 1030 1014 1125.5 1058 c 128,-1,18
 1221 1102 1221 1102 1342 1102 c 0,19,20
 1560 1102 1560 1102 1676.5 968.5 c 128,-1,21
 1793 835 1793 835 1793 609 c 2,22,-1
 1793 458 l 1,23,-1
 1148 458 l 1,24,-1
 1145 452 l 1,25,26
 1152 341 1152 341 1212.5 272 c 128,-1,27
 1273 203 1273 203 1392 203 c 0,28,29
 1490 203 1490 203 1558.5 223 c 128,-1,30
 1627 243 1627 243 1700 284 c 1,31,-1
 1779 104 l 1,32,33
 1714 51 1714 51 1603 15 c 128,-1,34
 1492 -21 1492 -21 1361 -21 c 0,0,1
358 530 m 2,35,36
 358 382 358 382 410 292.5 c 128,-1,37
 462 203 462 203 578 203 c 0,38,39
 691 203 691 203 743.5 293 c 128,-1,40
 796 383 796 383 796 530 c 2,41,-1
 796 551 l 2,42,43
 796 695 796 695 743 786 c 128,-1,44
 690 877 690 877 576 877 c 0,45,46
 463 877 463 877 410.5 785.5 c 128,-1,47
 358 694 358 694 358 551 c 2,48,-1
 358 530 l 2,35,36
1342 877 m 0,49,50
 1254 877 1254 877 1206.5 816.5 c 128,-1,51
 1159 756 1159 756 1149 656 c 1,52,-1
 1151 651 l 1,53,-1
 1507 651 l 1,54,-1
 1507 673 l 2,55,56
 1507 768 1507 768 1468 822.5 c 128,-1,57
 1429 877 1429 877 1342 877 c 0,49,50
EndSplineSet
Validated: 1
EndChar

StartChar: Tbar
Encoding: 358 358 296
Width: 1175
GlyphClass: 1
Flags: W
LayerCount: 2
Fore
SplineSet
930 757 m 1,0,-1
 733 757 l 1,1,-1
 733 0 l 1,2,-1
 441 0 l 1,3,-1
 441 757 l 1,4,-1
 259 757 l 1,5,-1
 259 938 l 1,6,-1
 441 938 l 1,7,-1
 441 1231 l 1,8,-1
 31 1231 l 1,9,-1
 31 1456 l 1,10,-1
 1149 1456 l 1,11,-1
 1149 1231 l 1,12,-1
 733 1231 l 1,13,-1
 733 938 l 1,14,-1
 930 938 l 1,15,-1
 930 757 l 1,0,-1
EndSplineSet
Validated: 1
Substitution2: "'smcp' Lowercase to Small Capitals lookup 0 subtable" Tbar.smcp
EndChar

StartChar: tbar
Encoding: 359 359 297
Width: 713
GlyphClass: 1
Flags: W
LayerCount: 2
Fore
SplineSet
462 1347 m 1,0,-1
 462 1082 l 1,1,-1
 645 1082 l 1,2,-1
 645 877 l 1,3,-1
 462 877 l 1,4,-1
 462 720 l 1,5,-1
 661 720 l 1,6,-1
 661 539 l 1,7,-1
 462 539 l 1,8,-1
 462 326 l 2,9,10
 462 263 462 263 488.5 236 c 128,-1,11
 515 209 515 209 558 209 c 0,12,13
 581 209 581 209 598 211.5 c 128,-1,14
 615 214 615 214 637 220 c 1,15,-1
 661 9 l 1,16,17
 617 -6 617 -6 575.5 -13.5 c 128,-1,18
 534 -21 534 -21 485 -21 c 0,19,20
 334 -21 334 -21 252.5 62 c 128,-1,21
 171 145 171 145 171 325 c 2,22,-1
 171 539 l 1,23,-1
 -10 539 l 1,24,-1
 -10 720 l 1,25,-1
 171 720 l 1,26,-1
 171 877 l 1,27,-1
 13 877 l 1,28,-1
 13 1082 l 1,29,-1
 171 1082 l 1,30,-1
 171 1347 l 1,31,-1
 462 1347 l 1,0,-1
EndSplineSet
Validated: 1
Substitution2: "'smcp' Lowercase to Small Capitals lookup 0 subtable" Tbar.smcp
EndChar

StartChar: longs
Encoding: 383 383 321
Width: 532
GlyphClass: 1
Flags: W
LayerCount: 2
Fore
SplineSet
116 0 m 1,0,-1
 116 1202 l 2,1,2
 116 1384 116 1384 221 1482.5 c 128,-1,3
 326 1581 326 1581 516 1581 c 0,4,5
 553 1581 553 1581 590.5 1575.5 c 128,-1,6
 628 1570 628 1570 676 1560 c 1,7,-1
 651 1345 l 1,8,9
 625 1350 625 1350 604 1353 c 128,-1,10
 583 1356 583 1356 554 1356 c 0,11,12
 483 1356 483 1356 445 1315.5 c 128,-1,13
 407 1275 407 1275 407 1202 c 2,14,-1
 407 0 l 1,15,-1
 116 0 l 1,0,-1
EndSplineSet
Validated: 1
EndChar

StartChar: florin
Encoding: 402 402 322
Width: 740
GlyphClass: 1
Flags: W
LayerCount: 2
Fore
SplineSet
683 877 m 1,0,-1
 476 877 l 1,1,-1
 475 -40 l 2,2,3
 475 -230 475 -230 374 -333.5 c 128,-1,4
 273 -437 273 -437 93 -437 c 0,5,6
 53 -437 53 -437 20 -433 c 128,-1,7
 -13 -429 -13 -429 -50 -420 c 1,8,-1
 -35 -199 l 1,9,10
 -12 -205 -12 -205 12 -208.5 c 128,-1,11
 36 -212 36 -212 63 -212 c 0,12,13
 120 -212 120 -212 151.5 -167 c 128,-1,14
 183 -122 183 -122 183 -40 c 2,15,-1
 183 877 l 1,16,-1
 23 877 l 1,17,-1
 23 1082 l 1,18,-1
 183 1082 l 1,19,-1
 183 1202 l 2,20,21
 183 1384 183 1384 288 1482.5 c 128,-1,22
 393 1581 393 1581 584 1581 c 0,23,24
 621 1581 621 1581 658.5 1575.5 c 128,-1,25
 696 1570 696 1570 744 1560 c 1,26,-1
 719 1343 l 1,27,28
 696 1347 696 1347 672.5 1350 c 128,-1,29
 649 1353 649 1353 620 1353 c 0,30,31
 549 1353 549 1353 512.5 1314 c 128,-1,32
 476 1275 476 1275 476 1202 c 2,33,-1
 476 1082 l 1,34,-1
 683 1082 l 1,35,-1
 683 877 l 1,0,-1
EndSplineSet
Validated: 1
EndChar

StartChar: Ohorn
Encoding: 416 416 323
Width: 1435
GlyphClass: 1
Flags: W
LayerCount: 2
Fore
SplineSet
1307 597 m 2,0,1
 1307 328 1307 328 1138 153.5 c 128,-1,2
 969 -21 969 -21 698 -21 c 0,3,4
 428 -21 428 -21 260 154 c 128,-1,5
 92 329 92 329 92 597 c 2,6,-1
 92 859 l 2,7,8
 92 1126 92 1126 259.5 1301.5 c 128,-1,9
 427 1477 427 1477 696 1477 c 0,10,11
 829 1477 829 1477 942.5 1430.5 c 128,-1,12
 1056 1384 1056 1384 1138 1300 c 1,13,14
 1240 1328 1240 1328 1293 1409.5 c 128,-1,15
 1346 1491 1346 1491 1346 1617 c 1,16,-1
 1562 1617 l 1,17,18
 1562 1426 1562 1426 1483 1299.5 c 128,-1,19
 1404 1173 1404 1173 1256 1121 c 1,20,21
 1281 1061 1281 1061 1294 995 c 128,-1,22
 1307 929 1307 929 1307 859 c 2,23,-1
 1307 597 l 2,0,1
1016 861 m 2,24,25
 1016 1031 1016 1031 931 1140 c 128,-1,26
 846 1249 846 1249 696 1249 c 0,27,28
 548 1249 548 1249 465.5 1140 c 128,-1,29
 383 1031 383 1031 383 861 c 2,30,-1
 383 597 l 2,31,32
 383 424 383 424 466 315 c 128,-1,33
 549 206 549 206 698 206 c 0,34,35
 848 206 848 206 932 315 c 128,-1,36
 1016 424 1016 424 1016 597 c 2,37,-1
 1016 861 l 2,24,25
EndSplineSet
Validated: 1
EndChar

StartChar: ohorn
Encoding: 417 417 324
Width: 1191
GlyphClass: 1
Flags: W
LayerCount: 2
Fore
SplineSet
67 551 m 2,0,1
 67 793 67 793 202 947.5 c 128,-1,2
 337 1102 337 1102 576 1102 c 0,3,4
 688 1102 688 1102 779 1065.5 c 128,-1,5
 870 1029 870 1029 937 963 c 1,6,7
 993 998 993 998 1022 1066.5 c 128,-1,8
 1051 1135 1051 1135 1051 1231 c 1,9,-1
 1262 1231 l 1,10,11
 1262 1085 1262 1085 1202 983.5 c 128,-1,12
 1142 882 1142 882 1028 833 c 1,13,14
 1057 771 1057 771 1072.5 699.5 c 128,-1,15
 1088 628 1088 628 1088 551 c 2,16,-1
 1088 530 l 2,17,18
 1088 286 1088 286 952.5 132.5 c 128,-1,19
 817 -21 817 -21 578 -21 c 0,20,21
 338 -21 338 -21 202.5 132.5 c 128,-1,22
 67 286 67 286 67 530 c 2,23,-1
 67 551 l 2,0,1
358 530 m 2,24,25
 358 382 358 382 410 292.5 c 128,-1,26
 462 203 462 203 578 203 c 0,27,28
 691 203 691 203 743.5 293 c 128,-1,29
 796 383 796 383 796 530 c 2,30,-1
 796 551 l 2,31,32
 796 695 796 695 743 786 c 128,-1,33
 690 877 690 877 576 877 c 0,34,35
 463 877 463 877 410.5 785.5 c 128,-1,36
 358 694 358 694 358 551 c 2,37,-1
 358 530 l 2,24,25
EndSplineSet
Validated: 1
EndChar

StartChar: Uhorn
Encoding: 431 431 325
Width: 1460
GlyphClass: 1
Flags: W
LayerCount: 2
Fore
SplineSet
1288 1456 m 1,0,-1
 1288 1275 l 1,1,-1
 1294 1274 l 1,2,3
 1377 1294 1377 1294 1413 1378 c 128,-1,4
 1449 1462 1449 1462 1449 1607 c 1,5,-1
 1664 1607 l 1,6,7
 1664 1376 1664 1376 1572.5 1243 c 128,-1,8
 1481 1110 1481 1110 1288 1082 c 1,9,-1
 1288 503 l 2,10,11
 1288 257 1288 257 1125 118 c 128,-1,12
 962 -21 962 -21 702 -21 c 0,13,14
 443 -21 443 -21 281.5 118 c 128,-1,15
 120 257 120 257 120 503 c 2,16,-1
 120 1456 l 1,17,-1
 413 1456 l 1,18,-1
 413 503 l 2,19,20
 413 357 413 357 491 280 c 128,-1,21
 569 203 569 203 702 203 c 0,22,23
 837 203 837 203 916 280 c 128,-1,24
 995 357 995 357 995 503 c 2,25,-1
 995 1456 l 1,26,-1
 1288 1456 l 1,0,-1
EndSplineSet
Validated: 1
EndChar

StartChar: uhorn
Encoding: 432 432 326
Width: 1166
GlyphClass: 1
Flags: W
LayerCount: 2
Fore
SplineSet
1394 1196 m 1,0,-1
 1396 1191 l 1,1,2
 1399 1015 1399 1015 1314.5 916.5 c 128,-1,3
 1230 818 1230 818 1048 796 c 1,4,-1
 1048 0 l 1,5,-1
 806 0 l 1,6,-1
 775 160 l 1,7,8
 725 73 725 73 648 26 c 128,-1,9
 571 -21 571 -21 469 -21 c 0,10,11
 298 -21 298 -21 201.5 95 c 128,-1,12
 105 211 105 211 105 455 c 2,13,-1
 105 1082 l 1,14,-1
 396 1082 l 1,15,-1
 396 453 l 2,16,17
 396 311 396 311 434.5 258.5 c 128,-1,18
 473 206 473 206 554 206 c 0,19,20
 624 206 624 206 674 228.5 c 128,-1,21
 724 251 724 251 756 295 c 1,22,-1
 756 1082 l 1,23,-1
 1048 1082 l 1,24,-1
 1048 958 l 1,25,-1
 1054 956 l 1,26,27
 1136 969 1136 969 1171.5 1027.5 c 128,-1,28
 1207 1086 1207 1086 1207 1196 c 1,29,-1
 1394 1196 l 1,0,-1
EndSplineSet
Validated: 33
EndChar

StartChar: uni0237
Encoding: 567 567 336
Width: 578
GlyphClass: 1
Flags: W
LayerCount: 2
Fore
SplineSet
441 1082 m 1,0,-1
 441 -40 l 2,1,2
 441 -230 441 -230 340 -333.5 c 128,-1,3
 239 -437 239 -437 60 -437 c 0,4,5
 19 -437 19 -437 -13.5 -433 c 128,-1,6
 -46 -429 -46 -429 -84 -420 c 1,7,-1
 -69 -199 l 1,8,9
 -46 -205 -46 -205 -21.5 -208.5 c 128,-1,10
 3 -212 3 -212 29 -212 c 0,11,12
 86 -212 86 -212 118 -167 c 128,-1,13
 150 -122 150 -122 150 -40 c 2,14,-1
 150 1082 l 1,15,-1
 441 1082 l 1,0,-1
EndSplineSet
Validated: 1
EndChar

StartChar: circumflex
Encoding: 710 710 338
Width: 1016
GlyphClass: 1
Flags: W
LayerCount: 2
Fore
SplineSet
875 1275 m 1,0,-1
 875 1252 l 1,1,-1
 643 1252 l 1,2,-1
 503 1385 l 1,3,-1
 364 1252 l 1,4,-1
 137 1252 l 1,5,-1
 137 1278 l 1,6,-1
 419 1518 l 1,7,-1
 588 1518 l 1,8,-1
 875 1275 l 1,0,-1
EndSplineSet
Validated: 1
EndChar

StartChar: caron
Encoding: 711 711 339
Width: 965
GlyphClass: 1
Flags: W
LayerCount: 2
Fore
SplineSet
479 1397 m 1,0,-1
 596 1524 l 1,1,-1
 860 1524 l 1,2,-1
 860 1507 l 1,3,-1
 579 1252 l 1,4,-1
 380 1252 l 1,5,-1
 99 1508 l 1,6,-1
 99 1524 l 1,7,-1
 363 1524 l 1,8,-1
 479 1397 l 1,0,-1
EndSplineSet
Validated: 1
EndChar

StartChar: breve
Encoding: 728 728 340
Width: 910
GlyphClass: 1
Flags: W
LayerCount: 2
Fore
SplineSet
791 1456 m 1,0,-1
 793 1450 l 1,1,2
 798 1323 798 1323 704.5 1242.5 c 128,-1,3
 611 1162 611 1162 453 1162 c 0,4,5
 294 1162 294 1162 200 1242.5 c 128,-1,6
 106 1323 106 1323 112 1450 c 1,7,-1
 114 1456 l 1,8,-1
 327 1456 l 1,9,10
 327 1403 327 1403 357.5 1369 c 128,-1,11
 388 1335 388 1335 453 1335 c 0,12,13
 516 1335 516 1335 546.5 1369 c 128,-1,14
 577 1403 577 1403 577 1456 c 1,15,-1
 791 1456 l 1,0,-1
EndSplineSet
Validated: 33
EndChar

StartChar: dotaccent
Encoding: 729 729 341
Width: 629
GlyphClass: 1
Flags: W
LayerCount: 2
Fore
SplineSet
465 1227 m 1,0,-1
 138 1227 l 1,1,-1
 138 1468 l 1,2,-1
 465 1468 l 1,3,-1
 465 1227 l 1,0,-1
EndSplineSet
Validated: 1
EndChar

StartChar: ring
Encoding: 730 730 342
Width: 682
GlyphClass: 1
Flags: W
LayerCount: 2
Fore
SplineSet
154 1305 m 0,0,1
 154 1378 154 1378 208 1427.5 c 128,-1,2
 262 1477 262 1477 342 1477 c 0,3,4
 420 1477 420 1477 473.5 1427.5 c 128,-1,5
 527 1378 527 1378 527 1305 c 0,6,7
 527 1231 527 1231 473.5 1183.5 c 128,-1,8
 420 1136 420 1136 342 1136 c 0,9,10
 262 1136 262 1136 208 1183.5 c 128,-1,11
 154 1231 154 1231 154 1305 c 0,0,1
270 1305 m 0,12,13
 270 1274 270 1274 290.5 1253.5 c 128,-1,14
 311 1233 311 1233 342 1233 c 0,15,16
 372 1233 372 1233 391.5 1253 c 128,-1,17
 411 1273 411 1273 411 1305 c 256,18,19
 411 1337 411 1337 391.5 1357.5 c 128,-1,20
 372 1378 372 1378 342 1378 c 0,21,22
 311 1378 311 1378 290.5 1357.5 c 128,-1,23
 270 1337 270 1337 270 1305 c 0,12,13
EndSplineSet
Validated: 1
EndChar

StartChar: ogonek
Encoding: 731 731 343
Width: 618
GlyphClass: 1
Flags: W
LayerCount: 2
Fore
SplineSet
405 0 m 1,0,1
 351 -53 351 -53 326 -90 c 128,-1,2
 301 -127 301 -127 301 -176 c 0,3,4
 301 -203 301 -203 318 -224.5 c 128,-1,5
 335 -246 335 -246 387 -246 c 0,6,7
 415 -246 415 -246 436.5 -240 c 128,-1,8
 458 -234 458 -234 481 -226 c 1,9,-1
 516 -380 l 1,10,11
 480 -399 480 -399 435.5 -411.5 c 128,-1,12
 391 -424 391 -424 330 -424 c 0,13,14
 222 -424 222 -424 152.5 -367.5 c 128,-1,15
 83 -311 83 -311 83 -210 c 0,16,17
 83 -133 83 -133 129 -63.5 c 128,-1,18
 175 6 175 6 273 60 c 1,19,-1
 405 0 l 1,0,1
EndSplineSet
Validated: 1
EndChar

StartChar: tilde
Encoding: 732 732 344
Width: 986
GlyphClass: 1
Flags: W
LayerCount: 2
Fore
SplineSet
868 1484 m 1,0,1
 868 1388 868 1388 808.5 1320.5 c 128,-1,2
 749 1253 749 1253 658 1253 c 0,3,4
 588 1253 588 1253 499.5 1296.5 c 128,-1,5
 411 1340 411 1340 359 1340 c 0,6,7
 323 1340 323 1340 299 1307.5 c 128,-1,8
 275 1275 275 1275 275 1230 c 1,9,-1
 119 1272 l 1,10,11
 119 1366 119 1366 178.5 1435.5 c 128,-1,12
 238 1505 238 1505 328 1505 c 0,13,14
 384 1505 384 1505 480 1461.5 c 128,-1,15
 576 1418 576 1418 628 1418 c 0,16,17
 662 1418 662 1418 688 1450 c 128,-1,18
 714 1482 714 1482 714 1529 c 1,19,-1
 868 1484 l 1,0,1
EndSplineSet
Validated: 1
EndChar

StartChar: hungarumlaut
Encoding: 733 733 345
Width: 876
GlyphClass: 1
Flags: W
LayerCount: 2
Fore
SplineSet
727 1518 m 1,0,-1
 1006 1518 l 1,1,-1
 1008 1512 l 1,2,-1
 723 1252 l 1,3,-1
 489 1252 l 1,4,-1
 487 1257 l 1,5,-1
 727 1518 l 1,0,-1
339 1518 m 1,6,-1
 614 1518 l 1,7,-1
 616 1513 l 1,8,-1
 376 1252 l 1,9,-1
 141 1252 l 1,10,-1
 339 1518 l 1,6,-1
EndSplineSet
Validated: 1
EndChar

StartChar: uni02F3
Encoding: 755 755 346
Width: 664
GlyphClass: 1
Flags: W
LayerCount: 2
Fore
SplineSet
158 -228 m 0,0,1
 158 -157 158 -157 211 -110 c 128,-1,2
 264 -63 264 -63 342 -63 c 0,3,4
 418 -63 418 -63 470 -110 c 128,-1,5
 522 -157 522 -157 522 -228 c 0,6,7
 522 -298 522 -298 470 -344 c 128,-1,8
 418 -390 418 -390 342 -390 c 0,9,10
 263 -390 263 -390 210.5 -344 c 128,-1,11
 158 -298 158 -298 158 -228 c 0,0,1
272 -228 m 0,12,13
 272 -257 272 -257 291.5 -276.5 c 128,-1,14
 311 -296 311 -296 342 -296 c 0,15,16
 371 -296 371 -296 389.5 -277 c 128,-1,17
 408 -258 408 -258 408 -228 c 0,18,19
 408 -196 408 -196 389.5 -176.5 c 128,-1,20
 371 -157 371 -157 342 -157 c 0,21,22
 311 -157 311 -157 291.5 -176.5 c 128,-1,23
 272 -196 272 -196 272 -228 c 0,12,13
EndSplineSet
Validated: 1
EndChar

StartChar: hook
Encoding: 777 777 350
Width: 0
GlyphClass: 1
Flags: W
LayerCount: 2
Fore
SplineSet
-719 1264 m 1,0,-1
 -735 1401 l 1,1,2
 -661 1404 -661 1404 -629.5 1419 c 128,-1,3
 -598 1434 -598 1434 -603 1464 c 1,4,-1
 -603 1470 l 1,5,6
 -598 1505 -598 1505 -635 1520.5 c 128,-1,7
 -672 1536 -672 1536 -739 1536 c 1,8,-1
 -732 1669 l 1,9,10
 -547 1669 -547 1669 -449 1617 c 128,-1,11
 -351 1565 -351 1565 -351 1474 c 0,12,13
 -351 1410 -351 1410 -394 1374 c 128,-1,14
 -437 1338 -437 1338 -501 1329 c 1,15,-1
 -501 1264 l 1,16,-1
 -719 1264 l 1,0,-1
EndSplineSet
Validated: 1
EndChar

StartChar: uni030F
Encoding: 783 783 351
Width: 0
GlyphClass: 1
Flags: W
LayerCount: 2
Fore
SplineSet
-515 1257 m 1,0,-1
 -517 1252 l 1,1,-1
 -750 1252 l 1,2,-1
 -1035 1512 l 1,3,-1
 -1033 1518 l 1,4,-1
 -755 1518 l 1,5,-1
 -515 1257 l 1,0,-1
-168 1252 m 1,6,-1
 -404 1252 l 1,7,-1
 -644 1513 l 1,8,-1
 -642 1518 l 1,9,-1
 -367 1518 l 1,10,-1
 -168 1252 l 1,6,-1
EndSplineSet
Validated: 1
EndChar

StartChar: dotbelow
Encoding: 803 803 352
Width: 0
GlyphClass: 1
Flags: W
LayerCount: 2
Fore
SplineSet
-435 -354 m 1,0,-1
 -762 -354 l 1,1,-1
 -762 -113 l 1,2,-1
 -435 -113 l 1,3,-1
 -435 -354 l 1,0,-1
EndSplineSet
Validated: 1
EndChar

StartChar: tonos
Encoding: 900 900 353
Width: 695
GlyphClass: 1
Flags: W
LayerCount: 2
Fore
SplineSet
302 1553 m 1,0,-1
 580 1553 l 1,1,-1
 383 1270 l 1,2,-1
 241 1270 l 1,3,-1
 302 1553 l 1,0,-1
EndSplineSet
Validated: 1
EndChar

StartChar: dieresistonos
Encoding: 901 901 354
Width: 1125
GlyphClass: 1
Flags: W
LayerCount: 2
Fore
SplineSet
955 1252 m 1,0,-1
 701 1252 l 1,1,-1
 701 1456 l 1,2,-1
 955 1456 l 1,3,-1
 955 1252 l 1,0,-1
406 1252 m 1,4,-1
 153 1252 l 1,5,-1
 153 1456 l 1,6,-1
 406 1456 l 1,7,-1
 406 1252 l 1,4,-1
520 1757 m 1,8,-1
 802 1757 l 1,9,-1
 626 1478 l 1,10,-1
 478 1478 l 1,11,-1
 520 1757 l 1,8,-1
EndSplineSet
Validated: 1
EndChar

StartChar: Gamma
Encoding: 915 915 366
Width: 1137
GlyphClass: 1
Flags: W
LayerCount: 2
Fore
SplineSet
1081 1231 m 1,0,-1
 424 1231 l 1,1,-1
 424 0 l 1,2,-1
 132 0 l 1,3,-1
 132 1456 l 1,4,-1
 1081 1456 l 1,5,-1
 1081 1231 l 1,0,-1
EndSplineSet
Validated: 1
EndChar

StartChar: Delta
Encoding: 916 916 367
AltUni2: 002206.ffffffff.0 002206.ffffffff.0
Width: 1494
GlyphClass: 1
Flags: W
LayerCount: 2
Fore
SplineSet
605 1456 m 1,0,-1
 905 1456 l 1,1,-1
 1477 0 l 1,2,-1
 22 0 l 1,3,-1
 605 1456 l 1,0,-1
412 224 m 1,4,-1
 1088 224 l 1,5,-1
 757 1109 l 1,6,-1
 751 1109 l 1,7,-1
 412 224 l 1,4,-1
EndSplineSet
Validated: 1
EndChar

StartChar: Theta
Encoding: 920 920 371
Width: 1410
GlyphClass: 1
Flags: W
LayerCount: 2
Fore
SplineSet
900 613 m 1,0,-1
 520 613 l 1,1,-1
 520 837 l 1,2,-1
 900 837 l 1,3,-1
 900 613 l 1,0,-1
1312 597 m 2,4,5
 1312 328 1312 328 1143 153.5 c 128,-1,6
 974 -21 974 -21 703 -21 c 0,7,8
 433 -21 433 -21 265 154 c 128,-1,9
 97 329 97 329 97 597 c 2,10,-1
 97 859 l 2,11,12
 97 1126 97 1126 264.5 1301.5 c 128,-1,13
 432 1477 432 1477 701 1477 c 0,14,15
 972 1477 972 1477 1142 1301.5 c 128,-1,16
 1312 1126 1312 1126 1312 859 c 2,17,-1
 1312 597 l 2,4,5
1021 861 m 2,18,19
 1021 1031 1021 1031 936 1140 c 128,-1,20
 851 1249 851 1249 701 1249 c 0,21,22
 553 1249 553 1249 470.5 1140 c 128,-1,23
 388 1031 388 1031 388 861 c 2,24,-1
 388 597 l 2,25,26
 388 424 388 424 471 315 c 128,-1,27
 554 206 554 206 703 206 c 0,28,29
 853 206 853 206 937 315 c 128,-1,30
 1021 424 1021 424 1021 597 c 2,31,-1
 1021 861 l 2,18,19
EndSplineSet
Validated: 1
EndChar

StartChar: Lambda
Encoding: 923 923 374
Width: 1328
GlyphClass: 1
Flags: W
LayerCount: 2
Fore
SplineSet
666 1136 m 1,0,-1
 660 1136 l 1,1,-1
 325 0 l 1,2,-1
 19 0 l 1,3,-1
 513 1456 l 1,4,-1
 812 1456 l 1,5,-1
 1306 0 l 1,6,-1
 1001 0 l 1,7,-1
 666 1136 l 1,0,-1
EndSplineSet
Validated: 1
EndChar

StartChar: Xi
Encoding: 926 926 377
Width: 1163
GlyphClass: 1
Flags: W
LayerCount: 2
Fore
SplineSet
98 224 m 1,0,-1
 1079 224 l 1,1,-1
 1079 0 l 1,2,-1
 98 0 l 1,3,-1
 98 224 l 1,0,-1
210 849 m 1,4,-1
 966 849 l 1,5,-1
 966 632 l 1,6,-1
 210 632 l 1,7,-1
 210 849 l 1,4,-1
120 1456 m 1,8,-1
 1038 1456 l 1,9,-1
 1038 1231 l 1,10,-1
 120 1231 l 1,11,-1
 120 1456 l 1,8,-1
EndSplineSet
Validated: 1
EndChar

StartChar: Pi
Encoding: 928 928 379
Width: 1444
GlyphClass: 1
Flags: W
LayerCount: 2
Fore
SplineSet
1311 0 m 1,0,-1
 1019 0 l 1,1,-1
 1019 1231 l 1,2,-1
 425 1231 l 1,3,-1
 425 0 l 1,4,-1
 133 0 l 1,5,-1
 133 1456 l 1,6,-1
 1311 1456 l 1,7,-1
 1311 0 l 1,0,-1
EndSplineSet
Validated: 1
EndChar

StartChar: Sigma
Encoding: 931 931 381
Width: 1163
GlyphClass: 1
Flags: W
LayerCount: 2
Fore
SplineSet
824 724 m 1,0,-1
 460 225 l 1,1,-1
 1105 225 l 1,2,-1
 1105 0 l 1,3,-1
 72 0 l 1,4,-1
 72 152 l 1,5,-1
 515 733 l 1,6,-1
 72 1305 l 1,7,-1
 72 1456 l 1,8,-1
 1078 1456 l 1,9,-1
 1078 1231 l 1,10,-1
 462 1231 l 1,11,-1
 824 741 l 1,12,-1
 824 724 l 1,0,-1
EndSplineSet
Validated: 1
EndChar

StartChar: Phi
Encoding: 934 934 384
Width: 1507
GlyphClass: 1
Flags: W
LayerCount: 2
Fore
SplineSet
909 1255 m 1,0,1
 1157 1239 1157 1239 1310.5 1094 c 128,-1,2
 1464 949 1464 949 1464 720 c 0,3,4
 1464 495 1464 495 1310 352.5 c 128,-1,5
 1156 210 1156 210 909 195 c 1,6,-1
 909 0 l 1,7,-1
 617 0 l 1,8,-1
 617 195 l 1,9,10
 367 208 367 208 213 350 c 128,-1,11
 59 492 59 492 59 718 c 0,12,13
 59 949 59 949 213 1095 c 128,-1,14
 367 1241 367 1241 617 1255 c 1,15,-1
 617 1456 l 1,16,-1
 909 1456 l 1,17,-1
 909 1255 l 1,0,1
345 718 m 0,18,19
 345 593 345 593 416.5 520 c 128,-1,20
 488 447 488 447 611 441 c 1,21,-1
 617 443 l 1,22,-1
 617 1007 l 1,23,-1
 611 1009 l 1,24,25
 488 1001 488 1001 416.5 925 c 128,-1,26
 345 849 345 849 345 718 c 0,18,19
1177 720 m 0,27,28
 1177 849 1177 849 1106.5 924.5 c 128,-1,29
 1036 1000 1036 1000 915 1009 c 1,30,-1
 909 1007 l 1,31,-1
 909 443 l 1,32,-1
 915 441 l 1,33,34
 1036 449 1036 449 1106.5 522 c 128,-1,35
 1177 595 1177 595 1177 720 c 0,27,28
EndSplineSet
Validated: 1
EndChar

StartChar: Psi
Encoding: 936 936 386
Width: 1483
GlyphClass: 1
Flags: W
LayerCount: 2
Fore
SplineSet
888 581 m 1,0,-1
 894 580 l 1,1,2
 1009 595 1009 595 1069 686 c 128,-1,3
 1129 777 1129 777 1129 939 c 2,4,-1
 1129 1456 l 1,5,-1
 1422 1456 l 1,6,-1
 1422 939 l 2,7,8
 1422 679 1422 679 1278 524 c 128,-1,9
 1134 369 1134 369 888 343 c 1,10,-1
 888 0 l 1,11,-1
 597 0 l 1,12,-1
 597 342 l 1,13,14
 346 363 346 363 201 518.5 c 128,-1,15
 56 674 56 674 56 939 c 2,16,-1
 56 1456 l 1,17,-1
 347 1456 l 1,18,-1
 347 939 l 2,19,20
 347 781 347 781 411 689.5 c 128,-1,21
 475 598 475 598 591 580 c 1,22,-1
 597 582 l 1,23,-1
 597 1456 l 1,24,-1
 888 1456 l 1,25,-1
 888 581 l 1,0,-1
EndSplineSet
Validated: 1
EndChar

StartChar: Omega
Encoding: 937 937 387
AltUni2: 002126.ffffffff.0 002126.ffffffff.0
Width: 1376
GlyphClass: 1
Flags: W
LayerCount: 2
Fore
SplineSet
735 231 m 1,0,1
 827 264 827 264 880 395.5 c 128,-1,2
 933 527 933 527 933 764 c 2,3,-1
 933 858 l 2,4,5
 933 1049 933 1049 865.5 1149 c 128,-1,6
 798 1249 798 1249 678 1249 c 0,7,8
 559 1249 559 1249 492.5 1148.5 c 128,-1,9
 426 1048 426 1048 426 858 c 2,10,-1
 426 764 l 2,11,12
 426 525 426 525 479.5 394.5 c 128,-1,13
 533 264 533 264 630 231 c 1,14,-1
 630 0 l 1,15,-1
 126 0 l 1,16,-1
 126 227 l 1,17,-1
 377 227 l 1,18,19
 254 317 254 317 179 459.5 c 128,-1,20
 104 602 104 602 104 764 c 2,21,-1
 104 856 l 2,22,23
 104 1129 104 1129 263.5 1303 c 128,-1,24
 423 1477 423 1477 678 1477 c 256,25,26
 933 1477 933 1477 1094 1303 c 128,-1,27
 1255 1129 1255 1129 1255 856 c 2,28,-1
 1255 764 l 2,29,30
 1255 602 1255 602 1179.5 459.5 c 128,-1,31
 1104 317 1104 317 983 227 c 1,32,-1
 1240 227 l 1,33,-1
 1240 0 l 1,34,-1
 735 0 l 1,35,-1
 735 231 l 1,0,1
EndSplineSet
Validated: 1
EndChar

StartChar: alpha
Encoding: 945 945 395
Width: 1154
GlyphClass: 1
Flags: W
LayerCount: 2
Fore
SplineSet
1029 1081 m 1,0,-1
 1029 325 l 2,1,2
 1029 261 1029 261 1046.5 235.5 c 128,-1,3
 1064 210 1064 210 1100 210 c 0,4,5
 1113 210 1113 210 1122 211.5 c 128,-1,6
 1131 213 1131 213 1141 217 c 1,7,-1
 1166 7 l 1,8,9
 1131 -9 1131 -9 1099 -15 c 128,-1,10
 1067 -21 1067 -21 1025 -21 c 0,11,12
 932 -21 932 -21 867.5 17 c 128,-1,13
 803 55 803 55 770 133 c 1,14,15
 721 58 721 58 653 18.5 c 128,-1,16
 585 -21 585 -21 494 -21 c 0,17,18
 294 -21 294 -21 183.5 125 c 128,-1,19
 73 271 73 271 73 511 c 2,20,-1
 73 532 l 2,21,22
 73 788 73 788 184 945 c 128,-1,23
 295 1102 295 1102 496 1102 c 0,24,25
 583 1102 583 1102 649.5 1062 c 128,-1,26
 716 1022 716 1022 765 948 c 1,27,-1
 811 1081 l 1,28,-1
 1029 1081 l 1,0,-1
365 511 m 2,29,30
 365 368 365 368 412.5 285.5 c 128,-1,31
 460 203 460 203 568 203 c 0,32,33
 627 203 627 203 669 225.5 c 128,-1,34
 711 248 711 248 738 292 c 1,35,36
 737 299 737 299 737 306.5 c 128,-1,37
 737 314 737 314 737 325 c 2,38,-1
 737 783 l 1,39,40
 709 828 709 828 668 852.5 c 128,-1,41
 627 877 627 877 570 877 c 0,42,43
 463 877 463 877 414 781.5 c 128,-1,44
 365 686 365 686 365 532 c 2,45,-1
 365 511 l 2,29,30
EndSplineSet
Validated: 1
EndChar

StartChar: beta
Encoding: 946 946 396
Width: 1233
GlyphClass: 1
Flags: W
LayerCount: 2
Fore
SplineSet
627 1477 m 0,0,1
 842 1477 842 1477 969.5 1372 c 128,-1,2
 1097 1267 1097 1267 1097 1082 c 0,3,4
 1097 984 1097 984 1046 902.5 c 128,-1,5
 995 821 995 821 906 773 c 1,6,7
 1027 730 1027 730 1093.5 637 c 128,-1,8
 1160 544 1160 544 1160 415 c 0,9,10
 1160 208 1160 208 1040.5 93.5 c 128,-1,11
 921 -21 921 -21 714 -21 c 0,12,13
 640 -21 640 -21 567 -2 c 128,-1,14
 494 17 494 17 433 55 c 1,15,-1
 433 -403 l 1,16,-1
 142 -403 l 1,17,-1
 142 1037 l 2,18,19
 142 1230 142 1230 282.5 1353.5 c 128,-1,20
 423 1477 423 1477 627 1477 c 0,0,1
623 859 m 2,21,22
 717 859 717 859 761 911.5 c 128,-1,23
 805 964 805 964 805 1063 c 0,24,25
 805 1142 805 1142 758.5 1197 c 128,-1,26
 712 1252 712 1252 627 1252 c 0,27,28
 541 1252 541 1252 487 1193 c 128,-1,29
 433 1134 433 1134 433 1037 c 2,30,-1
 433 264 l 1,31,32
 472 234 472 234 526.5 218.5 c 128,-1,33
 581 203 581 203 648 203 c 0,34,35
 749 203 749 203 808.5 263.5 c 128,-1,36
 868 324 868 324 868 418 c 0,37,38
 868 526 868 526 812 589.5 c 128,-1,39
 756 653 756 653 654 653 c 2,40,-1
 558 653 l 1,41,-1
 558 859 l 1,42,-1
 623 859 l 2,21,22
EndSplineSet
Validated: 1
EndChar

StartChar: gamma
Encoding: 947 947 397
Width: 1046
GlyphClass: 1
Flags: W
LayerCount: 2
Fore
SplineSet
726 1082 m 1,0,-1
 1031 1082 l 1,1,-1
 669 17 l 1,2,-1
 669 -417 l 1,3,-1
 377 -417 l 1,4,-1
 377 20 l 1,5,-1
 16 1082 l 1,6,-1
 321 1082 l 1,7,-1
 503 403 l 1,8,-1
 522 303 l 1,9,-1
 528 303 l 1,10,-1
 548 403 l 1,11,-1
 726 1082 l 1,0,-1
EndSplineSet
Validated: 1
EndChar

StartChar: delta
Encoding: 948 948 398
Width: 1156
GlyphClass: 1
Flags: W
LayerCount: 2
Fore
SplineSet
979 1456 m 1,0,-1
 979 1232 l 1,1,-1
 575 1232 l 1,2,-1
 573 1226 l 1,3,-1
 817 1038 l 2,4,5
 935 951 935 951 1011.5 828.5 c 128,-1,6
 1088 706 1088 706 1088 551 c 2,7,-1
 1088 530 l 2,8,9
 1088 286 1088 286 952.5 132.5 c 128,-1,10
 817 -21 817 -21 578 -21 c 0,11,12
 338 -21 338 -21 202.5 125 c 128,-1,13
 67 271 67 271 67 504 c 2,14,-1
 67 525 l 2,15,16
 67 725 67 725 175 865 c 128,-1,17
 283 1005 283 1005 452 1035 c 1,18,-1
 460 1036 l 1,19,-1
 461 1042 l 1,20,-1
 170 1279 l 1,21,-1
 170 1456 l 1,22,-1
 979 1456 l 1,0,-1
576 877 m 0,23,24
 463 877 463 877 410.5 785.5 c 128,-1,25
 358 694 358 694 358 551 c 2,26,-1
 358 530 l 2,27,28
 358 382 358 382 410 292.5 c 128,-1,29
 462 203 462 203 578 203 c 0,30,31
 691 203 691 203 743.5 293 c 128,-1,32
 796 383 796 383 796 530 c 2,33,-1
 796 551 l 2,34,35
 796 695 796 695 743 786 c 128,-1,36
 690 877 690 877 576 877 c 0,23,24
EndSplineSet
Validated: 1
EndChar

StartChar: epsilon
Encoding: 949 949 399
Width: 1140
GlyphClass: 1
Flags: W
LayerCount: 2
Fore
SplineSet
584 458 m 2,0,1
 488 458 488 458 437 426 c 128,-1,2
 386 394 386 394 386 325 c 0,3,4
 386 270 386 270 437.5 230.5 c 128,-1,5
 489 191 489 191 582 191 c 0,6,7
 676 191 676 191 729 228 c 128,-1,8
 782 265 782 265 782 320 c 1,9,-1
 1063 320 l 1,10,-1
 1065 314 l 1,11,12
 1070 152 1070 152 930.5 66 c 128,-1,13
 791 -20 791 -20 598 -20 c 0,14,15
 378 -20 378 -20 236.5 67.5 c 128,-1,16
 95 155 95 155 95 306 c 0,17,18
 95 396 95 396 147.5 460 c 128,-1,19
 200 524 200 524 299 557 c 1,20,21
 212 593 212 593 163 653.5 c 128,-1,22
 114 714 114 714 114 786 c 0,23,24
 114 936 114 936 246 1018.5 c 128,-1,25
 378 1101 378 1101 598 1101 c 0,26,27
 791 1101 791 1101 922 1011.5 c 128,-1,28
 1053 922 1053 922 1048 777 c 1,29,-1
 1046 771 l 1,30,-1
 764 771 l 1,31,32
 764 825 764 825 713 857 c 128,-1,33
 662 889 662 889 583 889 c 0,34,35
 494 889 494 889 449.5 852 c 128,-1,36
 405 815 405 815 405 765 c 0,37,38
 405 710 405 710 451 678.5 c 128,-1,39
 497 647 497 647 584 647 c 2,40,-1
 771 647 l 1,41,-1
 771 458 l 1,42,-1
 584 458 l 2,0,1
EndSplineSet
Validated: 33
EndChar

StartChar: zeta
Encoding: 950 950 400
Width: 1034
GlyphClass: 1
Flags: W
LayerCount: 2
Fore
SplineSet
968 1456 m 1,0,-1
 968 1300 l 1,1,-1
 608 868 l 2,2,3
 499 739 499 739 453 643.5 c 128,-1,4
 407 548 407 548 407 422 c 0,5,6
 407 320 407 320 455.5 270.5 c 128,-1,7
 504 221 504 221 606 221 c 2,8,-1
 660 221 l 2,9,10
 807 221 807 221 892 148 c 128,-1,11
 977 75 977 75 977 -59 c 0,12,13
 975 -184 975 -184 886 -284.5 c 128,-1,14
 797 -385 797 -385 648 -427 c 1,15,-1
 551 -234 l 1,16,17
 616 -206 616 -206 655.5 -171 c 128,-1,18
 695 -136 695 -136 695 -83 c 0,19,20
 695 -43 695 -43 664 -21.5 c 128,-1,21
 633 0 633 0 560 0 c 2,22,-1
 511 0 l 2,23,24
 318 0 318 0 217.5 110 c 128,-1,25
 117 220 117 220 117 382 c 0,26,27
 117 535 117 535 183 675 c 128,-1,28
 249 815 249 815 388 985 c 2,29,-1
 593 1227 l 1,30,-1
 591 1232 l 1,31,-1
 75 1232 l 1,32,-1
 75 1456 l 1,33,-1
 968 1456 l 1,0,-1
EndSplineSet
Validated: 1
EndChar

StartChar: eta
Encoding: 951 951 401
Width: 1156
GlyphClass: 1
Flags: W
LayerCount: 2
Fore
SplineSet
379 1082 m 1,0,-1
 392 930 l 1,1,2
 445 1011 445 1011 524 1056.5 c 128,-1,3
 603 1102 603 1102 700 1102 c 0,4,5
 865 1102 865 1102 956.5 998 c 128,-1,6
 1048 894 1048 894 1048 663 c 2,7,-1
 1048 -415 l 1,8,-1
 755 -415 l 1,9,-1
 755 662 l 2,10,11
 755 778 755 778 714.5 827.5 c 128,-1,12
 674 877 674 877 593 877 c 0,13,14
 529 877 529 877 480 853.5 c 128,-1,15
 431 830 431 830 399 787 c 1,16,-1
 399 0 l 1,17,-1
 107 0 l 1,18,-1
 107 1082 l 1,19,-1
 379 1082 l 1,0,-1
EndSplineSet
Validated: 1
EndChar

StartChar: theta
Encoding: 952 952 402
Width: 1209
GlyphClass: 1
Flags: W
LayerCount: 2
Fore
SplineSet
1086 527 m 2,0,1
 1086 271 1086 271 951.5 125 c 128,-1,2
 817 -21 817 -21 595 -21 c 0,3,4
 371 -21 371 -21 236 125 c 128,-1,5
 101 271 101 271 101 527 c 2,6,-1
 101 928 l 2,7,8
 101 1183 101 1183 235.5 1330 c 128,-1,9
 370 1477 370 1477 593 1477 c 0,10,11
 815 1477 815 1477 950.5 1330 c 128,-1,12
 1086 1183 1086 1183 1086 928 c 2,13,-1
 1086 527 l 2,0,1
795 623 m 1,14,-1
 392 623 l 1,15,-1
 392 499 l 2,16,17
 392 356 392 356 445 279.5 c 128,-1,18
 498 203 498 203 595 203 c 0,19,20
 690 203 690 203 742.5 279.5 c 128,-1,21
 795 356 795 356 795 499 c 2,22,-1
 795 623 l 1,14,-1
392 840 m 1,23,-1
 795 840 l 1,24,-1
 795 958 l 2,25,26
 795 1098 795 1098 741.5 1175 c 128,-1,27
 688 1252 688 1252 593 1252 c 0,28,29
 497 1252 497 1252 444.5 1175 c 128,-1,30
 392 1098 392 1098 392 958 c 2,31,-1
 392 840 l 1,23,-1
EndSplineSet
Validated: 1
EndChar

StartChar: iota
Encoding: 953 953 403
Width: 681
GlyphClass: 1
Flags: W
LayerCount: 2
Fore
SplineSet
429 1081 m 1,0,-1
 429 321 l 2,1,2
 429 257 429 257 451 231.5 c 128,-1,3
 473 206 473 206 520 206 c 0,4,5
 549 206 549 206 566 209.5 c 128,-1,6
 583 213 583 213 618 224 c 1,7,-1
 648 14 l 1,8,9
 601 -6 601 -6 558.5 -13.5 c 128,-1,10
 516 -21 516 -21 461 -21 c 0,11,12
 304 -21 304 -21 220.5 64.5 c 128,-1,13
 137 150 137 150 137 325 c 2,14,-1
 137 1081 l 1,15,-1
 429 1081 l 1,0,-1
EndSplineSet
Validated: 1
EndChar

StartChar: lambda
Encoding: 955 955 405
Width: 1102
GlyphClass: 1
Flags: W
LayerCount: 2
Fore
SplineSet
327 0 m 1,0,-1
 12 0 l 1,1,-1
 388 1059 l 1,2,-1
 334 1167 l 2,3,4
 310 1222 310 1222 270 1257 c 128,-1,5
 230 1292 230 1292 177 1292 c 0,6,7
 164 1292 164 1292 143 1290 c 128,-1,8
 122 1288 122 1288 111 1286 c 1,9,-1
 105 1495 l 1,10,11
 146 1506 146 1506 178.5 1512 c 128,-1,12
 211 1518 211 1518 248 1518 c 0,13,14
 406 1518 406 1518 485.5 1439 c 128,-1,15
 565 1360 565 1360 610 1244 c 2,16,-1
 973 345 l 2,17,18
 991 292 991 292 1020.5 258 c 128,-1,19
 1050 224 1050 224 1091 217 c 0,20,21
 1103 215 1103 215 1115.5 215 c 128,-1,22
 1128 215 1128 215 1143 216 c 1,23,-1
 1124 -3 l 1,24,25
 1092 -9 1092 -9 1058.5 -11.5 c 128,-1,26
 1025 -14 1025 -14 992 -12 c 0,27,28
 865 -3 865 -3 790.5 88.5 c 128,-1,29
 716 180 716 180 672 311 c 2,30,-1
 530 703 l 1,31,-1
 524 703 l 1,32,-1
 509 623 l 1,33,-1
 327 0 l 1,0,-1
EndSplineSet
Validated: 33
EndChar

StartChar: xi
Encoding: 958 958 408
Width: 1097
GlyphClass: 1
Flags: W
LayerCount: 2
Fore
SplineSet
981 1456 m 1,0,-1
 981 1224 l 1,1,-1
 701 1224 l 2,2,3
 592 1221 592 1221 538.5 1178 c 128,-1,4
 485 1135 485 1135 485 1063 c 0,5,6
 485 988 485 988 538.5 944.5 c 128,-1,7
 592 901 592 901 706 901 c 2,8,-1
 857 901 l 1,9,-1
 857 669 l 1,10,-1
 714 669 l 2,11,12
 557 669 557 669 475.5 604.5 c 128,-1,13
 394 540 394 540 394 416 c 0,14,15
 394 324 394 324 457 267.5 c 128,-1,16
 520 211 520 211 630 211 c 2,17,-1
 751 211 l 2,18,19
 904 211 904 211 991 141 c 128,-1,20
 1078 71 1078 71 1078 -66 c 0,21,22
 1076 -207 1076 -207 991.5 -303 c 128,-1,23
 907 -399 907 -399 750 -448 c 1,24,-1
 668 -276 l 1,25,26
 727 -250 727 -250 769.5 -213.5 c 128,-1,27
 812 -177 812 -177 812 -117 c 0,28,29
 812 -72 812 -72 780.5 -46.5 c 128,-1,30
 749 -21 749 -21 684 -21 c 2,31,-1
 614 -21 l 2,32,33
 380 -21 380 -21 241.5 95.5 c 128,-1,34
 103 212 103 212 103 420 c 0,35,36
 103 553 103 553 178 645 c 128,-1,37
 253 737 253 737 398 784 c 1,38,39
 299 818 299 818 246 877.5 c 128,-1,40
 193 937 193 937 193 1019 c 0,41,42
 193 1088 193 1088 229.5 1139.5 c 128,-1,43
 266 1191 266 1191 335 1224 c 1,44,-1
 122 1224 l 1,45,-1
 122 1456 l 1,46,-1
 981 1456 l 1,0,-1
EndSplineSet
Validated: 1
EndChar

StartChar: pi
Encoding: 960 960 410
Width: 1356
GlyphClass: 1
Flags: W
LayerCount: 2
Fore
SplineSet
1223 868 m 1,0,-1
 1030 868 l 1,1,-1
 1030 321 l 2,2,3
 1030 257 1030 257 1052 231.5 c 128,-1,4
 1074 206 1074 206 1121 206 c 0,5,6
 1150 206 1150 206 1167 209.5 c 128,-1,7
 1184 213 1184 213 1219 224 c 1,8,-1
 1249 14 l 1,9,10
 1202 -6 1202 -6 1159.5 -13.5 c 128,-1,11
 1117 -21 1117 -21 1062 -21 c 0,12,13
 905 -21 905 -21 821.5 64.5 c 128,-1,14
 738 150 738 150 738 325 c 2,15,-1
 738 868 l 1,16,-1
 529 868 l 1,17,-1
 529 0 l 1,18,-1
 237 0 l 1,19,-1
 237 868 l 1,20,-1
 78 868 l 1,21,-1
 78 1082 l 1,22,-1
 1223 1082 l 1,23,-1
 1223 868 l 1,0,-1
EndSplineSet
Validated: 1
EndChar

StartChar: rho
Encoding: 961 961 411
Width: 1156
GlyphClass: 1
Flags: W
LayerCount: 2
Fore
SplineSet
1086 511 m 2,0,1
 1086 271 1086 271 976 125 c 128,-1,2
 866 -21 866 -21 667 -21 c 0,3,4
 582 -21 582 -21 516.5 9.5 c 128,-1,5
 451 40 451 40 403 99 c 1,6,-1
 403 -416 l 1,7,-1
 112 -416 l 1,8,-1
 112 577 l 2,9,10
 112 812 112 812 245.5 957 c 128,-1,11
 379 1102 379 1102 607 1102 c 0,12,13
 836 1102 836 1102 961 945.5 c 128,-1,14
 1086 789 1086 789 1086 532 c 2,15,-1
 1086 511 l 2,0,1
795 532 m 2,16,17
 795 686 795 686 746 781.5 c 128,-1,18
 697 877 697 877 592 877 c 0,19,20
 497 877 497 877 450 785 c 128,-1,21
 403 693 403 693 403 554 c 1,22,-1
 402 553 l 1,23,-1
 403 553 l 1,24,-1
 403 297 l 1,25,26
 430 251 430 251 476.5 227 c 128,-1,27
 523 203 523 203 591 203 c 0,28,29
 697 203 697 203 746 286 c 128,-1,30
 795 369 795 369 795 511 c 2,31,-1
 795 532 l 2,16,17
EndSplineSet
Validated: 1
EndChar

StartChar: sigma1
Encoding: 962 962 412
Width: 1052
GlyphClass: 1
Flags: W
LayerCount: 2
Fore
SplineSet
562 1102 m 0,0,1
 762 1102 762 1102 883 990.5 c 128,-1,2
 1004 879 1004 879 1000 688 c 1,3,-1
 998 682 l 1,4,-1
 732 682 l 1,5,6
 732 767 732 767 688.5 822 c 128,-1,7
 645 877 645 877 562 877 c 0,8,9
 450 877 450 877 402 786 c 128,-1,10
 354 695 354 695 354 555 c 2,11,-1
 354 525 l 2,12,13
 354 389 354 389 419 315 c 128,-1,14
 484 241 484 241 629 220 c 0,15,16
 818 190 818 190 904.5 126 c 128,-1,17
 991 62 991 62 991 -72 c 0,18,19
 989 -198 989 -198 900 -298 c 128,-1,20
 811 -398 811 -398 663 -440 c 1,21,-1
 566 -247 l 1,22,23
 631 -218 631 -218 670 -184 c 128,-1,24
 709 -150 709 -150 709 -96 c 0,25,26
 709 -56 709 -56 671.5 -33.5 c 128,-1,27
 634 -11 634 -11 555 3 c 0,28,29
 306 39 306 39 184 171 c 128,-1,30
 62 303 62 303 62 525 c 2,31,-1
 62 555 l 2,32,33
 62 792 62 792 193.5 947 c 128,-1,34
 325 1102 325 1102 562 1102 c 0,0,1
EndSplineSet
Validated: 33
EndChar

StartChar: sigma
Encoding: 963 963 413
Width: 1172
GlyphClass: 1
Flags: W
LayerCount: 2
Fore
SplineSet
1149 856 m 1,0,-1
 891 856 l 1,1,2
 971 790 971 790 1021 699.5 c 128,-1,3
 1071 609 1071 609 1071 510 c 2,4,-1
 1071 489 l 2,5,6
 1071 268 1071 268 939 123.5 c 128,-1,7
 807 -21 807 -21 577 -21 c 0,8,9
 336 -21 336 -21 200.5 132.5 c 128,-1,10
 65 286 65 286 65 530 c 2,11,-1
 65 551 l 2,12,13
 65 785 65 785 200.5 933.5 c 128,-1,14
 336 1082 336 1082 575 1082 c 2,15,-1
 1149 1082 l 1,16,-1
 1149 856 l 1,0,-1
357 530 m 2,17,18
 357 382 357 382 409 292.5 c 128,-1,19
 461 203 461 203 577 203 c 0,20,21
 682 203 682 203 731 293 c 128,-1,22
 780 383 780 383 780 530 c 2,23,-1
 780 551 l 2,24,25
 780 686 780 686 730.5 771 c 128,-1,26
 681 856 681 856 575 856 c 0,27,28
 462 856 462 856 409.5 770.5 c 128,-1,29
 357 685 357 685 357 551 c 2,30,-1
 357 530 l 2,17,18
EndSplineSet
Validated: 1
EndChar

StartChar: tau
Encoding: 964 964 414
Width: 1076
GlyphClass: 1
Flags: W
LayerCount: 2
Fore
SplineSet
1031 859 m 1,0,-1
 684 859 l 1,1,-1
 684 0 l 1,2,-1
 392 0 l 1,3,-1
 392 859 l 1,4,-1
 51 859 l 1,5,-1
 51 1082 l 1,6,-1
 1031 1082 l 1,7,-1
 1031 859 l 1,0,-1
EndSplineSet
Validated: 1
EndChar

StartChar: upsilon
Encoding: 965 965 415
Width: 1156
GlyphClass: 1
Flags: W
LayerCount: 2
Fore
SplineSet
404 1082 m 1,0,-1
 404 470 l 2,1,2
 404 328 404 328 454.5 265.5 c 128,-1,3
 505 203 505 203 589 203 c 0,4,5
 694 203 694 203 742 308.5 c 128,-1,6
 790 414 790 414 790 566 c 0,7,8
 787 692 787 692 761 821 c 128,-1,9
 735 950 735 950 689 1082 c 1,10,-1
 967 1082 l 1,11,12
 1017 977 1017 977 1049 847.5 c 128,-1,13
 1081 718 1081 718 1081 566 c 0,14,15
 1081 298 1081 298 967.5 138.5 c 128,-1,16
 854 -21 854 -21 599 -21 c 0,17,18
 370 -21 370 -21 241.5 101 c 128,-1,19
 113 223 113 223 113 472 c 2,20,-1
 113 1082 l 1,21,-1
 404 1082 l 1,0,-1
EndSplineSet
Validated: 1
EndChar

StartChar: phi
Encoding: 966 966 416
Width: 1529
GlyphClass: 1
Flags: W
LayerCount: 2
Fore
SplineSet
901 1082 m 2,0,1
 1167 1082 1167 1082 1315 917.5 c 128,-1,2
 1463 753 1463 753 1463 537 c 0,3,4
 1463 318 1463 318 1328 166.5 c 128,-1,5
 1193 15 1193 15 901 -14 c 1,6,-1
 901 -478 l 1,7,-1
 610 -478 l 1,8,-1
 610 -12 l 1,9,10
 319 23 319 23 186 188.5 c 128,-1,11
 53 354 53 354 53 592 c 0,12,13
 53 736 53 736 88.5 859 c 128,-1,14
 124 982 124 982 182 1082 c 1,15,-1
 453 1082 l 1,16,17
 403 951 403 951 374.5 830 c 128,-1,18
 346 709 346 709 345 592 c 0,19,20
 345 447 345 447 405.5 350.5 c 128,-1,21
 466 254 466 254 604 227 c 1,22,-1
 610 229 l 1,23,-1
 610 1082 l 1,24,-1
 901 1082 l 2,0,1
1171 537 m 0,25,26
 1169 675 1169 675 1100 764.5 c 128,-1,27
 1031 854 1031 854 907 849 c 1,28,-1
 901 847 l 1,29,-1
 901 223 l 1,30,-1
 907 221 l 1,31,32
 1046 243 1046 243 1108.5 327 c 128,-1,33
 1171 411 1171 411 1171 537 c 0,25,26
EndSplineSet
Validated: 33
EndChar

StartChar: chi
Encoding: 967 967 417
Width: 1102
GlyphClass: 1
Flags: W
LayerCount: 2
Fore
SplineSet
166 1098 m 0,0,1
 324 1098 324 1098 404 1018.5 c 128,-1,2
 484 939 484 939 528 825 c 1,3,-1
 590 680 l 1,4,-1
 596 679 l 1,5,-1
 792 1082 l 1,6,-1
 1088 1082 l 1,7,-1
 730 353 l 1,8,-1
 914 -73 l 2,9,10
 934 -125 934 -125 963 -159 c 128,-1,11
 992 -193 992 -193 1032 -201 c 0,12,13
 1043 -203 1043 -203 1056 -203 c 128,-1,14
 1069 -203 1069 -203 1084 -203 c 1,15,-1
 1065 -423 l 1,16,17
 1035 -430 1035 -430 1001 -432 c 128,-1,18
 967 -434 967 -434 933 -431 c 0,19,20
 822 -421 822 -421 754.5 -331 c 128,-1,21
 687 -241 687 -241 637 -107 c 1,22,-1
 578 29 l 1,23,-1
 572 30 l 1,24,-1
 353 -416 l 1,25,-1
 64 -416 l 1,26,-1
 438 354 l 1,27,-1
 268 748 l 2,28,29
 245 806 245 806 199 839.5 c 128,-1,30
 153 873 153 873 95 873 c 0,31,32
 82 873 82 873 61 871 c 128,-1,33
 40 869 40 869 29 867 c 1,34,-1
 23 1076 l 1,35,36
 62 1086 62 1086 95 1092 c 128,-1,37
 128 1098 128 1098 166 1098 c 0,0,1
EndSplineSet
Validated: 33
EndChar

StartChar: psi
Encoding: 968 968 418
Width: 1526
GlyphClass: 1
Flags: W
LayerCount: 2
Fore
SplineSet
899 1082 m 1,0,-1
 899 228 l 1,1,-1
 905 226 l 1,2,3
 1042 253 1042 253 1105.5 350.5 c 128,-1,4
 1169 448 1169 448 1169 592 c 0,5,6
 1166 710 1166 710 1137.5 831 c 128,-1,7
 1109 952 1109 952 1060 1082 c 1,8,-1
 1331 1082 l 1,9,10
 1388 983 1388 983 1424 860 c 128,-1,11
 1460 737 1460 737 1460 592 c 0,12,13
 1460 351 1460 351 1326 185 c 128,-1,14
 1192 19 1192 19 899 -13 c 1,15,-1
 899 -478 l 1,16,-1
 607 -478 l 1,17,-1
 607 -11 l 1,18,19
 350 20 350 20 209 168.5 c 128,-1,20
 68 317 68 317 68 590 c 2,21,-1
 68 1082 l 1,22,-1
 360 1082 l 1,23,-1
 360 587 l 2,24,25
 360 426 360 426 424.5 338.5 c 128,-1,26
 489 251 489 251 601 229 c 1,27,-1
 607 230 l 1,28,-1
 607 1082 l 1,29,-1
 899 1082 l 1,0,-1
EndSplineSet
Validated: 1
EndChar

StartChar: omega
Encoding: 969 969 419
Width: 1760
GlyphClass: 1
Flags: W
LayerCount: 2
Fore
SplineSet
512 1082 m 1,0,1
 448 952 448 952 411.5 822.5 c 128,-1,2
 375 693 375 693 371 566 c 1,3,4
 371 408 371 408 412 305.5 c 128,-1,5
 453 203 453 203 547 203 c 0,6,7
 627 203 627 203 676.5 271.5 c 128,-1,8
 726 340 726 340 726 490 c 2,9,-1
 726 836 l 1,10,-1
 1034 836 l 1,11,-1
 1034 490 l 2,12,13
 1034 340 1034 340 1082.5 271.5 c 128,-1,14
 1131 203 1131 203 1212 203 c 0,15,16
 1305 203 1305 203 1346.5 305 c 128,-1,17
 1388 407 1388 407 1388 566 c 1,18,19
 1384 694 1384 694 1347.5 823 c 128,-1,20
 1311 952 1311 952 1247 1082 c 1,21,-1
 1525 1082 l 1,22,23
 1594 979 1594 979 1636.5 849 c 128,-1,24
 1679 719 1679 719 1679 566 c 0,25,26
 1679 298 1679 298 1572 138.5 c 128,-1,27
 1465 -21 1465 -21 1223 -21 c 0,28,29
 1105 -21 1105 -21 1017.5 34 c 128,-1,30
 930 89 930 89 880 195 c 1,31,32
 829 89 829 89 741 34 c 128,-1,33
 653 -21 653 -21 537 -21 c 0,34,35
 294 -21 294 -21 187 138.5 c 128,-1,36
 80 298 80 298 80 566 c 0,37,38
 80 719 80 719 122 848.5 c 128,-1,39
 164 978 164 978 234 1082 c 1,40,-1
 512 1082 l 1,0,1
EndSplineSet
Validated: 1
EndChar

StartChar: uni03D1
Encoding: 977 977 425
Width: 1396
GlyphClass: 2
Flags: W
LayerCount: 2
Fore
SplineSet
546 968 m 1,0,-1
 546 1071 l 2,1,2
 546 1256 546 1256 653.5 1366.5 c 128,-1,3
 761 1477 761 1477 933 1477 c 0,4,5
 1104 1477 1104 1477 1204 1368.5 c 128,-1,6
 1304 1260 1304 1260 1304 1071 c 2,7,-1
 1304 556 l 2,8,9
 1304 295 1304 295 1143 137 c 128,-1,10
 982 -21 982 -21 719 -21 c 0,11,12
 453 -21 453 -21 287.5 143 c 128,-1,13
 122 307 122 307 122 556 c 2,14,-1
 122 1252 l 1,15,-1
 430 1254 l 1,16,-1
 430 556 l 2,17,18
 430 404 430 404 507.5 308.5 c 128,-1,19
 585 213 585 213 719 213 c 0,20,21
 846 213 846 213 919.5 301 c 128,-1,22
 993 389 993 389 997 545 c 1,23,24
 803 559 803 559 674.5 677 c 128,-1,25
 546 795 546 795 546 968 c 1,26,-1
 546 968 l 1,0,-1
997 1098 m 2,27,28
 997 1163 997 1163 976.5 1196 c 128,-1,29
 956 1229 956 1229 917 1229 c 0,30,31
 874 1229 874 1229 848.5 1195.5 c 128,-1,32
 823 1162 823 1162 823 1098 c 2,33,-1
 823 966 l 2,34,35
 823 883 823 883 868 826 c 128,-1,36
 913 769 913 769 991 761 c 1,37,-1
 997 763 l 1,38,-1
 997 1098 l 2,27,28
EndSplineSet
Validated: 5
EndChar

StartChar: uni03D2
Encoding: 978 978 426
Width: 1202
GlyphClass: 1
Flags: W
LayerCount: 2
Fore
SplineSet
770 1203 m 2,0,1
 831 1356 831 1356 906.5 1418 c 128,-1,2
 982 1480 982 1480 1112 1480 c 0,3,4
 1144 1480 1144 1480 1169 1476 c 128,-1,5
 1194 1472 1194 1472 1215 1461 c 1,6,-1
 1191 1239 l 1,7,8
 1187 1240 1187 1240 1169 1242 c 128,-1,9
 1151 1244 1151 1244 1140 1244 c 0,10,11
 1103 1244 1103 1244 1075 1218 c 128,-1,12
 1047 1192 1047 1192 1029 1149 c 2,13,-1
 743 477 l 1,14,-1
 743 0 l 1,15,-1
 452 0 l 1,16,-1
 452 489 l 1,17,-1
 172 1149 l 2,18,19
 152 1192 152 1192 124 1218 c 128,-1,20
 96 1244 96 1244 60 1244 c 0,21,22
 48 1244 48 1244 30.5 1242 c 128,-1,23
 13 1240 13 1240 10 1239 c 1,24,-1
 -13 1461 l 1,25,26
 6 1472 6 1472 31 1476 c 128,-1,27
 56 1480 56 1480 89 1480 c 0,28,29
 220 1480 220 1480 295 1421 c 128,-1,30
 370 1362 370 1362 430 1210 c 2,31,-1
 579 825 l 1,32,-1
 597 735 l 1,33,-1
 603 735 l 1,34,-1
 622 825 l 1,35,-1
 770 1203 l 2,0,1
EndSplineSet
Validated: 1
EndChar

StartChar: uni03D6
Encoding: 982 982 427
Width: 1696
GlyphClass: 1
Flags: W
LayerCount: 2
Fore
SplineSet
1688 900 m 1,0,-1
 1555 900 l 1,1,2
 1582 825 1582 825 1597.5 741 c 128,-1,3
 1613 657 1613 657 1613 566 c 0,4,5
 1613 298 1613 298 1513 138.5 c 128,-1,6
 1413 -21 1413 -21 1187 -21 c 0,7,8
 1071 -21 1071 -21 984.5 34 c 128,-1,9
 898 89 898 89 849 195 c 1,10,11
 798 89 798 89 711.5 34 c 128,-1,12
 625 -21 625 -21 511 -21 c 0,13,14
 284 -21 284 -21 184.5 138.5 c 128,-1,15
 85 298 85 298 85 566 c 0,16,17
 85 657 85 657 100 741 c 128,-1,18
 115 825 115 825 143 900 c 1,19,-1
 19 900 l 1,20,-1
 19 1082 l 1,21,-1
 1688 1082 l 1,22,-1
 1688 900 l 1,0,-1
1322 566 m 0,23,24
 1319 648 1319 648 1303 731.5 c 128,-1,25
 1287 815 1287 815 1260 900 c 1,26,-1
 438 900 l 1,27,28
 410 815 410 815 394 731.5 c 128,-1,29
 378 648 378 648 376 566 c 0,30,31
 376 407 376 407 409.5 305 c 128,-1,32
 443 203 443 203 521 203 c 0,33,34
 600 203 600 203 648 271.5 c 128,-1,35
 696 340 696 340 696 490 c 2,36,-1
 696 695 l 1,37,-1
 1003 695 l 1,38,-1
 1003 490 l 2,39,40
 1003 340 1003 340 1050.5 271.5 c 128,-1,41
 1098 203 1098 203 1176 203 c 0,42,43
 1253 203 1253 203 1287.5 305 c 128,-1,44
 1322 407 1322 407 1322 566 c 0,23,24
EndSplineSet
Validated: 1
EndChar

StartChar: uni0402
Encoding: 1026 1026 430
Width: 1560
GlyphClass: 1
Flags: W
LayerCount: 2
Fore
SplineSet
1169 1231 m 1,0,-1
 753 1231 l 1,1,-1
 753 917 l 1,2,-1
 928 917 l 2,3,4
 1194 917 1194 917 1354 791.5 c 128,-1,5
 1514 666 1514 666 1514 430 c 0,6,7
 1516 296 1516 296 1420 160.5 c 128,-1,8
 1324 25 1324 25 1143 -32 c 1,9,-1
 1020 156 l 1,10,11
 1119 200 1119 200 1170.5 266.5 c 128,-1,12
 1222 333 1222 333 1223 430 c 0,13,14
 1223 556 1223 556 1145 622 c 128,-1,15
 1067 688 1067 688 928 688 c 2,16,-1
 753 688 l 1,17,-1
 753 0 l 1,18,-1
 461 0 l 1,19,-1
 461 1231 l 1,20,-1
 51 1231 l 1,21,-1
 51 1456 l 1,22,-1
 1169 1456 l 1,23,-1
 1169 1231 l 1,0,-1
EndSplineSet
Validated: 33
EndChar

StartChar: uni0404
Encoding: 1028 1028 432
Width: 1290
GlyphClass: 1
Flags: W
LayerCount: 2
Fore
SplineSet
1243 483 m 1,0,-1
 1245 477 l 1,1,2
 1249 244 1249 244 1103 112 c 128,-1,3
 957 -20 957 -20 700 -20 c 0,4,5
 438 -20 438 -20 277 148.5 c 128,-1,6
 116 317 116 317 116 584 c 2,7,-1
 116 873 l 2,8,9
 116 1139 116 1139 273 1308.5 c 128,-1,10
 430 1478 430 1478 685 1478 c 0,11,12
 951 1478 951 1478 1101 1348 c 128,-1,13
 1251 1218 1251 1218 1247 982 c 1,14,-1
 1245 976 l 1,15,-1
 961 976 l 1,16,17
 961 1116 961 1116 893.5 1184.5 c 128,-1,18
 826 1253 826 1253 685 1253 c 0,19,20
 554 1253 554 1253 480.5 1147.5 c 128,-1,21
 407 1042 407 1042 407 875 c 2,22,-1
 407 844 l 1,23,-1
 838 844 l 1,24,-1
 838 618 l 1,25,-1
 407 618 l 1,26,-1
 407 584 l 2,27,28
 407 416 407 416 484.5 310 c 128,-1,29
 562 204 562 204 700 204 c 0,30,31
 831 204 831 204 895.5 272.5 c 128,-1,32
 960 341 960 341 960 483 c 1,33,-1
 1243 483 l 1,0,-1
EndSplineSet
Validated: 33
EndChar

StartChar: uni0405
Encoding: 1029 1029 433
Width: 1266
GlyphClass: 1
Flags: W
LayerCount: 2
Fore
SplineSet
893 380 m 0,0,1
 893 464 893 464 834.5 515 c 128,-1,2
 776 566 776 566 629 611 c 0,3,4
 377 687 377 687 246.5 790 c 128,-1,5
 116 893 116 893 116 1071 c 0,6,7
 116 1250 116 1250 263 1363.5 c 128,-1,8
 410 1477 410 1477 638 1477 c 0,9,10
 880 1477 880 1477 1027.5 1355 c 128,-1,11
 1175 1233 1175 1233 1170 1035 c 1,12,-1
 1168 1029 l 1,13,-1
 885 1029 l 1,14,15
 885 1138 885 1138 819 1196.5 c 128,-1,16
 753 1255 753 1255 634 1255 c 0,17,18
 526 1255 526 1255 467 1203 c 128,-1,19
 408 1151 408 1151 408 1070 c 0,20,21
 408 996 408 996 472 948.5 c 128,-1,22
 536 901 536 901 693 848 c 1,23,24
 933 780 933 780 1059 670.5 c 128,-1,25
 1185 561 1185 561 1185 382 c 0,26,27
 1185 195 1185 195 1039 87 c 128,-1,28
 893 -21 893 -21 653 -21 c 0,29,30
 418 -21 418 -21 249.5 96 c 128,-1,31
 81 213 81 213 86 445 c 1,32,-1
 88 451 l 1,33,-1
 371 451 l 1,34,35
 371 322 371 322 447 261 c 128,-1,36
 523 200 523 200 653 200 c 0,37,38
 770 200 770 200 831.5 249 c 128,-1,39
 893 298 893 298 893 380 c 0,0,1
EndSplineSet
Validated: 33
EndChar

StartChar: uni0409
Encoding: 1033 1033 437
Width: 2169
GlyphClass: 1
Flags: W
LayerCount: 2
Fore
SplineSet
1311 1456 m 1,0,-1
 1311 947 l 1,1,-1
 1561 947 l 2,2,3
 1811 947 1811 947 1959 814.5 c 128,-1,4
 2107 682 2107 682 2107 474 c 0,5,6
 2107 264 2107 264 1959 132 c 128,-1,7
 1811 0 1811 0 1561 0 c 2,8,-1
 1019 0 l 1,9,-1
 1019 1231 l 1,10,-1
 633 1231 l 1,11,-1
 633 793 l 2,12,13
 633 372 633 372 497.5 186 c 128,-1,14
 362 0 362 0 85 0 c 2,15,-1
 42 0 l 1,16,-1
 42 224 l 1,17,-1
 82 224 l 2,18,19
 232 224 232 224 286.5 347.5 c 128,-1,20
 341 471 341 471 341 793 c 2,21,-1
 341 1456 l 1,22,-1
 1311 1456 l 1,0,-1
1311 722 m 1,23,-1
 1311 224 l 1,24,-1
 1561 224 l 2,25,26
 1683 224 1683 224 1749.5 297 c 128,-1,27
 1816 370 1816 370 1816 476 c 0,28,29
 1816 578 1816 578 1749.5 650 c 128,-1,30
 1683 722 1683 722 1561 722 c 2,31,-1
 1311 722 l 1,23,-1
EndSplineSet
Validated: 1
EndChar

StartChar: uni040A
Encoding: 1034 1034 438
Width: 2168
GlyphClass: 1
Flags: W
LayerCount: 2
Fore
SplineSet
425 841 m 1,0,-1
 1018 841 l 1,1,-1
 1018 1456 l 1,2,-1
 1310 1456 l 1,3,-1
 1310 929 l 1,4,-1
 1560 929 l 2,5,6
 1811 929 1811 929 1959 800 c 128,-1,7
 2107 671 2107 671 2107 466 c 0,8,9
 2107 260 2107 260 1958.5 130 c 128,-1,10
 1810 0 1810 0 1560 0 c 2,11,-1
 1018 0 l 1,12,-1
 1018 616 l 1,13,-1
 425 616 l 1,14,-1
 425 0 l 1,15,-1
 133 0 l 1,16,-1
 133 1456 l 1,17,-1
 425 1456 l 1,18,-1
 425 841 l 1,0,-1
1310 704 m 1,19,-1
 1310 228 l 1,20,-1
 1560 228 l 2,21,22
 1683 228 1683 228 1749 297 c 128,-1,23
 1815 366 1815 366 1815 468 c 0,24,25
 1815 567 1815 567 1749 635.5 c 128,-1,26
 1683 704 1683 704 1560 704 c 2,27,-1
 1310 704 l 1,19,-1
EndSplineSet
Validated: 1
EndChar

StartChar: uni040B
Encoding: 1035 1035 439
Width: 1634
GlyphClass: 1
Flags: W
LayerCount: 2
Fore
SplineSet
1185 1231 m 1,0,-1
 769 1231 l 1,1,-1
 769 978 l 1,2,-1
 964 978 l 2,3,4
 1228 978 1228 978 1369 860.5 c 128,-1,5
 1510 743 1510 743 1510 499 c 2,6,-1
 1510 0 l 1,7,-1
 1218 0 l 1,8,-1
 1218 499 l 2,9,10
 1218 642 1218 642 1160 697.5 c 128,-1,11
 1102 753 1102 753 964 753 c 2,12,-1
 769 753 l 1,13,-1
 769 0 l 1,14,-1
 477 0 l 1,15,-1
 477 1231 l 1,16,-1
 67 1231 l 1,17,-1
 67 1456 l 1,18,-1
 1185 1456 l 1,19,-1
 1185 1231 l 1,0,-1
EndSplineSet
Validated: 1
EndChar

StartChar: uni040F
Encoding: 1039 1039 443
Width: 1431
GlyphClass: 1
Flags: W
LayerCount: 2
Fore
SplineSet
120 1456 m 1,0,-1
 411 1456 l 1,1,-1
 411 224 l 1,2,-1
 1005 224 l 1,3,-1
 1005 1456 l 1,4,-1
 1297 1456 l 1,5,-1
 1297 0 l 1,6,-1
 867 0 l 1,7,-1
 867 -360 l 1,8,-1
 575 -360 l 1,9,-1
 575 0 l 1,10,-1
 120 0 l 1,11,-1
 120 1456 l 1,0,-1
EndSplineSet
Validated: 1
EndChar

StartChar: uni0411
Encoding: 1041 1041 445
Width: 1283
GlyphClass: 1
Flags: W
LayerCount: 2
Fore
SplineSet
1081 1231 m 1,0,-1
 424 1231 l 1,1,-1
 424 944 l 1,2,-1
 674 944 l 2,3,4
 925 944 925 944 1073 813 c 128,-1,5
 1221 682 1221 682 1221 474 c 0,6,7
 1221 264 1221 264 1072.5 132 c 128,-1,8
 924 0 924 0 674 0 c 2,9,-1
 132 0 l 1,10,-1
 132 1456 l 1,11,-1
 1081 1456 l 1,12,-1
 1081 1231 l 1,0,-1
424 719 m 1,13,-1
 424 224 l 1,14,-1
 674 224 l 2,15,16
 797 224 797 224 863.5 297 c 128,-1,17
 930 370 930 370 930 476 c 0,18,19
 930 578 930 578 863.5 648.5 c 128,-1,20
 797 719 797 719 674 719 c 2,21,-1
 424 719 l 1,13,-1
EndSplineSet
Validated: 1
EndChar

StartChar: uni0414
Encoding: 1044 1044 448
Width: 1465
GlyphClass: 1
Flags: W
LayerCount: 2
Fore
SplineSet
1473 -358 m 1,0,-1
 1181 -358 l 1,1,-1
 1181 0 l 1,2,-1
 305 0 l 1,3,-1
 305 -358 l 1,4,-1
 14 -358 l 1,5,-1
 14 224 l 1,6,-1
 99 224 l 2,7,8
 213 224 213 224 263 376 c 128,-1,9
 313 528 313 528 328 860 c 2,10,-1
 361 1456 l 1,11,-1
 1300 1456 l 1,12,-1
 1300 224 l 1,13,-1
 1473 224 l 1,14,-1
 1473 -358 l 1,0,-1
620 860 m 2,15,16
 610 649 610 649 574 490 c 128,-1,17
 538 331 538 331 476 224 c 1,18,-1
 1009 224 l 1,19,-1
 1009 1231 l 1,20,-1
 640 1231 l 1,21,-1
 620 860 l 2,15,16
EndSplineSet
Validated: 1
EndChar

StartChar: uni0416
Encoding: 1046 1046 450
Width: 1870
GlyphClass: 1
Flags: W
LayerCount: 2
Fore
SplineSet
1178 608 m 1,0,-1
 1086 608 l 1,1,-1
 1086 0 l 1,2,-1
 795 0 l 1,3,-1
 795 608 l 1,4,-1
 698 608 l 1,5,-1
 370 0 l 1,6,-1
 6 0 l 1,7,-1
 465 785 l 1,8,-1
 30 1456 l 1,9,-1
 391 1456 l 1,10,-1
 721 861 l 1,11,-1
 795 861 l 1,12,-1
 795 1456 l 1,13,-1
 1086 1456 l 1,14,-1
 1086 861 l 1,15,-1
 1156 861 l 1,16,-1
 1479 1456 l 1,17,-1
 1839 1456 l 1,18,-1
 1410 786 l 1,19,-1
 1863 0 l 1,20,-1
 1500 0 l 1,21,-1
 1178 608 l 1,0,-1
EndSplineSet
Validated: 1
EndChar

StartChar: uni0417
Encoding: 1047 1047 451
Width: 1345
GlyphClass: 1
Flags: W
LayerCount: 2
Fore
SplineSet
667 852 m 2,0,1
 804 852 804 852 870 906 c 128,-1,2
 936 960 936 960 936 1057 c 0,3,4
 936 1141 936 1141 863 1196.5 c 128,-1,5
 790 1252 790 1252 651 1252 c 0,6,7
 542 1252 542 1252 470 1199.5 c 128,-1,8
 398 1147 398 1147 398 1065 c 1,9,-1
 115 1065 l 1,10,-1
 114 1071 l 1,11,12
 108 1252 108 1252 265 1364.5 c 128,-1,13
 422 1477 422 1477 651 1477 c 0,14,15
 917 1477 917 1477 1072 1369 c 128,-1,16
 1227 1261 1227 1261 1227 1061 c 0,17,18
 1227 961 1227 961 1162 878 c 128,-1,19
 1097 795 1097 795 983 748 c 1,20,21
 1112 705 1112 705 1181 619 c 128,-1,22
 1250 533 1250 533 1250 408 c 0,23,24
 1250 207 1250 207 1084 93 c 128,-1,25
 918 -21 918 -21 651 -21 c 0,26,27
 421 -21 421 -21 254 86 c 128,-1,28
 87 193 87 193 93 398 c 1,29,-1
 94 404 l 1,30,-1
 378 404 l 1,31,32
 378 319 378 319 454.5 261 c 128,-1,33
 531 203 531 203 651 203 c 0,34,35
 793 203 793 203 875.5 261.5 c 128,-1,36
 958 320 958 320 958 411 c 0,37,38
 958 526 958 526 884.5 579.5 c 128,-1,39
 811 633 811 633 667 633 c 2,40,-1
 470 633 l 1,41,-1
 470 852 l 1,42,-1
 667 852 l 2,0,1
EndSplineSet
Validated: 33
EndChar

StartChar: uni0418
Encoding: 1048 1048 452
Width: 1431
GlyphClass: 1
Flags: W
LayerCount: 2
Fore
SplineSet
1009 1456 m 1,0,-1
 1301 1456 l 1,1,-1
 1301 0 l 1,2,-1
 1009 0 l 1,3,-1
 1009 973 l 1,4,-1
 1003 974 l 1,5,-1
 415 0 l 1,6,-1
 124 0 l 1,7,-1
 124 1456 l 1,8,-1
 415 1456 l 1,9,-1
 415 484 l 1,10,-1
 421 483 l 1,11,-1
 1009 1456 l 1,0,-1
EndSplineSet
Validated: 1
EndChar

StartChar: uni041B
Encoding: 1051 1051 455
Width: 1444
GlyphClass: 1
Flags: W
LayerCount: 2
Fore
SplineSet
1311 1456 m 1,0,-1
 1311 0 l 1,1,-1
 1019 0 l 1,2,-1
 1019 1231 l 1,3,-1
 605 1231 l 1,4,-1
 605 793 l 2,5,6
 605 371 605 371 477.5 185.5 c 128,-1,7
 350 0 350 0 85 0 c 2,8,-1
 42 0 l 1,9,-1
 42 224 l 1,10,-1
 82 224 l 2,11,12
 219 224 219 224 266 346 c 128,-1,13
 313 468 313 468 313 793 c 2,14,-1
 313 1456 l 1,15,-1
 1311 1456 l 1,0,-1
EndSplineSet
Validated: 1
EndChar

StartChar: uni0423
Encoding: 1059 1059 463
Width: 1310
GlyphClass: 1
Flags: W
LayerCount: 2
Fore
SplineSet
637 809 m 1,0,-1
 663 721 l 1,1,-1
 669 720 l 1,2,-1
 975 1456 l 1,3,-1
 1284 1456 l 1,4,-1
 753 276 l 2,5,6
 690 135 690 135 601 57 c 128,-1,7
 512 -21 512 -21 352 -21 c 0,8,9
 292 -21 292 -21 245 -10.5 c 128,-1,10
 198 0 198 0 137 20 c 1,11,-1
 171 229 l 1,12,13
 216 216 216 216 250.5 209.5 c 128,-1,14
 285 203 285 203 320 203 c 0,15,16
 402 203 402 203 446 238.5 c 128,-1,17
 490 274 490 274 515 344 c 2,18,-1
 537 399 l 1,19,-1
 24 1456 l 1,20,-1
 339 1456 l 1,21,-1
 637 809 l 1,0,-1
EndSplineSet
Validated: 1
EndChar

StartChar: uni0426
Encoding: 1062 1062 466
Width: 1558
GlyphClass: 1
Flags: W
LayerCount: 2
Fore
SplineSet
121 1456 m 1,0,-1
 413 1456 l 1,1,-1
 413 225 l 1,2,-1
 1007 225 l 1,3,-1
 1007 1456 l 1,4,-1
 1299 1456 l 1,5,-1
 1299 225 l 1,6,-1
 1494 225 l 1,7,-1
 1494 -359 l 1,8,-1
 1202 -359 l 1,9,-1
 1202 0 l 1,10,-1
 121 0 l 1,11,-1
 121 1456 l 1,0,-1
EndSplineSet
Validated: 1
EndChar

StartChar: uni0427
Encoding: 1063 1063 467
Width: 1420
GlyphClass: 1
Flags: W
LayerCount: 2
Fore
SplineSet
1288 1456 m 1,0,-1
 1288 0 l 1,1,-1
 995 0 l 1,2,-1
 995 561 l 1,3,4
 929 545 929 545 847 536.5 c 128,-1,5
 765 528 765 528 700 528 c 0,6,7
 432 528 432 528 285.5 644 c 128,-1,8
 139 760 139 760 139 1003 c 2,9,-1
 139 1456 l 1,10,-1
 431 1456 l 1,11,-1
 431 1003 l 2,12,13
 431 861 431 861 494.5 807 c 128,-1,14
 558 753 558 753 700 753 c 0,15,16
 762 753 762 753 845.5 761.5 c 128,-1,17
 929 770 929 770 995 786 c 1,18,-1
 995 1456 l 1,19,-1
 1288 1456 l 1,0,-1
EndSplineSet
Validated: 1
EndChar

StartChar: uni0428
Encoding: 1064 1064 468
Width: 2119
GlyphClass: 1
Flags: W
LayerCount: 2
Fore
SplineSet
421 1456 m 1,0,-1
 421 224 l 1,1,-1
 918 224 l 1,2,-1
 918 1456 l 1,3,-1
 1209 1456 l 1,4,-1
 1209 224 l 1,5,-1
 1702 224 l 1,6,-1
 1702 1456 l 1,7,-1
 1994 1456 l 1,8,-1
 1994 0 l 1,9,-1
 129 0 l 1,10,-1
 129 1456 l 1,11,-1
 421 1456 l 1,0,-1
EndSplineSet
Validated: 1
EndChar

StartChar: uni0429
Encoding: 1065 1065 469
Width: 2275
GlyphClass: 1
Flags: W
LayerCount: 2
Fore
SplineSet
421 1456 m 1,0,-1
 421 224 l 1,1,-1
 918 224 l 1,2,-1
 918 1456 l 1,3,-1
 1209 1456 l 1,4,-1
 1209 224 l 1,5,-1
 1702 224 l 1,6,-1
 1702 1456 l 1,7,-1
 1994 1456 l 1,8,-1
 1994 208 l 1,9,-1
 2220 208 l 1,10,-1
 2220 -349 l 1,11,-1
 1928 -349 l 1,12,-1
 1928 0 l 1,13,-1
 129 0 l 1,14,-1
 129 1456 l 1,15,-1
 421 1456 l 1,0,-1
EndSplineSet
Validated: 1
EndChar

StartChar: uni042A
Encoding: 1066 1066 470
Width: 1474
GlyphClass: 1
Flags: W
LayerCount: 2
Fore
SplineSet
6 1456 m 1,0,-1
 587 1456 l 1,1,-1
 587 944 l 1,2,-1
 837 944 l 2,3,4
 1088 944 1088 944 1236 813 c 128,-1,5
 1384 682 1384 682 1384 474 c 0,6,7
 1384 264 1384 264 1235.5 132 c 128,-1,8
 1087 0 1087 0 837 0 c 2,9,-1
 295 0 l 1,10,-1
 295 1231 l 1,11,-1
 6 1231 l 1,12,-1
 6 1456 l 1,0,-1
587 719 m 1,13,-1
 587 224 l 1,14,-1
 837 224 l 2,15,16
 960 224 960 224 1026.5 297 c 128,-1,17
 1093 370 1093 370 1093 476 c 0,18,19
 1093 578 1093 578 1026.5 648.5 c 128,-1,20
 960 719 960 719 837 719 c 2,21,-1
 587 719 l 1,13,-1
EndSplineSet
Validated: 1
EndChar

StartChar: uni042B
Encoding: 1067 1067 471
Width: 1777
GlyphClass: 1
Flags: W
LayerCount: 2
Fore
SplineSet
424 944 m 1,0,-1
 674 944 l 2,1,2
 925 944 925 944 1073 813 c 128,-1,3
 1221 682 1221 682 1221 474 c 0,4,5
 1221 264 1221 264 1072.5 132 c 128,-1,6
 924 0 924 0 674 0 c 2,7,-1
 132 0 l 1,8,-1
 132 1456 l 1,9,-1
 424 1456 l 1,10,-1
 424 944 l 1,0,-1
1644 0 m 1,11,-1
 1352 0 l 1,12,-1
 1352 1456 l 1,13,-1
 1644 1456 l 1,14,-1
 1644 0 l 1,11,-1
424 719 m 1,15,-1
 424 224 l 1,16,-1
 674 224 l 2,17,18
 797 224 797 224 863.5 297 c 128,-1,19
 930 370 930 370 930 476 c 0,20,21
 930 578 930 578 863.5 648.5 c 128,-1,22
 797 719 797 719 674 719 c 2,23,-1
 424 719 l 1,15,-1
EndSplineSet
Validated: 1
EndChar

StartChar: uni042C
Encoding: 1068 1068 472
Width: 1283
GlyphClass: 1
Flags: W
LayerCount: 2
Fore
SplineSet
424 944 m 1,0,-1
 674 944 l 2,1,2
 925 944 925 944 1073 813 c 128,-1,3
 1221 682 1221 682 1221 474 c 0,4,5
 1221 264 1221 264 1072.5 132 c 128,-1,6
 924 0 924 0 674 0 c 2,7,-1
 132 0 l 1,8,-1
 132 1456 l 1,9,-1
 424 1456 l 1,10,-1
 424 944 l 1,0,-1
424 719 m 1,11,-1
 424 224 l 1,12,-1
 674 224 l 2,13,14
 797 224 797 224 863.5 297 c 128,-1,15
 930 370 930 370 930 476 c 0,16,17
 930 578 930 578 863.5 648.5 c 128,-1,18
 797 719 797 719 674 719 c 2,19,-1
 424 719 l 1,11,-1
EndSplineSet
Validated: 1
EndChar

StartChar: uni042D
Encoding: 1069 1069 473
Width: 1288
GlyphClass: 1
Flags: W
LayerCount: 2
Fore
SplineSet
94 974 m 1,0,-1
 92 980 l 1,1,2
 87 1212 87 1212 229.5 1345 c 128,-1,3
 372 1478 372 1478 629 1478 c 0,4,5
 882 1478 882 1478 1036.5 1309 c 128,-1,6
 1191 1140 1191 1140 1191 873 c 2,7,-1
 1191 584 l 2,8,9
 1191 316 1191 316 1036.5 148 c 128,-1,10
 882 -20 882 -20 629 -20 c 0,11,12
 370 -20 370 -20 228 108.5 c 128,-1,13
 86 237 86 237 91 475 c 1,14,-1
 93 481 l 1,15,-1
 376 481 l 1,16,17
 376 339 376 339 436.5 271.5 c 128,-1,18
 497 204 497 204 629 204 c 0,19,20
 758 204 758 204 828 308.5 c 128,-1,21
 898 413 898 413 898 582 c 2,22,-1
 898 625 l 1,23,-1
 451 625 l 1,24,-1
 451 850 l 1,25,-1
 898 850 l 1,26,-1
 898 873 l 2,27,28
 898 1041 898 1041 828 1147 c 128,-1,29
 758 1253 758 1253 629 1253 c 0,30,31
 498 1253 498 1253 438 1184.5 c 128,-1,32
 378 1116 378 1116 378 974 c 1,33,-1
 94 974 l 1,0,-1
EndSplineSet
Validated: 33
EndChar

StartChar: uni042E
Encoding: 1070 1070 474
Width: 1935
GlyphClass: 1
Flags: W
LayerCount: 2
Fore
SplineSet
1792 597 m 2,0,1
 1792 328 1792 328 1623 153.5 c 128,-1,2
 1454 -21 1454 -21 1183 -21 c 0,3,4
 913 -21 913 -21 745 154 c 128,-1,5
 577 329 577 329 577 597 c 2,6,-1
 577 604 l 1,7,-1
 446 604 l 1,8,-1
 446 0 l 1,9,-1
 154 0 l 1,10,-1
 154 1456 l 1,11,-1
 446 1456 l 1,12,-1
 446 829 l 1,13,-1
 577 829 l 1,14,-1
 577 859 l 2,15,16
 577 1126 577 1126 744.5 1301.5 c 128,-1,17
 912 1477 912 1477 1181 1477 c 0,18,19
 1452 1477 1452 1477 1622 1301.5 c 128,-1,20
 1792 1126 1792 1126 1792 859 c 2,21,-1
 1792 597 l 2,0,1
1501 861 m 2,22,23
 1501 1031 1501 1031 1416 1140 c 128,-1,24
 1331 1249 1331 1249 1181 1249 c 0,25,26
 1033 1249 1033 1249 950.5 1140 c 128,-1,27
 868 1031 868 1031 868 861 c 2,28,-1
 868 597 l 2,29,30
 868 424 868 424 951 315 c 128,-1,31
 1034 206 1034 206 1183 206 c 0,32,33
 1333 206 1333 206 1417 315 c 128,-1,34
 1501 424 1501 424 1501 597 c 2,35,-1
 1501 861 l 2,22,23
EndSplineSet
Validated: 1
EndChar

StartChar: uni042F
Encoding: 1071 1071 475
Width: 1203
GlyphClass: 1
Flags: W
LayerCount: 2
Fore
SplineSet
284 0 m 1,0,-1
 -32 0 l 1,1,-1
 283 650 l 1,2,3
 169 709 169 709 111 802.5 c 128,-1,4
 53 896 53 896 53 1023 c 0,5,6
 53 1229 53 1229 195.5 1342.5 c 128,-1,7
 338 1456 338 1456 588 1456 c 2,8,-1
 1093 1456 l 1,9,-1
 1093 0 l 1,10,-1
 801 0 l 1,11,-1
 801 561 l 1,12,-1
 554 561 l 1,13,-1
 284 0 l 1,0,-1
801 1231 m 1,14,-1
 588 1231 l 2,15,16
 468 1231 468 1231 406 1173 c 128,-1,17
 344 1115 344 1115 344 1010 c 256,18,19
 344 905 344 905 407 839.5 c 128,-1,20
 470 774 470 774 588 774 c 2,21,-1
 801 774 l 1,22,-1
 801 1231 l 1,14,-1
EndSplineSet
Validated: 1
EndChar

StartChar: uni0431
Encoding: 1073 1073 477
Width: 1148
GlyphClass: 1
Flags: W
LayerCount: 2
Fore
SplineSet
600 1102 m 0,0,1
 828 1102 828 1102 957 948 c 128,-1,2
 1086 794 1086 794 1086 551 c 2,3,-1
 1086 530 l 2,4,5
 1086 286 1086 286 950.5 132.5 c 128,-1,6
 815 -21 815 -21 577 -21 c 0,7,8
 336 -21 336 -21 200.5 132.5 c 128,-1,9
 65 286 65 286 65 530 c 2,10,-1
 65 551 l 2,11,12
 65 557 65 557 65 561.5 c 128,-1,13
 65 566 65 566 66 571 c 2,14,-1
 66 802 l 2,15,16
 66 1136 66 1136 187.5 1283.5 c 128,-1,17
 309 1431 309 1431 569 1438 c 0,18,19
 701 1441 701 1441 763.5 1467.5 c 128,-1,20
 826 1494 826 1494 826 1557 c 1,21,-1
 1052 1557 l 1,22,-1
 1053 1551 l 1,23,24
 1058 1359 1058 1359 945.5 1284.5 c 128,-1,25
 833 1210 833 1210 594 1206 c 0,26,27
 446 1203 446 1203 369.5 1142 c 128,-1,28
 293 1081 293 1081 300 978 c 1,29,-1
 303 973 l 1,30,31
 354 1029 354 1029 432.5 1065.5 c 128,-1,32
 511 1102 511 1102 600 1102 c 0,0,1
575 877 m 256,33,34
 461 877 461 877 409 786 c 128,-1,35
 357 695 357 695 357 551 c 2,36,-1
 357 530 l 2,37,38
 357 382 357 382 409 292.5 c 128,-1,39
 461 203 461 203 577 203 c 0,40,41
 690 203 690 203 742.5 293 c 128,-1,42
 795 383 795 383 795 530 c 2,43,-1
 795 551 l 2,44,45
 795 695 795 695 742 786 c 128,-1,46
 689 877 689 877 575 877 c 256,33,34
EndSplineSet
Validated: 33
EndChar

StartChar: uni0432
Encoding: 1074 1074 478
Width: 1156
GlyphClass: 1
Flags: W
LayerCount: 2
Fore
SplineSet
127 0 m 1,0,-1
 127 1082 l 1,1,-1
 579 1082 l 2,2,3
 795 1082 795 1082 915.5 1006 c 128,-1,4
 1036 930 1036 930 1036 780 c 0,5,6
 1036 704 1036 704 985.5 645 c 128,-1,7
 935 586 935 586 842 555 c 1,8,9
 965 531 965 531 1028.5 464.5 c 128,-1,10
 1092 398 1092 398 1092 309 c 0,11,12
 1092 156 1092 156 977.5 78 c 128,-1,13
 863 0 863 0 649 0 c 2,14,-1
 127 0 l 1,0,-1
419 451 m 1,15,-1
 419 222 l 1,16,-1
 649 222 l 2,17,18
 726 222 726 222 763 250.5 c 128,-1,19
 800 279 800 279 800 335 c 256,20,21
 800 391 800 391 764.5 421 c 128,-1,22
 729 451 729 451 649 451 c 2,23,-1
 419 451 l 1,15,-1
419 641 m 1,24,-1
 587 641 l 2,25,26
 668 641 668 641 706.5 667 c 128,-1,27
 745 693 745 693 745 745 c 0,28,29
 745 804 745 804 704 831.5 c 128,-1,30
 663 859 663 859 579 859 c 2,31,-1
 419 859 l 1,32,-1
 419 641 l 1,24,-1
EndSplineSet
Validated: 1
EndChar

StartChar: uni0433
Encoding: 1075 1075 479
Width: 855
GlyphClass: 1
Flags: W
LayerCount: 2
Fore
SplineSet
846 856 m 1,0,-1
 399 856 l 1,1,-1
 399 0 l 1,2,-1
 107 0 l 1,3,-1
 107 1082 l 1,4,-1
 846 1082 l 1,5,-1
 846 856 l 1,0,-1
EndSplineSet
Validated: 1
EndChar

StartChar: uni0434
Encoding: 1076 1076 480
Width: 1365
GlyphClass: 1
Flags: W
LayerCount: 2
Fore
SplineSet
142 224 m 1,0,-1
 142 225 l 1,1,-1
 173 225 l 2,2,3
 252 225 252 225 284.5 320 c 128,-1,4
 317 415 317 415 328 639 c 2,5,-1
 350 1082 l 1,6,-1
 1151 1082 l 1,7,-1
 1151 224 l 1,8,-1
 1300 224 l 1,9,-1
 1300 -358 l 1,10,-1
 1008 -358 l 1,11,-1
 1008 0 l 1,12,-1
 365 0 l 1,13,-1
 365 -358 l 1,14,-1
 73 -358 l 1,15,-1
 73 224 l 1,16,-1
 142 224 l 1,0,-1
619 639 m 2,17,18
 612 506 612 506 593.5 402.5 c 128,-1,19
 575 299 575 299 542 224 c 1,20,-1
 860 224 l 1,21,-1
 860 849 l 1,22,-1
 630 849 l 1,23,-1
 619 639 l 2,17,18
EndSplineSet
Validated: 1
EndChar

StartChar: uni0436
Encoding: 1078 1078 482
Width: 1661
GlyphClass: 1
Flags: W
LayerCount: 2
Fore
SplineSet
1055 408 m 1,0,-1
 974 408 l 1,1,-1
 974 0 l 1,2,-1
 684 0 l 1,3,-1
 684 408 l 1,4,-1
 605 408 l 1,5,-1
 391 0 l 1,6,-1
 17 0 l 1,7,-1
 371 586 l 1,8,-1
 35 1082 l 1,9,-1
 403 1082 l 1,10,-1
 626 674 l 1,11,-1
 684 674 l 1,12,-1
 684 1082 l 1,13,-1
 974 1082 l 1,14,-1
 974 674 l 1,15,-1
 1035 674 l 1,16,-1
 1257 1082 l 1,17,-1
 1626 1082 l 1,18,-1
 1289 585 l 1,19,-1
 1642 0 l 1,20,-1
 1269 0 l 1,21,-1
 1055 408 l 1,0,-1
EndSplineSet
Validated: 1
EndChar

StartChar: uni0437
Encoding: 1079 1079 483
Width: 1140
GlyphClass: 1
Flags: W
LayerCount: 2
Fore
SplineSet
568 646 m 2,0,1
 653 646 653 646 697.5 677.5 c 128,-1,2
 742 709 742 709 742 765 c 0,3,4
 742 816 742 816 699 852.5 c 128,-1,5
 656 889 656 889 569 889 c 0,6,7
 489 889 489 889 440 857 c 128,-1,8
 391 825 391 825 391 771 c 1,9,-1
 110 771 l 1,10,-1
 108 777 l 1,11,12
 102 922 102 922 231 1011.5 c 128,-1,13
 360 1101 360 1101 554 1101 c 0,14,15
 773 1101 773 1101 903 1018.5 c 128,-1,16
 1033 936 1033 936 1033 786 c 0,17,18
 1033 714 1033 714 984.5 653.5 c 128,-1,19
 936 593 936 593 851 557 c 1,20,21
 949 524 949 524 1001 460 c 128,-1,22
 1053 396 1053 396 1053 306 c 0,23,24
 1053 155 1053 155 913 67.5 c 128,-1,25
 773 -20 773 -20 554 -20 c 0,26,27
 361 -20 361 -20 223 66 c 128,-1,28
 85 152 85 152 91 314 c 1,29,-1
 93 320 l 1,30,-1
 374 320 l 1,31,32
 374 265 374 265 425 227.5 c 128,-1,33
 476 190 476 190 570 190 c 0,34,35
 661 190 661 190 711.5 229.5 c 128,-1,36
 762 269 762 269 762 325 c 0,37,38
 762 394 762 394 712 427 c 128,-1,39
 662 460 662 460 568 460 c 2,40,-1
 392 460 l 1,41,-1
 392 646 l 1,42,-1
 568 646 l 2,0,1
EndSplineSet
Validated: 33
EndChar

StartChar: uni0438
Encoding: 1080 1080 484
Width: 1156
GlyphClass: 1
Flags: W
LayerCount: 2
Fore
SplineSet
758 1082 m 1,0,-1
 1049 1082 l 1,1,-1
 1049 0 l 1,2,-1
 758 0 l 1,3,-1
 758 660 l 1,4,-1
 752 661 l 1,5,-1
 399 0 l 1,6,-1
 107 0 l 1,7,-1
 107 1082 l 1,8,-1
 399 1082 l 1,9,-1
 399 424 l 1,10,-1
 405 423 l 1,11,-1
 758 1082 l 1,0,-1
EndSplineSet
Validated: 1
EndChar

StartChar: uni043A
Encoding: 1082 1082 486
Width: 1167
GlyphClass: 1
Flags: W
LayerCount: 2
Fore
SplineSet
533 405 m 1,0,-1
 421 405 l 1,1,-1
 421 0 l 1,2,-1
 129 0 l 1,3,-1
 129 1082 l 1,4,-1
 421 1082 l 1,5,-1
 421 670 l 1,6,-1
 508 670 l 1,7,-1
 756 1082 l 1,8,-1
 1125 1082 l 1,9,-1
 767 580 l 1,10,-1
 1157 0 l 1,11,-1
 768 0 l 1,12,-1
 533 405 l 1,0,-1
EndSplineSet
Validated: 1
EndChar

StartChar: uni043B
Encoding: 1083 1083 487
Width: 1149
GlyphClass: 1
Flags: W
LayerCount: 2
Fore
SplineSet
1049 1082 m 1,0,-1
 1049 0 l 1,1,-1
 758 0 l 1,2,-1
 758 856 l 1,3,-1
 498 856 l 1,4,-1
 498 621 l 2,5,6
 498 301 498 301 400 150.5 c 128,-1,7
 302 0 302 0 65 0 c 2,8,-1
 18 0 l 1,9,-1
 15 230 l 1,10,-1
 46 231 l 2,11,12
 146 231 146 231 176 313 c 128,-1,13
 206 395 206 395 206 621 c 2,14,-1
 206 1082 l 1,15,-1
 1049 1082 l 1,0,-1
EndSplineSet
Validated: 1
EndChar

StartChar: uni043C
Encoding: 1084 1084 488
Width: 1557
GlyphClass: 1
Flags: W
LayerCount: 2
Fore
SplineSet
766 340 m 1,0,-1
 772 340 l 1,1,-1
 1051 1082 l 1,2,-1
 1416 1082 l 1,3,-1
 1416 0 l 1,4,-1
 1125 0 l 1,5,-1
 1125 646 l 1,6,-1
 1119 647 l 1,7,-1
 868 0 l 1,8,-1
 672 0 l 1,9,-1
 427 633 l 1,10,-1
 421 632 l 1,11,-1
 421 0 l 1,12,-1
 129 0 l 1,13,-1
 129 1082 l 1,14,-1
 491 1082 l 1,15,-1
 766 340 l 1,0,-1
EndSplineSet
Validated: 1
EndChar

StartChar: uni043D
Encoding: 1085 1085 489
Width: 1156
GlyphClass: 1
Flags: W
LayerCount: 2
Fore
SplineSet
1047 0 m 1,0,-1
 755 0 l 1,1,-1
 755 420 l 1,2,-1
 399 420 l 1,3,-1
 399 0 l 1,4,-1
 107 0 l 1,5,-1
 107 1082 l 1,6,-1
 399 1082 l 1,7,-1
 399 644 l 1,8,-1
 755 644 l 1,9,-1
 755 1082 l 1,10,-1
 1047 1082 l 1,11,-1
 1047 0 l 1,0,-1
EndSplineSet
Validated: 1
EndChar

StartChar: uni043F
Encoding: 1087 1087 491
Width: 1156
GlyphClass: 1
Flags: W
LayerCount: 2
Fore
SplineSet
1049 0 m 1,0,-1
 757 0 l 1,1,-1
 757 856 l 1,2,-1
 399 856 l 1,3,-1
 399 0 l 1,4,-1
 107 0 l 1,5,-1
 107 1082 l 1,6,-1
 1049 1082 l 1,7,-1
 1049 0 l 1,0,-1
EndSplineSet
Validated: 1
EndChar

StartChar: uni0441
Encoding: 1089 1089 493
Width: 1056
GlyphClass: 1
Flags: W
LayerCount: 2
Fore
SplineSet
564 203 m 0,0,1
 640 203 640 203 685 248.5 c 128,-1,2
 730 294 730 294 730 370 c 1,3,-1
 996 370 l 1,4,-1
 998 364 l 1,5,6
 1002 200 1002 200 876 89.5 c 128,-1,7
 750 -21 750 -21 564 -21 c 0,8,9
 324 -21 324 -21 193 132.5 c 128,-1,10
 62 286 62 286 62 525 c 2,11,-1
 62 555 l 2,12,13
 62 793 62 793 192.5 947.5 c 128,-1,14
 323 1102 323 1102 562 1102 c 0,15,16
 760 1102 760 1102 881 988 c 128,-1,17
 1002 874 1002 874 998 688 c 1,18,-1
 996 682 l 1,19,-1
 730 682 l 1,20,21
 730 766 730 766 685.5 821.5 c 128,-1,22
 641 877 641 877 562 877 c 0,23,24
 449 877 449 877 401.5 786.5 c 128,-1,25
 354 696 354 696 354 555 c 2,26,-1
 354 525 l 2,27,28
 354 381 354 381 401.5 292 c 128,-1,29
 449 203 449 203 564 203 c 0,0,1
EndSplineSet
Validated: 33
EndChar

StartChar: uni0442
Encoding: 1090 1090 494
Width: 1070
GlyphClass: 1
Flags: W
LayerCount: 2
Fore
SplineSet
1028 859 m 1,0,-1
 682 859 l 1,1,-1
 682 0 l 1,2,-1
 389 0 l 1,3,-1
 389 859 l 1,4,-1
 48 859 l 1,5,-1
 48 1082 l 1,6,-1
 1028 1082 l 1,7,-1
 1028 859 l 1,0,-1
EndSplineSet
Validated: 1
EndChar

StartChar: uni0444
Encoding: 1092 1092 496
Width: 1790
GlyphClass: 1
Flags: W
LayerCount: 2
Fore
SplineSet
62 532 m 2,0,1
 62 788 62 788 173 945 c 128,-1,2
 284 1102 284 1102 485 1102 c 0,3,4
 566 1102 566 1102 630 1070 c 128,-1,5
 694 1038 694 1038 742 979 c 1,6,-1
 742 1560 l 1,7,-1
 1034 1560 l 1,8,-1
 1034 975 l 1,9,10
 1081 1036 1081 1036 1146 1069 c 128,-1,11
 1211 1102 1211 1102 1295 1102 c 0,12,13
 1496 1102 1496 1102 1607.5 945 c 128,-1,14
 1719 788 1719 788 1719 532 c 2,15,-1
 1719 511 l 2,16,17
 1719 271 1719 271 1608 125 c 128,-1,18
 1497 -21 1497 -21 1297 -21 c 0,19,20
 1212 -21 1212 -21 1147 9.5 c 128,-1,21
 1082 40 1082 40 1034 98 c 1,22,-1
 1034 -416 l 1,23,-1
 742 -416 l 1,24,-1
 742 96 l 1,25,26
 693 38 693 38 628.5 8.5 c 128,-1,27
 564 -21 564 -21 483 -21 c 0,28,29
 284 -21 284 -21 173 125 c 128,-1,30
 62 271 62 271 62 511 c 2,31,-1
 62 532 l 2,0,1
1426 532 m 2,32,33
 1426 685 1426 685 1375.5 781 c 128,-1,34
 1325 877 1325 877 1219 877 c 0,35,36
 1153 877 1153 877 1107 850 c 128,-1,37
 1061 823 1061 823 1034 773 c 1,38,-1
 1034 297 l 1,39,40
 1061 251 1061 251 1107 227 c 128,-1,41
 1153 203 1153 203 1221 203 c 0,42,43
 1328 203 1328 203 1377 286 c 128,-1,44
 1426 369 1426 369 1426 511 c 2,45,-1
 1426 532 l 2,32,33
354 511 m 2,46,47
 354 368 354 368 401.5 285.5 c 128,-1,48
 449 203 449 203 557 203 c 0,49,50
 621 203 621 203 667 226.5 c 128,-1,51
 713 250 713 250 742 296 c 1,52,-1
 742 777 l 1,53,54
 713 825 713 825 667.5 851 c 128,-1,55
 622 877 622 877 559 877 c 0,56,57
 452 877 452 877 403 781.5 c 128,-1,58
 354 686 354 686 354 532 c 2,59,-1
 354 511 l 2,46,47
EndSplineSet
Validated: 1
EndChar

StartChar: uni0446
Encoding: 1094 1094 498
Width: 1247
GlyphClass: 1
Flags: W
LayerCount: 2
Fore
SplineSet
107 1082 m 1,0,-1
 399 1082 l 1,1,-1
 399 224 l 1,2,-1
 757 224 l 1,3,-1
 757 1082 l 1,4,-1
 1049 1082 l 1,5,-1
 1049 224 l 1,6,-1
 1205 224 l 1,7,-1
 1205 -358 l 1,8,-1
 914 -358 l 1,9,-1
 914 0 l 1,10,-1
 107 0 l 1,11,-1
 107 1082 l 1,0,-1
EndSplineSet
Validated: 1
EndChar

StartChar: uni0447
Encoding: 1095 1095 499
Width: 1147
GlyphClass: 1
Flags: W
LayerCount: 2
Fore
SplineSet
1041 0 m 1,0,-1
 749 0 l 1,1,-1
 749 343 l 1,2,3
 712 335 712 335 673.5 331.5 c 128,-1,4
 635 328 635 328 601 328 c 0,5,6
 362 328 362 328 232.5 430 c 128,-1,7
 103 532 103 532 103 742 c 2,8,-1
 103 1082 l 1,9,-1
 395 1082 l 1,10,-1
 395 742 l 2,11,12
 395 635 395 635 442 594 c 128,-1,13
 489 553 489 553 601 553 c 0,14,15
 638 553 638 553 674.5 557 c 128,-1,16
 711 561 711 561 749 569 c 1,17,-1
 749 1082 l 1,18,-1
 1041 1082 l 1,19,-1
 1041 0 l 1,0,-1
EndSplineSet
Validated: 1
EndChar

StartChar: uni0448
Encoding: 1096 1096 500
Width: 1691
GlyphClass: 1
Flags: W
LayerCount: 2
Fore
SplineSet
399 1082 m 1,0,-1
 399 224 l 1,1,-1
 693 224 l 1,2,-1
 693 1082 l 1,3,-1
 986 1082 l 1,4,-1
 986 224 l 1,5,-1
 1280 224 l 1,6,-1
 1280 1082 l 1,7,-1
 1572 1082 l 1,8,-1
 1572 0 l 1,9,-1
 107 0 l 1,10,-1
 107 1082 l 1,11,-1
 399 1082 l 1,0,-1
EndSplineSet
Validated: 1
EndChar

StartChar: uni0449
Encoding: 1097 1097 501
Width: 1855
GlyphClass: 1
Flags: W
LayerCount: 2
Fore
SplineSet
399 1082 m 1,0,-1
 399 224 l 1,1,-1
 693 224 l 1,2,-1
 693 1082 l 1,3,-1
 986 1082 l 1,4,-1
 986 224 l 1,5,-1
 1280 224 l 1,6,-1
 1280 1082 l 1,7,-1
 1572 1082 l 1,8,-1
 1572 229 l 1,9,-1
 1795 229 l 1,10,-1
 1795 -360 l 1,11,-1
 1503 -360 l 1,12,-1
 1503 0 l 1,13,-1
 107 0 l 1,14,-1
 107 1082 l 1,15,-1
 399 1082 l 1,0,-1
EndSplineSet
Validated: 1
EndChar

StartChar: uni044A
Encoding: 1098 1098 502
Width: 1302
GlyphClass: 1
Flags: W
LayerCount: 2
Fore
SplineSet
620 732 m 1,0,-1
 823 732 l 2,1,2
 1041 732 1041 732 1166 631.5 c 128,-1,3
 1291 531 1291 531 1291 368 c 0,4,5
 1291 203 1291 203 1166 101.5 c 128,-1,6
 1041 0 1041 0 823 0 c 2,7,-1
 327 0 l 1,8,-1
 327 856 l 1,9,-1
 14 856 l 1,10,-1
 14 1082 l 1,11,-1
 620 1082 l 1,12,-1
 620 732 l 1,0,-1
620 508 m 1,13,-1
 620 223 l 1,14,-1
 823 223 l 2,15,16
 912 223 912 223 956 263 c 128,-1,17
 1000 303 1000 303 1000 366 c 0,18,19
 1000 427 1000 427 956 467.5 c 128,-1,20
 912 508 912 508 823 508 c 2,21,-1
 620 508 l 1,13,-1
EndSplineSet
Validated: 1
EndChar

StartChar: uni044B
Encoding: 1099 1099 503
Width: 1703
GlyphClass: 1
Flags: W
LayerCount: 2
Fore
SplineSet
442 732 m 1,0,-1
 645 732 l 2,1,2
 863 732 863 732 988 631.5 c 128,-1,3
 1113 531 1113 531 1113 368 c 0,4,5
 1113 203 1113 203 988 101.5 c 128,-1,6
 863 0 863 0 645 0 c 2,7,-1
 149 0 l 1,8,-1
 149 1082 l 1,9,-1
 442 1082 l 1,10,-1
 442 732 l 1,0,-1
1507 0 m 1,11,-1
 1215 0 l 1,12,-1
 1215 1082 l 1,13,-1
 1507 1082 l 1,14,-1
 1507 0 l 1,11,-1
442 508 m 1,15,-1
 442 223 l 1,16,-1
 645 223 l 2,17,18
 734 223 734 223 778 263 c 128,-1,19
 822 303 822 303 822 366 c 0,20,21
 822 427 822 427 778 467.5 c 128,-1,22
 734 508 734 508 645 508 c 2,23,-1
 442 508 l 1,15,-1
EndSplineSet
Validated: 1
EndChar

StartChar: uni044C
Encoding: 1100 1100 504
Width: 1143
GlyphClass: 1
Flags: W
LayerCount: 2
Fore
SplineSet
422 732 m 1,0,-1
 625 732 l 2,1,2
 843 732 843 732 968 631.5 c 128,-1,3
 1093 531 1093 531 1093 368 c 0,4,5
 1093 203 1093 203 968 101.5 c 128,-1,6
 843 0 843 0 625 0 c 2,7,-1
 129 0 l 1,8,-1
 129 1082 l 1,9,-1
 422 1082 l 1,10,-1
 422 732 l 1,0,-1
422 508 m 1,11,-1
 422 223 l 1,12,-1
 625 223 l 2,13,14
 714 223 714 223 758 263 c 128,-1,15
 802 303 802 303 802 366 c 0,16,17
 802 427 802 427 758 467.5 c 128,-1,18
 714 508 714 508 625 508 c 2,19,-1
 422 508 l 1,11,-1
EndSplineSet
Validated: 1
EndChar

StartChar: uni044D
Encoding: 1101 1101 505
Width: 1064
GlyphClass: 1
Flags: W
LayerCount: 2
Fore
SplineSet
505 877 m 0,0,1
 428 877 428 877 382 831 c 128,-1,2
 336 785 336 785 336 711 c 1,3,-1
 70 711 l 1,4,-1
 68 717 l 1,5,6
 63 880 63 880 190 991 c 128,-1,7
 317 1102 317 1102 505 1102 c 0,8,9
 742 1102 742 1102 874 947.5 c 128,-1,10
 1006 793 1006 793 1006 555 c 2,11,-1
 1006 525 l 2,12,13
 1006 287 1006 287 874 133 c 128,-1,14
 742 -21 742 -21 506 -21 c 0,15,16
 307 -21 307 -21 185 92.5 c 128,-1,17
 63 206 63 206 68 393 c 1,18,-1
 70 399 l 1,19,-1
 336 399 l 1,20,21
 336 314 336 314 381 258.5 c 128,-1,22
 426 203 426 203 506 203 c 0,23,24
 602 203 602 203 650.5 272.5 c 128,-1,25
 699 342 699 342 707 453 c 1,26,-1
 704 458 l 1,27,-1
 423 458 l 1,28,-1
 423 633 l 1,29,-1
 703 633 l 1,30,-1
 705 638 l 1,31,32
 697 744 697 744 648.5 810.5 c 128,-1,33
 600 877 600 877 505 877 c 0,0,1
EndSplineSet
Validated: 33
EndChar

StartChar: uni044E
Encoding: 1102 1102 506
Width: 1662
GlyphClass: 1
Flags: W
LayerCount: 2
Fore
SplineSet
425 663 m 1,0,-1
 581 663 l 1,1,2
 611 861 611 861 742 981.5 c 128,-1,3
 873 1102 873 1102 1082 1102 c 0,4,5
 1322 1102 1322 1102 1458 948 c 128,-1,6
 1594 794 1594 794 1594 551 c 2,7,-1
 1594 530 l 2,8,9
 1594 286 1594 286 1458.5 132.5 c 128,-1,10
 1323 -21 1323 -21 1084 -21 c 0,11,12
 868 -21 868 -21 735.5 104.5 c 128,-1,13
 603 230 603 230 578 438 c 1,14,-1
 425 438 l 1,15,-1
 425 0 l 1,16,-1
 133 0 l 1,17,-1
 133 1082 l 1,18,-1
 425 1082 l 1,19,-1
 425 663 l 1,0,-1
864 530 m 2,20,21
 864 382 864 382 916 292.5 c 128,-1,22
 968 203 968 203 1084 203 c 0,23,24
 1197 203 1197 203 1249.5 293 c 128,-1,25
 1302 383 1302 383 1302 530 c 2,26,-1
 1302 551 l 2,27,28
 1302 695 1302 695 1249 786 c 128,-1,29
 1196 877 1196 877 1082 877 c 0,30,31
 969 877 969 877 916.5 785.5 c 128,-1,32
 864 694 864 694 864 551 c 2,33,-1
 864 530 l 2,20,21
EndSplineSet
Validated: 1
EndChar

StartChar: uni044F
Encoding: 1103 1103 507
Width: 1156
GlyphClass: 1
Flags: W
LayerCount: 2
Fore
SplineSet
1024 1082 m 1,0,-1
 1024 0 l 1,1,-1
 734 0 l 1,2,-1
 734 379 l 1,3,-1
 558 379 l 1,4,-1
 346 0 l 1,5,-1
 51 0 l 1,6,-1
 290 427 l 1,7,8
 191 471 191 471 137.5 548 c 128,-1,9
 84 625 84 625 84 723 c 0,10,11
 84 881 84 881 209.5 981.5 c 128,-1,12
 335 1082 335 1082 548 1082 c 2,13,-1
 1024 1082 l 1,0,-1
376 715 m 256,14,15
 376 659 376 659 419.5 617.5 c 128,-1,16
 463 576 463 576 543 576 c 2,17,-1
 734 576 l 1,18,-1
 734 859 l 1,19,-1
 548 859 l 2,20,21
 466 859 466 859 421 815 c 128,-1,22
 376 771 376 771 376 715 c 256,14,15
EndSplineSet
Validated: 1
EndChar

StartChar: uni0452
Encoding: 1106 1106 510
Width: 1156
GlyphClass: 1
Flags: W
LayerCount: 2
Fore
SplineSet
554 1206 m 1,0,-1
 397 1206 l 1,1,-1
 397 945 l 1,2,3
 448 1019 448 1019 522 1060.5 c 128,-1,4
 596 1102 596 1102 686 1102 c 0,5,6
 855 1102 855 1102 951.5 989.5 c 128,-1,7
 1048 877 1048 877 1048 642 c 2,8,-1
 1048 470 l 1,9,-1
 1049 470 l 1,10,-1
 1049 -41 l 2,11,12
 1049 -231 1049 -231 948 -334 c 128,-1,13
 847 -437 847 -437 667 -437 c 0,14,15
 627 -437 627 -437 593 -433 c 128,-1,16
 559 -429 559 -429 523 -420 c 1,17,-1
 537 -200 l 1,18,19
 559 -206 559 -206 584 -209 c 128,-1,20
 609 -212 609 -212 636 -212 c 0,21,22
 693 -212 693 -212 724.5 -167.5 c 128,-1,23
 756 -123 756 -123 756 -41 c 2,24,-1
 756 644 l 2,25,26
 756 770 756 770 715.5 822.5 c 128,-1,27
 675 875 675 875 594 875 c 0,28,29
 527 875 527 875 477.5 853.5 c 128,-1,30
 428 832 428 832 397 792 c 1,31,-1
 397 0 l 1,32,-1
 105 0 l 1,33,-1
 105 1206 l 1,34,-1
 -35 1206 l 1,35,-1
 -35 1386 l 1,36,-1
 105 1386 l 1,37,-1
 105 1560 l 1,38,-1
 397 1560 l 1,39,-1
 397 1386 l 1,40,-1
 554 1386 l 1,41,-1
 554 1206 l 1,0,-1
EndSplineSet
Validated: 1
EndChar

StartChar: uni0454
Encoding: 1108 1108 512
Width: 1064
GlyphClass: 1
Flags: W
LayerCount: 2
Fore
SplineSet
564 203 m 0,0,1
 640 203 640 203 685 248.5 c 128,-1,2
 730 294 730 294 730 370 c 1,3,-1
 996 370 l 1,4,-1
 998 364 l 1,5,6
 1002 200 1002 200 876 89.5 c 128,-1,7
 750 -21 750 -21 564 -21 c 0,8,9
 324 -21 324 -21 193 132.5 c 128,-1,10
 62 286 62 286 62 525 c 2,11,-1
 62 555 l 2,12,13
 62 793 62 793 192.5 947.5 c 128,-1,14
 323 1102 323 1102 562 1102 c 0,15,16
 760 1102 760 1102 881 988 c 128,-1,17
 1002 874 1002 874 998 688 c 1,18,-1
 996 682 l 1,19,-1
 730 682 l 1,20,21
 730 766 730 766 685.5 821.5 c 128,-1,22
 641 877 641 877 562 877 c 0,23,24
 462 877 462 877 413.5 805.5 c 128,-1,25
 365 734 365 734 356 617 c 1,26,-1
 660 617 l 1,27,-1
 660 442 l 1,28,-1
 365 442 l 1,29,-1
 363 437 l 1,30,31
 370 331 370 331 418 267 c 128,-1,32
 466 203 466 203 564 203 c 0,0,1
EndSplineSet
Validated: 33
EndChar

StartChar: uni0459
Encoding: 1113 1113 517
Width: 1771
GlyphClass: 1
Flags: W
LayerCount: 2
Fore
SplineSet
1050 1082 m 1,0,-1
 1050 733 l 1,1,-1
 1253 733 l 2,2,3
 1471 733 1471 733 1596.5 632 c 128,-1,4
 1722 531 1722 531 1722 368 c 0,5,6
 1722 203 1722 203 1596.5 101.5 c 128,-1,7
 1471 0 1471 0 1253 0 c 2,8,-1
 758 0 l 1,9,-1
 758 856 l 1,10,-1
 526 856 l 1,11,-1
 526 621 l 2,12,13
 526 305 526 305 420 152.5 c 128,-1,14
 314 0 314 0 75 0 c 2,15,-1
 28 0 l 1,16,-1
 25 227 l 1,17,-1
 56 227 l 2,18,19
 146 227 146 227 190 323 c 128,-1,20
 234 419 234 419 234 621 c 2,21,-1
 234 1082 l 1,22,-1
 1050 1082 l 1,0,-1
1050 508 m 1,23,-1
 1050 222 l 1,24,-1
 1253 222 l 2,25,26
 1343 222 1343 222 1387 264 c 128,-1,27
 1431 306 1431 306 1431 370 c 0,28,29
 1431 430 1431 430 1387 469 c 128,-1,30
 1343 508 1343 508 1253 508 c 2,31,-1
 1050 508 l 1,23,-1
EndSplineSet
Validated: 1
EndChar

StartChar: uni045A
Encoding: 1114 1114 518
Width: 1768
GlyphClass: 1
Flags: W
LayerCount: 2
Fore
SplineSet
399 665 m 1,0,-1
 755 665 l 1,1,-1
 755 1082 l 1,2,-1
 1047 1082 l 1,3,-1
 1047 732 l 1,4,-1
 1250 732 l 2,5,6
 1468 732 1468 732 1593 631.5 c 128,-1,7
 1718 531 1718 531 1718 368 c 0,8,9
 1718 203 1718 203 1593 101.5 c 128,-1,10
 1468 0 1468 0 1250 0 c 2,11,-1
 755 0 l 1,12,-1
 755 441 l 1,13,-1
 399 441 l 1,14,-1
 399 0 l 1,15,-1
 107 0 l 1,16,-1
 107 1082 l 1,17,-1
 399 1082 l 1,18,-1
 399 665 l 1,0,-1
1047 508 m 1,19,-1
 1047 222 l 1,20,-1
 1250 222 l 2,21,22
 1339 222 1339 222 1383 264 c 128,-1,23
 1427 306 1427 306 1427 370 c 0,24,25
 1427 430 1427 430 1383 469 c 128,-1,26
 1339 508 1339 508 1250 508 c 2,27,-1
 1047 508 l 1,19,-1
EndSplineSet
Validated: 1
EndChar

StartChar: uni045B
Encoding: 1115 1115 519
Width: 1156
GlyphClass: 1
Flags: W
LayerCount: 2
Fore
SplineSet
700 1211 m 1,0,-1
 397 1211 l 1,1,-1
 397 945 l 1,2,3
 448 1019 448 1019 522 1060.5 c 128,-1,4
 596 1102 596 1102 686 1102 c 0,5,6
 855 1102 855 1102 951.5 989.5 c 128,-1,7
 1048 877 1048 877 1048 642 c 2,8,-1
 1048 0 l 1,9,-1
 756 0 l 1,10,-1
 756 644 l 2,11,12
 756 770 756 770 715.5 822.5 c 128,-1,13
 675 875 675 875 594 875 c 0,14,15
 527 875 527 875 477.5 853.5 c 128,-1,16
 428 832 428 832 397 792 c 1,17,-1
 397 0 l 1,18,-1
 105 0 l 1,19,-1
 105 1211 l 1,20,-1
 29 1211 l 1,21,-1
 29 1392 l 1,22,-1
 105 1392 l 1,23,-1
 105 1560 l 1,24,-1
 397 1560 l 1,25,-1
 397 1392 l 1,26,-1
 700 1392 l 1,27,-1
 700 1211 l 1,0,-1
EndSplineSet
Validated: 1
EndChar

StartChar: uni045F
Encoding: 1119 1119 523
Width: 1156
GlyphClass: 1
Flags: W
LayerCount: 2
Fore
SplineSet
399 1082 m 1,0,-1
 399 224 l 1,1,-1
 757 224 l 1,2,-1
 757 1082 l 1,3,-1
 1049 1082 l 1,4,-1
 1049 0 l 1,5,-1
 724 0 l 1,6,-1
 724 -358 l 1,7,-1
 433 -358 l 1,8,-1
 433 0 l 1,9,-1
 107 0 l 1,10,-1
 107 1082 l 1,11,-1
 399 1082 l 1,0,-1
EndSplineSet
Validated: 1
EndChar

StartChar: uni0460
Encoding: 1120 1120 524
Width: 1964
GlyphClass: 1
Flags: W
LayerCount: 2
Fore
SplineSet
1097 1435 m 1,0,1
 1154 1455 1154 1455 1219.5 1466 c 128,-1,2
 1285 1477 1285 1477 1356 1477 c 0,3,4
 1582 1477 1582 1477 1727.5 1310 c 128,-1,5
 1873 1143 1873 1143 1873 880 c 2,6,-1
 1873 576 l 2,7,8
 1873 311 1873 311 1723 145 c 128,-1,9
 1573 -21 1573 -21 1338 -21 c 0,10,11
 1226 -21 1226 -21 1139 1.5 c 128,-1,12
 1052 24 1052 24 985 64 c 1,13,14
 918 24 918 24 831 1.5 c 128,-1,15
 744 -21 744 -21 634 -21 c 0,16,17
 398 -21 398 -21 248.5 145 c 128,-1,18
 99 311 99 311 99 576 c 2,19,-1
 99 880 l 2,20,21
 99 1143 99 1143 244 1310 c 128,-1,22
 389 1477 389 1477 616 1477 c 0,23,24
 686 1477 686 1477 751.5 1466 c 128,-1,25
 817 1455 817 1455 875 1435 c 1,26,-1
 813 1222 l 1,27,28
 774 1236 774 1236 726 1244 c 128,-1,29
 678 1252 678 1252 623 1252 c 0,30,31
 518 1252 518 1252 454 1148.5 c 128,-1,32
 390 1045 390 1045 390 882 c 2,33,-1
 390 576 l 2,34,35
 390 411 390 411 456.5 307 c 128,-1,36
 523 203 523 203 634 203 c 0,37,38
 719 203 719 203 765.5 223.5 c 128,-1,39
 812 244 812 244 840 277 c 1,40,-1
 840 553 l 1,41,-1
 652 553 l 1,42,-1
 652 755 l 1,43,-1
 1320 755 l 1,44,-1
 1320 553 l 1,45,-1
 1132 553 l 1,46,-1
 1132 277 l 1,47,48
 1159 244 1159 244 1205.5 223.5 c 128,-1,49
 1252 203 1252 203 1338 203 c 0,50,51
 1448 203 1448 203 1514.5 307 c 128,-1,52
 1581 411 1581 411 1581 576 c 2,53,-1
 1581 882 l 2,54,55
 1581 1045 1581 1045 1517 1148.5 c 128,-1,56
 1453 1252 1453 1252 1349 1252 c 0,57,58
 1293 1252 1293 1252 1245 1244 c 128,-1,59
 1197 1236 1197 1236 1158 1222 c 1,60,-1
 1097 1435 l 1,0,1
EndSplineSet
Validated: 1
EndChar

StartChar: uni0461
Encoding: 1121 1121 525
Width: 1461
GlyphClass: 1
Flags: W
LayerCount: 2
Fore
SplineSet
503 403 m 1,0,-1
 531 255 l 1,1,-1
 537 255 l 1,2,-1
 578 403 l 1,3,-1
 656 703 l 1,4,-1
 546 1082 l 1,5,-1
 836 1082 l 1,6,-1
 980 403 l 1,7,-1
 995 326 l 1,8,-1
 1001 326 l 1,9,-1
 1003 336 l 1,10,11
 1075 490 1075 490 1102.5 681 c 128,-1,12
 1130 872 1130 872 1126 1082 c 1,13,-1
 1431 1082 l 1,14,15
 1407 795 1407 795 1331 527.5 c 128,-1,16
 1255 260 1255 260 1134 0 c 1,17,-1
 862 0 l 1,18,-1
 766 327 l 1,19,-1
 760 328 l 1,20,-1
 648 0 l 1,21,-1
 384 0 l 1,22,-1
 16 1082 l 1,23,-1
 321 1082 l 1,24,-1
 503 403 l 1,0,-1
EndSplineSet
Validated: 33
EndChar

StartChar: uni0462
Encoding: 1122 1122 526
Width: 1283
GlyphClass: 1
Flags: W
LayerCount: 2
Fore
SplineSet
677 1090 m 1,0,-1
 424 1090 l 1,1,-1
 424 944 l 1,2,-1
 674 944 l 2,3,4
 925 944 925 944 1073 813 c 128,-1,5
 1221 682 1221 682 1221 474 c 0,6,7
 1221 264 1221 264 1072.5 132 c 128,-1,8
 924 0 924 0 674 0 c 2,9,-1
 132 0 l 1,10,-1
 132 1090 l 1,11,-1
 6 1090 l 1,12,-1
 6 1271 l 1,13,-1
 132 1271 l 1,14,-1
 132 1456 l 1,15,-1
 424 1456 l 1,16,-1
 424 1271 l 1,17,-1
 677 1271 l 1,18,-1
 677 1090 l 1,0,-1
424 719 m 1,19,-1
 424 224 l 1,20,-1
 674 224 l 2,21,22
 797 224 797 224 863.5 297 c 128,-1,23
 930 370 930 370 930 476 c 0,24,25
 930 578 930 578 863.5 648.5 c 128,-1,26
 797 719 797 719 674 719 c 2,27,-1
 424 719 l 1,19,-1
EndSplineSet
Validated: 1
EndChar

StartChar: uni0463
Encoding: 1123 1123 527
Width: 1143
GlyphClass: 1
Flags: W
LayerCount: 2
Fore
SplineSet
677 1105 m 1,0,-1
 422 1105 l 1,1,-1
 422 732 l 1,2,-1
 625 732 l 2,3,4
 843 732 843 732 968 631.5 c 128,-1,5
 1093 531 1093 531 1093 368 c 0,6,7
 1093 203 1093 203 968 101.5 c 128,-1,8
 843 0 843 0 625 0 c 2,9,-1
 129 0 l 1,10,-1
 129 1105 l 1,11,-1
 -11 1105 l 1,12,-1
 -11 1286 l 1,13,-1
 129 1286 l 1,14,-1
 129 1562 l 1,15,-1
 422 1562 l 1,16,-1
 422 1286 l 1,17,-1
 677 1286 l 1,18,-1
 677 1105 l 1,0,-1
422 508 m 1,19,-1
 422 223 l 1,20,-1
 625 223 l 2,21,22
 714 223 714 223 758 263 c 128,-1,23
 802 303 802 303 802 366 c 0,24,25
 802 427 802 427 758 467.5 c 128,-1,26
 714 508 714 508 625 508 c 2,27,-1
 422 508 l 1,19,-1
EndSplineSet
Validated: 1
EndChar

StartChar: uni0464
Encoding: 1124 1124 528
Width: 1828
GlyphClass: 1
Flags: W
LayerCount: 2
Fore
SplineSet
1226 611 m 1,0,-1
 857 611 l 1,1,-1
 857 584 l 2,2,3
 857 416 857 416 934.5 310 c 128,-1,4
 1012 204 1012 204 1150 204 c 0,5,6
 1281 204 1281 204 1345.5 272.5 c 128,-1,7
 1410 341 1410 341 1410 483 c 1,8,-1
 1693 483 l 1,9,-1
 1695 477 l 1,10,11
 1699 244 1699 244 1553 112 c 128,-1,12
 1407 -20 1407 -20 1150 -20 c 0,13,14
 888 -20 888 -20 727 148.5 c 128,-1,15
 566 317 566 317 566 584 c 2,16,-1
 566 611 l 1,17,-1
 447 611 l 1,18,-1
 447 0 l 1,19,-1
 155 0 l 1,20,-1
 155 1456 l 1,21,-1
 447 1456 l 1,22,-1
 447 836 l 1,23,-1
 566 836 l 1,24,-1
 566 873 l 2,25,26
 566 1139 566 1139 723 1308.5 c 128,-1,27
 880 1478 880 1478 1135 1478 c 0,28,29
 1401 1478 1401 1478 1551 1348 c 128,-1,30
 1701 1218 1701 1218 1697 982 c 1,31,-1
 1695 976 l 1,32,-1
 1411 976 l 1,33,34
 1411 1116 1411 1116 1343.5 1184.5 c 128,-1,35
 1276 1253 1276 1253 1135 1253 c 0,36,37
 1004 1253 1004 1253 930.5 1147.5 c 128,-1,38
 857 1042 857 1042 857 875 c 2,39,-1
 857 836 l 1,40,-1
 1226 836 l 1,41,-1
 1226 611 l 1,0,-1
EndSplineSet
Validated: 33
EndChar

StartChar: uni0465
Encoding: 1125 1125 529
Width: 1546
GlyphClass: 1
Flags: W
LayerCount: 2
Fore
SplineSet
1097 461 m 1,0,-1
 789 461 l 1,1,-1
 786 456 l 1,2,3
 791 342 791 342 839.5 272.5 c 128,-1,4
 888 203 888 203 990 203 c 0,5,6
 1066 203 1066 203 1111 248.5 c 128,-1,7
 1156 294 1156 294 1156 370 c 1,8,-1
 1422 370 l 1,9,-1
 1424 364 l 1,10,11
 1428 200 1428 200 1302 89.5 c 128,-1,12
 1176 -21 1176 -21 990 -21 c 0,13,14
 766 -21 766 -21 637 112.5 c 128,-1,15
 508 246 508 246 491 461 c 1,16,-1
 423 461 l 1,17,-1
 423 0 l 1,18,-1
 131 0 l 1,19,-1
 131 1082 l 1,20,-1
 423 1082 l 1,21,-1
 423 642 l 1,22,-1
 493 642 l 1,23,24
 516 847 516 847 644 974.5 c 128,-1,25
 772 1102 772 1102 988 1102 c 0,26,27
 1186 1102 1186 1102 1307 988 c 128,-1,28
 1428 874 1428 874 1424 688 c 1,29,-1
 1422 682 l 1,30,-1
 1156 682 l 1,31,32
 1156 766 1156 766 1111.5 821.5 c 128,-1,33
 1067 877 1067 877 988 877 c 0,34,35
 893 877 893 877 845 813 c 128,-1,36
 797 749 797 749 789 647 c 1,37,-1
 791 642 l 1,38,-1
 1097 642 l 1,39,-1
 1097 461 l 1,0,-1
EndSplineSet
Validated: 33
EndChar

StartChar: uni0466
Encoding: 1126 1126 530
Width: 1346
GlyphClass: 1
Flags: W
LayerCount: 2
Fore
SplineSet
908 390 m 1,0,-1
 797 390 l 1,1,-1
 797 0 l 1,2,-1
 552 0 l 1,3,-1
 552 390 l 1,4,-1
 452 390 l 1,5,-1
 323 0 l 1,6,-1
 18 0 l 1,7,-1
 532 1456 l 1,8,-1
 832 1456 l 1,9,-1
 1343 0 l 1,10,-1
 1037 0 l 1,11,-1
 908 390 l 1,0,-1
518 591 m 1,12,-1
 842 591 l 1,13,-1
 683 1071 l 1,14,-1
 677 1071 l 1,15,-1
 518 591 l 1,12,-1
EndSplineSet
Validated: 1
EndChar

StartChar: uni0467
Encoding: 1127 1127 531
Width: 1146
GlyphClass: 1
Flags: W
LayerCount: 2
Fore
SplineSet
733 271 m 1,0,-1
 656 271 l 1,1,-1
 656 0 l 1,2,-1
 465 0 l 1,3,-1
 465 271 l 1,4,-1
 396 271 l 1,5,-1
 304 0 l 1,6,-1
 7 0 l 1,7,-1
 415 1082 l 1,8,-1
 715 1082 l 1,9,-1
 1124 0 l 1,10,-1
 827 0 l 1,11,-1
 733 271 l 1,0,-1
459 456 m 1,12,-1
 670 456 l 1,13,-1
 594 677 l 1,14,-1
 567 790 l 1,15,-1
 561 790 l 1,16,-1
 534 677 l 1,17,-1
 459 456 l 1,12,-1
EndSplineSet
Validated: 1
EndChar

StartChar: uni0468
Encoding: 1128 1128 532
Width: 1919
GlyphClass: 1
Flags: W
LayerCount: 2
Fore
SplineSet
465 591 m 1,0,-1
 756 591 l 1,1,-1
 1061 1456 l 1,2,-1
 1361 1456 l 1,3,-1
 1872 0 l 1,4,-1
 1566 0 l 1,5,-1
 1437 390 l 1,6,-1
 1326 390 l 1,7,-1
 1326 0 l 1,8,-1
 1081 0 l 1,9,-1
 1081 390 l 1,10,-1
 981 390 l 1,11,-1
 852 0 l 1,12,-1
 547 0 l 1,13,-1
 684 389 l 1,14,-1
 465 389 l 1,15,-1
 465 0 l 1,16,-1
 173 0 l 1,17,-1
 173 1456 l 1,18,-1
 465 1456 l 1,19,-1
 465 591 l 1,0,-1
1047 591 m 1,20,-1
 1371 591 l 1,21,-1
 1212 1071 l 1,22,-1
 1206 1071 l 1,23,-1
 1047 591 l 1,20,-1
EndSplineSet
Validated: 1
EndChar

StartChar: uni0469
Encoding: 1129 1129 533
Width: 1638
GlyphClass: 1
Flags: W
LayerCount: 2
Fore
SplineSet
458 455 m 1,0,-1
 625 455 l 1,1,-1
 862 1082 l 1,2,-1
 1162 1082 l 1,3,-1
 1571 0 l 1,4,-1
 1274 0 l 1,5,-1
 1180 271 l 1,6,-1
 1103 271 l 1,7,-1
 1103 0 l 1,8,-1
 912 0 l 1,9,-1
 912 271 l 1,10,-1
 843 271 l 1,11,-1
 751 0 l 1,12,-1
 166 0 l 1,13,-1
 166 1082 l 1,14,-1
 458 1082 l 1,15,-1
 458 455 l 1,0,-1
906 456 m 1,16,-1
 1117 456 l 1,17,-1
 1041 677 l 1,18,-1
 1014 790 l 1,19,-1
 1008 790 l 1,20,-1
 981 677 l 1,21,-1
 906 456 l 1,16,-1
458 272 m 1,22,-1
 458 27 l 1,23,-1
 464 26 l 1,24,-1
 556 272 l 1,25,-1
 458 272 l 1,22,-1
EndSplineSet
Validated: 1
EndChar

StartChar: uni046A
Encoding: 1130 1130 534
Width: 1784
GlyphClass: 1
Flags: W
LayerCount: 2
Fore
SplineSet
1175 804 m 1,0,1
 1419 796 1419 796 1545 687 c 128,-1,2
 1671 578 1671 578 1671 344 c 2,3,-1
 1671 0 l 1,4,-1
 1379 0 l 1,5,-1
 1379 344 l 2,6,7
 1379 475 1379 475 1321 526 c 128,-1,8
 1263 577 1263 577 1135 577 c 2,9,-1
 1051 577 l 1,10,-1
 1051 0 l 1,11,-1
 759 0 l 1,12,-1
 759 577 l 1,13,-1
 649 577 l 2,14,15
 520 577 520 577 462.5 526 c 128,-1,16
 405 475 405 475 405 344 c 2,17,-1
 405 0 l 1,18,-1
 113 0 l 1,19,-1
 113 344 l 2,20,21
 113 586 113 586 247 694.5 c 128,-1,22
 381 803 381 803 642 805 c 1,23,-1
 268 1456 l 1,24,-1
 1550 1456 l 1,25,-1
 1175 804 l 1,0,1
909 839 m 1,26,-1
 1111 1228 l 1,27,-1
 707 1228 l 1,28,-1
 909 839 l 1,26,-1
EndSplineSet
Validated: 1
EndChar

StartChar: uni046B
Encoding: 1131 1131 535
Width: 1501
GlyphClass: 1
Flags: W
LayerCount: 2
Fore
SplineSet
110 0 m 1,0,-1
 110 179 l 2,1,2
 110 385 110 385 209 488 c 128,-1,3
 308 591 308 591 501 609 c 1,4,-1
 226 1082 l 1,5,-1
 1291 1082 l 1,6,-1
 1015 608 l 1,7,8
 1199 587 1199 587 1295 484 c 128,-1,9
 1391 381 1391 381 1391 179 c 2,10,-1
 1391 0 l 1,11,-1
 1100 0 l 1,12,-1
 1100 179 l 2,13,14
 1100 302 1100 302 1055.5 350 c 128,-1,15
 1011 398 1011 398 912 398 c 2,16,-1
 901 398 l 1,17,-1
 901 0 l 1,18,-1
 609 0 l 1,19,-1
 609 398 l 1,20,-1
 589 398 l 2,21,22
 489 398 489 398 445 350 c 128,-1,23
 401 302 401 302 401 179 c 2,24,-1
 401 0 l 1,25,-1
 110 0 l 1,0,-1
755 635 m 1,26,-1
 761 635 l 1,27,-1
 884 894 l 1,28,-1
 632 894 l 1,29,-1
 755 635 l 1,26,-1
EndSplineSet
Validated: 1
EndChar

StartChar: uni046C
Encoding: 1132 1132 536
Width: 2383
GlyphClass: 1
Flags: W
LayerCount: 2
Fore
SplineSet
1302 578 m 1,0,-1
 332 578 l 1,1,-1
 332 806 l 1,2,-1
 1302 806 l 1,3,-1
 1302 578 l 1,0,-1
446 0 m 1,4,-1
 154 0 l 1,5,-1
 154 1456 l 1,6,-1
 446 1456 l 1,7,-1
 446 0 l 1,4,-1
1742 804 m 1,8,9
 1986 796 1986 796 2112 687 c 128,-1,10
 2238 578 2238 578 2238 344 c 2,11,-1
 2238 0 l 1,12,-1
 1946 0 l 1,13,-1
 1946 344 l 2,14,15
 1946 475 1946 475 1888 526 c 128,-1,16
 1830 577 1830 577 1702 577 c 2,17,-1
 1618 577 l 1,18,-1
 1618 0 l 1,19,-1
 1326 0 l 1,20,-1
 1326 577 l 1,21,-1
 1216 577 l 2,22,23
 1087 577 1087 577 1029.5 526 c 128,-1,24
 972 475 972 475 972 344 c 2,25,-1
 972 0 l 1,26,-1
 680 0 l 1,27,-1
 680 344 l 2,28,29
 680 586 680 586 814 694.5 c 128,-1,30
 948 803 948 803 1209 805 c 1,31,-1
 835 1456 l 1,32,-1
 2117 1456 l 1,33,-1
 1742 804 l 1,8,9
1476 839 m 1,34,-1
 1678 1228 l 1,35,-1
 1274 1228 l 1,36,-1
 1476 839 l 1,34,-1
EndSplineSet
Validated: 5
EndChar

StartChar: uni046D
Encoding: 1133 1133 537
Width: 2062
GlyphClass: 1
Flags: W
LayerCount: 2
Fore
SplineSet
1228 406 m 1,0,-1
 232 406 l 1,1,-1
 232 613 l 1,2,-1
 1228 613 l 1,3,-1
 1228 406 l 1,0,-1
425 0 m 1,4,-1
 133 0 l 1,5,-1
 133 1082 l 1,6,-1
 425 1082 l 1,7,-1
 425 0 l 1,4,-1
616 0 m 1,8,-1
 616 179 l 2,9,10
 616 385 616 385 715 488 c 128,-1,11
 814 591 814 591 1007 609 c 1,12,-1
 732 1082 l 1,13,-1
 1797 1082 l 1,14,-1
 1521 608 l 1,15,16
 1705 587 1705 587 1801 484 c 128,-1,17
 1897 381 1897 381 1897 179 c 2,18,-1
 1897 0 l 1,19,-1
 1606 0 l 1,20,-1
 1606 179 l 2,21,22
 1606 302 1606 302 1561.5 350 c 128,-1,23
 1517 398 1517 398 1418 398 c 2,24,-1
 1407 398 l 1,25,-1
 1407 0 l 1,26,-1
 1115 0 l 1,27,-1
 1115 398 l 1,28,-1
 1095 398 l 2,29,30
 995 398 995 398 951 350 c 128,-1,31
 907 302 907 302 907 179 c 2,32,-1
 907 0 l 1,33,-1
 616 0 l 1,8,-1
1261 635 m 1,34,-1
 1267 635 l 1,35,-1
 1390 894 l 1,36,-1
 1138 894 l 1,37,-1
 1261 635 l 1,34,-1
EndSplineSet
Validated: 5
EndChar

StartChar: uni046E
Encoding: 1134 1134 538
Width: 1052
GlyphClass: 1
Flags: W
LayerCount: 2
Fore
SplineSet
388 862 m 2,0,1
 501 862 501 862 555.5 913 c 128,-1,2
 610 964 610 964 610 1051 c 0,3,4
 610 1132 610 1132 552.5 1178.5 c 128,-1,5
 495 1225 495 1225 381 1225 c 2,6,-1
 121 1225 l 1,7,-1
 121 1456 l 1,8,-1
 381 1456 l 2,9,10
 623 1456 623 1456 762.5 1360 c 128,-1,11
 902 1264 902 1264 902 1075 c 0,12,13
 902 957 902 957 841.5 874 c 128,-1,14
 781 791 781 791 671 748 c 1,15,16
 805 705 805 705 876 618.5 c 128,-1,17
 947 532 947 532 947 408 c 0,18,19
 947 206 947 206 809.5 92.5 c 128,-1,20
 672 -21 672 -21 442 -21 c 2,21,-1
 384 -21 l 2,22,23
 325 -21 325 -21 298 -46.5 c 128,-1,24
 271 -72 271 -72 271 -117 c 0,25,26
 271 -177 271 -177 313 -214 c 128,-1,27
 355 -251 355 -251 415 -277 c 1,28,-1
 333 -448 l 1,29,30
 174 -412 174 -412 90 -316 c 128,-1,31
 6 -220 6 -220 5 -80 c 0,32,33
 5 64 5 64 99.5 137.5 c 128,-1,34
 194 211 194 211 362 211 c 2,35,-1
 426 211 l 2,36,37
 532 211 532 211 593.5 264.5 c 128,-1,38
 655 318 655 318 655 404 c 0,39,40
 655 514 655 514 585 572 c 128,-1,41
 515 630 515 630 381 630 c 2,42,-1
 238 630 l 1,43,-1
 238 862 l 1,44,-1
 388 862 l 2,0,1
561 1788 m 1,45,-1
 678 1915 l 1,46,-1
 942 1915 l 1,47,-1
 942 1898 l 1,48,-1
 661 1643 l 1,49,-1
 462 1643 l 1,50,-1
 181 1899 l 1,51,-1
 181 1915 l 1,52,-1
 445 1915 l 1,53,-1
 561 1788 l 1,45,-1
EndSplineSet
Validated: 1
EndChar

StartChar: uni046F
Encoding: 1135 1135 539
Width: 1033
GlyphClass: 1
Flags: W
LayerCount: 2
Fore
SplineSet
404 626 m 2,0,1
 496 626 496 626 540.5 662 c 128,-1,2
 585 698 585 698 585 760 c 0,3,4
 585 813 585 813 533.5 845 c 128,-1,5
 482 877 482 877 381 877 c 2,6,-1
 121 877 l 1,7,-1
 121 1082 l 1,8,-1
 381 1082 l 2,9,10
 611 1082 611 1082 743.5 1006.5 c 128,-1,11
 876 931 876 931 876 783 c 0,12,13
 876 699 876 699 829 637.5 c 128,-1,14
 782 576 782 576 696 541 c 1,15,16
 805 508 805 508 863 448 c 128,-1,17
 921 388 921 388 921 304 c 0,18,19
 921 152 921 152 794.5 65.5 c 128,-1,20
 668 -21 668 -21 457 -21 c 2,21,-1
 408 -21 l 2,22,23
 341 -21 341 -21 310 -46.5 c 128,-1,24
 279 -72 279 -72 279 -117 c 0,25,26
 279 -177 279 -177 316.5 -214 c 128,-1,27
 354 -251 354 -251 408 -277 c 1,28,-1
 326 -434 l 1,29,30
 195 -392 195 -392 112 -298.5 c 128,-1,31
 29 -205 29 -205 28 -80 c 0,32,33
 28 51 28 51 114.5 117.5 c 128,-1,34
 201 184 201 184 355 184 c 2,35,-1
 411 184 l 2,36,37
 512 184 512 184 571 219.5 c 128,-1,38
 630 255 630 255 630 313 c 0,39,40
 630 379 630 379 570 414 c 128,-1,41
 510 449 510 449 397 449 c 2,42,-1
 238 449 l 1,43,-1
 238 626 l 1,44,-1
 404 626 l 2,0,1
489 1444 m 1,45,-1
 606 1571 l 1,46,-1
 870 1571 l 1,47,-1
 870 1554 l 1,48,-1
 589 1299 l 1,49,-1
 390 1299 l 1,50,-1
 109 1555 l 1,51,-1
 109 1571 l 1,52,-1
 373 1571 l 1,53,-1
 489 1444 l 1,45,-1
EndSplineSet
Validated: 1
EndChar

StartChar: uni0472
Encoding: 1138 1138 542
Width: 1410
GlyphClass: 1
Flags: W
LayerCount: 2
Fore
SplineSet
1312 597 m 2,0,1
 1312 328 1312 328 1143 153.5 c 128,-1,2
 974 -21 974 -21 703 -21 c 0,3,4
 433 -21 433 -21 265 154 c 128,-1,5
 97 329 97 329 97 597 c 2,6,-1
 97 859 l 2,7,8
 97 1126 97 1126 264.5 1301.5 c 128,-1,9
 432 1477 432 1477 701 1477 c 0,10,11
 972 1477 972 1477 1142 1301.5 c 128,-1,12
 1312 1126 1312 1126 1312 859 c 2,13,-1
 1312 597 l 2,0,1
889 754 m 0,14,15
 923 754 923 754 960 773.5 c 128,-1,16
 997 793 997 793 1021 825 c 1,17,-1
 1021 861 l 2,18,19
 1021 1031 1021 1031 936 1140 c 128,-1,20
 851 1249 851 1249 701 1249 c 0,21,22
 553 1249 553 1249 470.5 1140 c 128,-1,23
 388 1031 388 1031 388 861 c 2,24,-1
 388 786 l 1,25,26
 418 825 418 825 461.5 847 c 128,-1,27
 505 869 505 869 560 869 c 0,28,29
 627 869 627 869 727.5 811.5 c 128,-1,30
 828 754 828 754 889 754 c 0,14,15
1021 618 m 1,31,32
 990 587 990 587 948.5 570 c 128,-1,33
 907 553 907 553 858 553 c 0,34,35
 775 553 775 553 683.5 611 c 128,-1,36
 592 669 592 669 530 669 c 0,37,38
 486 669 486 669 444 637 c 128,-1,39
 402 605 402 605 389 561 c 1,40,41
 397 402 397 402 479.5 304 c 128,-1,42
 562 206 562 206 703 206 c 0,43,44
 853 206 853 206 937 315 c 128,-1,45
 1021 424 1021 424 1021 597 c 2,46,-1
 1021 618 l 1,31,32
EndSplineSet
Validated: 1
EndChar

